<?xml version="1.0" encoding="UTF-8" standalone="no"?>
<svg width="24px" height="23px" viewBox="0 0 24 23" version="1.1" xmlns="http://www.w3.org/2000/svg" xmlns:xlink="http://www.w3.org/1999/xlink">
    <!-- Generator: Sketch 39.1 (31720) - http://www.bohemiancoding.com/sketch -->
    <title>alarm-clock</title>
    <desc>Created with Sketch.</desc>
    <defs></defs>
    <g id="Page-1" stroke="none" stroke-width="1" fill="none" fill-rule="evenodd">
        <g id="ikoner" transform="translate(-227.000000, -321.000000)" fill="#FFC40D">
            <g id="alarm-clock" transform="translate(227.000000, 321.000000)">
                <g id="Outline_Version">
                    <g id="Group">
                        <path d="M22,13 C22,7.486 17.514,3 12,3 C6.486,3 2,7.486 2,13 C2,16.213 3.53,19.07 5.893,20.901 L4.647,22.147 C4.452,22.342 4.452,22.659 4.647,22.854 C4.744,22.951 4.872,23 5,23 C5.128,23 5.256,22.951 5.354,22.854 L6.727,21.481 C8.26,22.438 10.063,23 12,23 C13.937,23 15.74,22.437 17.273,21.481 L18.647,22.854 C18.744,22.951 18.872,23 19,23 C19.128,23 19.256,22.951 19.354,22.854 C19.549,22.659 19.549,22.342 19.354,22.147 L18.108,20.901 C20.47,19.07 22,16.214 22,13 L22,13 Z M12,22 C7.038,22 3,17.962 3,13 C3,8.038 7.038,4 12,4 C16.962,4 21,8.038 21,13 C21,17.962 16.962,22 12,22 L12,22 Z" id="Shape"></path>
                        <path d="M12.5,7 C12.224,7 12,7.224 12,7.5 L12,13 L8.5,13 C8.224,13 8,13.224 8,13.5 C8,13.776 8.224,14 8.5,14 L12.5,14 C12.776,14 13,13.776 13,13.5 L13,7.5 C13,7.224 12.776,7 12.5,7 L12.5,7 Z" id="Shape"></path>
                        <path d="M2.354,7.854 C2.549,7.659 2.549,7.342 2.354,7.147 C0.989,5.781 0.989,3.72 2.354,2.354 C3.676,1.032 5.825,1.032 7.147,2.354 C7.342,2.549 7.659,2.549 7.854,2.354 C8.049,2.159 8.049,1.842 7.854,1.647 C6.155,-0.053 3.346,-0.053 1.647,1.647 C-0.121,3.417 -0.121,6.085 1.647,7.854 C1.744,7.951 1.872,8 2,8 C2.128,8 2.256,7.951 2.354,7.854 L2.354,7.854 Z" id="Shape"></path>
                        <path d="M22.354,1.646 C20.655,-0.054 17.846,-0.054 16.147,1.646 C15.952,1.841 15.952,2.158 16.147,2.353 C16.342,2.548 16.659,2.548 16.854,2.353 C18.176,1.031 20.325,1.031 21.647,2.353 C23.012,3.719 23.012,5.78 21.647,7.146 C21.452,7.341 21.452,7.658 21.647,7.853 C21.744,7.951 21.872,8 22,8 C22.128,8 22.256,7.951 22.354,7.854 C24.122,6.084 24.122,3.416 22.354,1.646 L22.354,1.646 Z" id="Shape"></path>
                    </g>
                </g>
            </g>
        </g>
    </g>
</svg>