<?xml version="1.0" encoding="UTF-8" standalone="no"?>
<svg width="24px" height="24px" viewBox="0 0 26 26" version="1.1" xmlns="http://www.w3.org/2000/svg" xmlns:xlink="http://www.w3.org/1999/xlink">
    <!-- Generator: Sketch 39.1 (31720) - http://www.bohemiancoding.com/sketch -->
    <title>bubble chat 2</title>
    <desc>Created with Sketch.</desc>
    <defs></defs>
    <g id="Page-1" stroke="none" stroke-width="1" fill="none" fill-rule="evenodd">
        <g id="ikoner" transform="translate(-230.000000, -436.000000)" fill="#000000">
            <g id="bubble-chat-2" transform="translate(231.000000, 437.000000)">
                <g id="Outline_Version">
                    <path d="M12,0.876 C5.383,0.876 0,5.31 0,10.759 C0,13.332 1.177,15.744 3.325,17.59 L0.915,22.402 C0.82,22.591 0.855,22.822 1.004,22.974 C1.1,23.073 1.23,23.125 1.362,23.125 C1.433,23.125 1.506,23.109 1.573,23.078 L8.01,20.082 C9.292,20.454 10.634,20.643 12,20.643 C18.617,20.643 24,16.209 24,10.759 C24,5.31 18.617,0.876 12,0.876 L12,0.876 Z M12,19.643 C10.667,19.643 9.36,19.451 8.117,19.071 C7.999,19.035 7.871,19.044 7.76,19.096 L2.452,21.567 L4.398,17.683 C4.503,17.472 4.447,17.216 4.263,17.069 C2.159,15.386 1,13.145 1,10.759 C1,5.861 5.935,1.876 12,1.876 C18.065,1.876 23,5.861 23,10.759 C23,15.657 18.065,19.643 12,19.643 L12,19.643 Z" id="Shape"></path>
                </g>
            </g>
        </g>
    </g>
</svg>