<?xml version="1.0" encoding="UTF-8" standalone="no"?>
<svg width="24px" height="24px" viewBox="0 0 26 26" version="1.1" xmlns="http://www.w3.org/2000/svg" xmlns:xlink="http://www.w3.org/1999/xlink">
    <!-- Generator: Sketch 39.1 (31720) - http://www.bohemiancoding.com/sketch -->
    <title>bubble chat_hover-sort</title>
    <desc>Created with Sketch.</desc>
    <defs></defs>
    <g id="Page-1" stroke="none" stroke-width="1" fill="none" fill-rule="evenodd">
        <g id="ikoner" transform="translate(-307.000000, -436.000000)" fill="#3E3832">
            <g id="bubble-chat-2" transform="translate(308.000000, 437.000000)">
                <g id="Filled_Version">
                    <path d="M12,0.875 C5.383,0.875 0,5.309 0,10.758 C0,13.332 1.177,15.744 3.325,17.59 L0.916,22.4 C0.82,22.591 0.856,22.82 1.004,22.972 C1.101,23.072 1.231,23.124 1.363,23.124 C1.435,23.124 1.506,23.108 1.574,23.077 L8.011,20.081 C9.289,20.452 10.63,20.64 12.001,20.64 C18.618,20.64 24.001,16.206 24.001,10.758 C24,5.309 18.617,0.875 12,0.875 L12,0.875 Z" id="Shape"></path>
                </g>
            </g>
        </g>
    </g>
</svg>