<?xml version="1.0" encoding="UTF-8" standalone="no"?>
<svg width="24px" height="24px" viewBox="0 0 24 24" version="1.1" xmlns="http://www.w3.org/2000/svg" xmlns:xlink="http://www.w3.org/1999/xlink">
    <!-- Generator: Sketch 39.1 (31720) - http://www.bohemiancoding.com/sketch -->
    <title>calendar_hover-hvit</title>
    <desc>Created with Sketch.</desc>
    <defs></defs>
    <g id="Page-1" stroke="none" stroke-width="1" fill="none" fill-rule="evenodd">
        <g id="ikoner" transform="translate(-389.000000, -490.000000)" fill="#FFFFFF">
            <g id="calendar-3-copy" transform="translate(389.000000, 490.000000)">
                <g id="Filled_Version">
                    <g id="Group">
                        <path d="M0,23.5 C0,23.8 0.2,24 0.5,24 L23.5,24 C23.8,24 24,23.8 24,23.5 L24,8 L0,8 L0,23.5 L0,23.5 Z" id="Shape"></path>
                        <path d="M23.5,2 L20,2 L20,0.5 C20,0.2 19.8,0 19.5,0 L16.5,0 C16.2,0 16,0.2 16,0.5 L16,2 L8,2 L8,0.5 C8,0.2 7.8,0 7.5,0 L4.5,0 C4.2,0 4,0.2 4,0.5 L4,2 L0.5,2 C0.2,2 0,2.2 0,2.5 L0,7 L24,7 L24,2.5 C24,2.2 23.8,2 23.5,2 L23.5,2 Z M7,4 L5,4 L5,1 L7,1 L7,4 L7,4 Z M19,4 L17,4 L17,1 L19,1 L19,4 L19,4 Z" id="Shape"></path>
                    </g>
                </g>
            </g>
        </g>
    </g>
</svg>