<?xml version="1.0" encoding="UTF-8" standalone="no"?>
<svg width="24px" height="24px" viewBox="0 0 24 24" version="1.1" xmlns="http://www.w3.org/2000/svg" xmlns:xlink="http://www.w3.org/1999/xlink">
    <!-- Generator: Sketch 39.1 (31720) - http://www.bohemiancoding.com/sketch -->
    <title>coin receive_hover-hvit</title>
    <desc>Created with Sketch.</desc>
    <defs></defs>
    <g id="Page-1" stroke="none" stroke-width="1" fill="none" fill-rule="evenodd">
        <g id="ikoner" transform="translate(-388.000000, -214.000000)" fill="#FFFFFF">
            <g id="coin-receive-copy" transform="translate(388.000000, 214.000000)">
                <g id="Filled_Version">
                    <g id="Group">
                        <path d="M4.5,13.563 L0.5,13.563 C0.224,13.563 0,13.787 0,14.063 L0,21.563 C0,21.839 0.224,22.063 0.5,22.063 L4.5,22.063 C4.775,22.063 5,21.839 5,21.563 L5,14.063 C5,13.787 4.775,13.563 4.5,13.563 L4.5,13.563 Z" id="Shape"></path>
                        <path d="M23.854,17.709 C22.68,16.536 21.667,16.209 20.342,16.588 L17.334,17.587 C17.36,17.744 17.375,17.903 17.375,18.063 C17.375,18.703 17.167,19.305 16.79,19.758 C16.352,20.284 15.732,20.563 15,20.563 L10,20.563 C9.724,20.563 9.5,20.339 9.5,20.063 C9.5,19.787 9.724,19.563 10,19.563 L15,19.563 C15.432,19.563 15.775,19.413 16.021,19.118 C16.246,18.848 16.375,18.464 16.375,18.063 C16.375,17.505 16.085,16.563 15,16.563 L12.202,16.563 L12,16.563 C11.867,16.563 11.74,16.51 11.646,16.417 C11.187,15.958 9.792,14.563 7.5,14.563 L6,14.563 C5.724,14.563 5.5,14.787 5.5,15.063 L5.5,20.563 C5.5,20.778 5.638,20.969 5.842,21.037 C7.403,21.558 8.623,22.001 9.603,22.358 C11.531,23.059 12.61,23.438 13.572,23.438 C14.719,23.438 15.7,22.9 17.749,21.729 C19.105,20.954 20.962,19.893 23.725,18.512 C23.869,18.44 23.969,18.304 23.995,18.144 C24.019,17.985 23.967,17.823 23.854,17.709 L23.854,17.709 Z" id="Shape"></path>
                        <path d="M17,7.563 C18.93,7.563 20.5,5.993 20.5,4.063 C20.5,2.132 18.93,0.563 17,0.563 C15.07,0.563 13.5,2.132 13.5,4.063 C13.5,5.993 15.07,7.563 17,7.563 L17,7.563 Z M16.5,3.063 C16.5,2.787 16.724,2.563 17,2.563 C17.275,2.563 17.5,2.787 17.5,3.063 L17.5,5.063 C17.5,5.339 17.275,5.563 17,5.563 C16.724,5.563 16.5,5.339 16.5,5.063 L16.5,3.063 L16.5,3.063 Z" id="Shape"></path>
                        <path d="M12.5,14.563 C14.43,14.563 16,12.993 16,11.063 C16,9.132 14.43,7.563 12.5,7.563 C10.57,7.563 9,9.132 9,11.063 C9,12.993 10.57,14.563 12.5,14.563 L12.5,14.563 Z M12,10.063 C12,9.787 12.224,9.563 12.5,9.563 C12.775,9.563 13,9.787 13,10.063 L13,12.063 C13,12.339 12.775,12.563 12.5,12.563 C12.224,12.563 12,12.339 12,12.063 L12,10.063 L12,10.063 Z" id="Shape"></path>
                    </g>
                </g>
            </g>
        </g>
    </g>
</svg>