<?xml version="1.0" encoding="UTF-8" standalone="no"?>
<svg width="24px" height="23px" viewBox="0 0 24 23" version="1.1" xmlns="http://www.w3.org/2000/svg" xmlns:xlink="http://www.w3.org/1999/xlink">
    <!-- Generator: Sketch 39.1 (31720) - http://www.bohemiancoding.com/sketch -->
    <title>coin receive</title>
    <desc>Created with Sketch.</desc>
    <defs></defs>
    <g id="Page-1" stroke="none" stroke-width="1" fill="none" fill-rule="evenodd">
        <g id="ikoner" transform="translate(-226.000000, -215.000000)" fill="#3E3832">
            <g id="coin-receive" transform="translate(226.000000, 215.000000)">
                <g id="Outline_Version">
                    <g id="Group">
                        <path d="M23.854,17.146 C22.68,15.973 21.669,15.647 20.343,16.025 L16.67,17.244 C16.553,16.591 15.985,16 15,16 L12.202,16 C11.459,15.299 9.773,14 7.5,14 L5,14 L5,13.5 C5,13.224 4.776,13 4.5,13 L0.5,13 C0.224,13 0,13.224 0,13.5 L0,21.542 C0,21.818 0.224,22.042 0.5,22.042 L4.5,22.042 C4.776,22.042 5,21.818 5,21.542 L5,20.695 C5.841,20.979 6.59,21.239 7.256,21.47 C9.88,22.381 11.344,22.88 12.675,22.88 C14.298,22.88 15.723,22.137 18.813,20.494 C20.094,19.813 21.689,18.965 23.724,17.947 C23.868,17.875 23.968,17.739 23.994,17.58 C24.02,17.421 23.967,17.26 23.854,17.146 L23.854,17.146 Z M4,21.042 L1,21.042 L1,14 L4,14 L4,21.042 L4,21.042 Z M18.343,19.611 C13.055,22.424 13.056,22.425 7.584,20.526 C6.833,20.265 5.976,19.968 5,19.641 L5,15 L7.5,15 C9.569,15 11.089,16.296 11.646,16.854 C11.74,16.947 11.867,17 12,17 L15,17 C15.514,17 15.695,17.27 15.695,17.5 C15.695,17.73 15.514,18 15,18 L9.5,18 C9.224,18 9,18.224 9,18.5 C9,18.776 9.224,19 9.5,19 L15,19 C15.639,19 16.097,18.748 16.376,18.396 L20.638,16.981 C21.295,16.792 21.866,16.804 22.618,17.384 C20.883,18.261 19.488,19.002 18.343,19.611 L18.343,19.611 Z" id="Shape"></path>
                        <path d="M17.5,7 C19.43,7 21,5.43 21,3.5 C21,1.57 19.43,0 17.5,0 C15.57,0 14,1.57 14,3.5 C14,5.43 15.57,7 17.5,7 L17.5,7 Z M17.5,1 C18.879,1 20,2.122 20,3.5 C20,4.878 18.879,6 17.5,6 C16.121,6 15,4.878 15,3.5 C15,2.122 16.121,1 17.5,1 L17.5,1 Z" id="Shape"></path>
                        <path d="M12.5,14 C14.43,14 16,12.43 16,10.5 C16,8.57 14.43,7 12.5,7 C10.57,7 9,8.57 9,10.5 C9,12.43 10.57,14 12.5,14 L12.5,14 Z M12.5,8 C13.879,8 15,9.122 15,10.5 C15,11.878 13.879,13 12.5,13 C11.121,13 10,11.878 10,10.5 C10,9.122 11.121,8 12.5,8 L12.5,8 Z" id="Shape"></path>
                        <path d="M12.5,12 C12.776,12 13,11.776 13,11.5 L13,9.5 C13,9.224 12.776,9 12.5,9 C12.224,9 12,9.224 12,9.5 L12,11.5 C12,11.776 12.224,12 12.5,12 L12.5,12 Z" id="Shape"></path>
                        <path d="M17.5,5 C17.776,5 18,4.776 18,4.5 L18,2.5 C18,2.224 17.776,2 17.5,2 C17.224,2 17,2.224 17,2.5 L17,4.5 C17,4.776 17.224,5 17.5,5 L17.5,5 Z" id="Shape"></path>
                    </g>
                </g>
            </g>
        </g>
    </g>
</svg>