<?xml version="1.0" encoding="UTF-8" standalone="no"?>
<svg width="18px" height="24px" viewBox="0 0 18 24" version="1.1" xmlns="http://www.w3.org/2000/svg" xmlns:xlink="http://www.w3.org/1999/xlink">
    <!-- Generator: Sketch 39.1 (31720) - http://www.bohemiancoding.com/sketch -->
    <title>file new_hover-hvit</title>
    <desc>Created with Sketch.</desc>
    <defs></defs>
    <g id="Page-1" stroke="none" stroke-width="1" fill="none" fill-rule="evenodd">
        <g id="ikoner" transform="translate(-392.000000, -380.000000)" fill="#FFFFFF">
            <g id="file-new-1-copy" transform="translate(392.000000, 380.000000)">
                <g id="Filled_Version">
                    <path d="M17.854,6.146 L11.854,0.146 C11.76,0.053 11.632,0 11.5,0 L0.5,0 C0.224,0 0,0.224 0,0.5 L0,23.5 C0,23.776 0.224,24 0.5,24 L17.5,24 C17.776,24 18,23.776 18,23.5 L18,6.5 C18,6.367 17.947,6.24 17.854,6.146 L17.854,6.146 Z M11.5,6.5 L11.5,0.5 L17.5,6.5 L11.5,6.5 L11.5,6.5 Z" id="Shape"></path>
                </g>
            </g>
        </g>
    </g>
</svg>