<?xml version="1.0" encoding="UTF-8" standalone="no"?>
<svg width="18px" height="24px" viewBox="0 0 20 26" version="1.1" xmlns="http://www.w3.org/2000/svg"
     xmlns:xlink="http://www.w3.org/1999/xlink">
    <!-- Generator: Sketch 39.1 (31720) - http://www.bohemiancoding.com/sketch -->
    <title>file new 1</title>
    <desc>Created with Sketch.</desc>
    <defs></defs>
    <g id="Page-1" stroke="none" stroke-width="1" fill="none" fill-rule="evenodd">
        <g id="ikoner" transform="translate(-230.000000, -380.000000)" fill="#000000">
            <g id="file-new-1" transform="translate(231.000000, 381.000000)">
                <g id="Outline_Version">
                    <path d="M17.961,6.308 C17.936,6.247 17.899,6.192 17.853,6.146 L11.854,0.147 C11.808,0.101 11.753,0.064 11.692,0.039 C11.632,0.014 11.567,0 11.5,0 L0.5,0 C0.224,0 0,0.224 0,0.5 L0,23.5 C0,23.776 0.224,24 0.5,24 L17.5,24 C17.776,24 18,23.776 18,23.5 L18,6.5 C18,6.433 17.986,6.368 17.961,6.308 L17.961,6.308 Z M12,1.707 L16.293,6 L12,6 L12,1.707 L12,1.707 Z M1,23 L1,1 L11,1 L11,6.5 C11,6.776 11.224,7 11.5,7 L17,7 L17,23 L1,23 L1,23 Z"
                          id="Shape"></path>
                </g>
            </g>
        </g>
    </g>
</svg>