<?xml version="1.0" encoding="UTF-8" standalone="no"?>
<svg width="24px" height="24px" viewBox="0 0 24 24" version="1.1" xmlns="http://www.w3.org/2000/svg" xmlns:xlink="http://www.w3.org/1999/xlink">
    <!-- Generator: Sketch 39.1 (31720) - http://www.bohemiancoding.com/sketch -->
    <title>first aid plaster</title>
    <desc>Created with Sketch.</desc>
    <defs></defs>
    <g id="Page-1" stroke="none" stroke-width="1" fill="none" fill-rule="evenodd">
        <g id="ikoner" transform="translate(-227.000000, -158.000000)">
            <g id="first-aid-plaster" transform="translate(227.000000, 158.000000)">
                <g id="Group">
                    <path d="M9.89,2.111 C7.743,-0.036 4.26,-0.036 2.112,2.111 C-0.037,4.261 -0.035,7.744 2.112,9.89 L14.112,21.89 C16.259,24.037 19.742,24.036 21.89,21.889 C24.037,19.743 24.037,16.258 21.89,14.112 L9.89,2.111 L9.89,2.111 Z M5.636,13.416 L13.413,5.637 L18.364,10.587 L10.587,18.366 L5.636,13.416 Z" id="Shape" stroke="#FFC40D"></path>
                    <path d="M4.223,7.966 C4.095,7.966 3.967,8.015 3.869,8.112 C3.674,8.307 3.674,8.624 3.869,8.819 C3.967,8.917 4.095,8.965 4.223,8.965 C4.351,8.965 4.479,8.916 4.577,8.819 C4.773,8.624 4.773,8.307 4.577,8.112 C4.479,8.015 4.351,7.966 4.223,7.966 L4.223,7.966 Z M6.344,5.844 C6.216,5.844 6.088,5.893 5.99,5.991 C5.795,6.184 5.795,6.503 5.99,6.698 C6.088,6.796 6.216,6.844 6.344,6.844 C6.472,6.844 6.6,6.796 6.697,6.698 C6.892,6.503 6.892,6.184 6.697,5.991 C6.6,5.893 6.472,5.844 6.344,5.844 L6.344,5.844 Z M3.869,5.49 C3.741,5.49 3.613,5.538 3.515,5.636 C3.32,5.831 3.32,6.148 3.515,6.345 C3.613,6.443 3.741,6.491 3.869,6.491 C3.997,6.491 4.125,6.442 4.223,6.345 C4.419,6.148 4.419,5.831 4.223,5.636 C4.125,5.538 3.997,5.49 3.869,5.49 L3.869,5.49 Z M5.99,3.37 C5.862,3.37 5.734,3.419 5.636,3.516 C5.441,3.711 5.441,4.028 5.636,4.222 C5.734,4.321 5.862,4.37 5.99,4.37 C6.118,4.37 6.246,4.321 6.344,4.222 C6.539,4.028 6.539,3.711 6.344,3.516 C6.246,3.419 6.118,3.37 5.99,3.37 L5.99,3.37 Z M6.697,8.317 C6.569,8.317 6.441,8.368 6.343,8.465 C6.148,8.66 6.148,8.977 6.343,9.172 C6.441,9.27 6.569,9.318 6.697,9.318 C6.825,9.318 6.953,9.269 7.051,9.172 C7.246,8.977 7.246,8.66 7.051,8.465 C6.953,8.368 6.825,8.317 6.697,8.317 L6.697,8.317 Z M8.818,6.198 C8.69,6.198 8.562,6.247 8.464,6.344 C8.27,6.54 8.27,6.855 8.465,7.05 C8.563,7.15 8.691,7.198 8.819,7.198 C8.947,7.198 9.074,7.149 9.172,7.05 C9.368,6.856 9.368,6.54 9.172,6.345 C9.074,6.247 8.946,6.198 8.818,6.198 L8.818,6.198 Z M8.465,3.722 C8.337,3.722 8.209,3.771 8.111,3.868 C7.916,4.065 7.916,4.382 8.111,4.577 C8.209,4.675 8.337,4.723 8.465,4.723 C8.593,4.723 8.721,4.674 8.819,4.577 C9.014,4.382 9.014,4.065 8.819,3.868 C8.721,3.771 8.593,3.722 8.465,3.722 L8.465,3.722 Z M15.536,19.28 C15.408,19.28 15.28,19.328 15.182,19.426 C14.987,19.62 14.987,19.937 15.182,20.134 C15.28,20.232 15.408,20.279 15.536,20.279 C15.664,20.279 15.792,20.232 15.89,20.134 C16.085,19.937 16.085,19.62 15.89,19.426 C15.792,19.328 15.664,19.28 15.536,19.28 L15.536,19.28 Z M17.657,17.157 C17.529,17.157 17.401,17.207 17.303,17.303 C17.107,17.498 17.107,17.815 17.303,18.011 C17.401,18.109 17.529,18.157 17.657,18.157 C17.785,18.157 17.913,18.108 18.011,18.011 C18.206,17.815 18.206,17.498 18.011,17.303 C17.913,17.207 17.785,17.157 17.657,17.157 L17.657,17.157 Z M18.011,19.632 C17.883,19.632 17.755,19.681 17.657,19.778 C17.462,19.975 17.462,20.292 17.657,20.485 C17.755,20.583 17.883,20.631 18.011,20.631 C18.139,20.631 18.267,20.582 18.365,20.485 C18.561,20.292 18.561,19.975 18.365,19.778 C18.267,19.681 18.139,19.632 18.011,19.632 L18.011,19.632 Z M20.133,17.512 C20.005,17.512 19.877,17.561 19.779,17.658 C19.584,17.852 19.584,18.169 19.779,18.366 C19.877,18.463 20.005,18.512 20.133,18.512 C20.261,18.512 20.389,18.463 20.487,18.366 C20.682,18.169 20.682,17.852 20.487,17.658 C20.389,17.561 20.261,17.512 20.133,17.512 L20.133,17.512 Z M15.183,16.804 C15.055,16.804 14.927,16.853 14.829,16.95 C14.634,17.145 14.634,17.463 14.829,17.658 C14.927,17.755 15.055,17.804 15.183,17.804 C15.311,17.804 15.439,17.755 15.537,17.658 C15.732,17.463 15.732,17.145 15.537,16.95 C15.438,16.853 15.311,16.804 15.183,16.804 L15.183,16.804 Z M17.304,14.683 C17.176,14.683 17.048,14.732 16.95,14.829 C16.755,15.025 16.755,15.341 16.95,15.536 C17.048,15.634 17.176,15.682 17.304,15.682 C17.432,15.682 17.56,15.633 17.658,15.536 C17.854,15.341 17.854,15.025 17.658,14.829 C17.56,14.731 17.432,14.683 17.304,14.683 L17.304,14.683 Z M19.779,15.036 C19.651,15.036 19.523,15.085 19.425,15.182 C19.23,15.377 19.23,15.694 19.425,15.889 C19.523,15.987 19.651,16.035 19.779,16.035 C19.907,16.035 20.034,15.986 20.132,15.889 C20.328,15.694 20.328,15.377 20.132,15.182 C20.034,15.085 19.907,15.036 19.779,15.036 L19.779,15.036 Z" id="Shape" fill="#FFC40D"></path>
                </g>
            </g>
        </g>
    </g>
</svg>