<?xml version="1.0" encoding="UTF-8" standalone="no"?>
<svg width="25px" height="25px" viewBox="0 0 25 25" version="1.1" xmlns="http://www.w3.org/2000/svg" xmlns:xlink="http://www.w3.org/1999/xlink">
    <!-- Generator: Sketch 39.1 (31720) - http://www.bohemiancoding.com/sketch -->
    <title>first aid plaster_hover-sort</title>
    <desc>Created with Sketch.</desc>
    <defs></defs>
    <g id="Page-1" stroke="none" stroke-width="1" fill="none" fill-rule="evenodd">
        <g id="ikoner" transform="translate(-307.000000, -158.000000)" fill="#3E3832">
            <g id="first-aid-plaster.1" transform="translate(307.000000, 158.000000)">
                <g id="Filled_Version">
                    <g id="Group">
                        <path d="M10.39,1.91 C8.13115537,-0.514530052 4.33453005,-0.648844627 1.91,1.61 C-0.514530052,3.86884463 -0.648844627,7.66546995 1.61,10.09 L1.91,10.39 L5.08,13.56 L13.56,5.08 L10.39,1.91 Z M3.67,5.79 C3.86568225,5.59591582 4.18151877,5.59677912 4.37613709,5.79193013 C4.57075542,5.98708115 4.57075542,6.30291885 4.37613709,6.49806987 C4.18151877,6.69322088 3.86568225,6.69408418 3.67,6.5 C3.57534367,6.4061167 3.52210084,6.27831877 3.52210084,6.145 C3.52210084,6.01168123 3.57534367,5.8838833 3.67,5.79 L3.67,5.79 L3.67,5.79 Z M4.72,8.97 C4.63549161,9.08002559 4.50830346,9.14907058 4.37,9.16 C4.12329736,9.18584421 3.89268784,9.03383847 3.81917944,8.79692787 C3.74567104,8.56001727 3.84973234,8.30417017 4.06773426,8.18582627 C4.28573618,8.06748237 4.55697554,8.11959483 4.7156009,8.31029908 C4.87422627,8.50100332 4.87606802,8.77719728 4.72,8.97 L4.72,8.97 Z M5.78,3.67 C5.8738833,3.57534367 6.00168123,3.52210084 6.135,3.52210084 C6.26831877,3.52210084 6.3961167,3.57534367 6.49,3.67 L6.49,3.67 C6.58465633,3.7638833 6.63789916,3.89168123 6.63789916,4.025 C6.63789916,4.15831877 6.58465633,4.2861167 6.49,4.38 L6.49,4.38 C6.3961167,4.47465633 6.26831877,4.52789916 6.135,4.52789916 C6.00168123,4.52789916 5.8738833,4.47465633 5.78,4.38 L5.78,4.38 C5.68534367,4.2861167 5.63210084,4.15831877 5.63210084,4.025 C5.63210084,3.89168123 5.68534367,3.7638833 5.78,3.67 L5.78,3.67 L5.78,3.67 Z M6.15,6.16 C6.34606109,5.96393891 6.66393891,5.96393891 6.86,6.16 C7.05606109,6.35606109 7.05606109,6.67393891 6.86,6.87 C6.76832691,6.96514108 6.64211809,7.01923058 6.51,7.02 C6.30371154,7.02544531 6.11526939,6.90359836 6.03558581,6.71324315 C5.95590224,6.52288794 6.00134872,6.30313412 6.15,6.16 L6.15,6.16 Z M7.2,9.32 C7.03338116,9.49281812 6.76745755,9.52283278 6.56650955,9.39150175 C6.36556155,9.26017071 6.28630838,9.00456324 6.37771049,8.78258667 C6.46911261,8.56061011 6.70537101,8.43491917 6.94053168,8.48316229 C7.17569235,8.53140541 7.34337926,8.73996558 7.34,8.98 C7.33821204,9.1070015 7.28815753,9.22856245 7.2,9.32 L7.2,9.32 Z M8.26,4.02 C8.45568225,3.82591582 8.77151877,3.82677912 8.96613709,4.02193013 C9.16075542,4.21708115 9.16075542,4.53291885 8.96613709,4.72806987 C8.77151877,4.92322088 8.45568225,4.92408418 8.26,4.73 C8.16534367,4.6361167 8.11210084,4.50831877 8.11210084,4.375 C8.11210084,4.24168123 8.16534367,4.1138833 8.26,4.02 L8.26,4.02 L8.26,4.02 Z M9.32,7.16 C9.2261167,7.25465633 9.09831877,7.30789916 8.965,7.30789916 C8.83168123,7.30789916 8.7038833,7.25465633 8.61,7.16 L8.61,7.16 C8.41591582,6.96431775 8.41677912,6.64848123 8.61193013,6.45386291 C8.80708115,6.25924458 9.12291885,6.25924458 9.31806987,6.45386291 C9.51322088,6.64848123 9.51408418,6.96431775 9.32,7.16 L9.32,7.16 Z" id="Shape"></path>
                        <path d="M22.39,13.91 L19.22,10.74 L10.74,19.22 L13.91,22.39 C15.0324993,23.5192085 16.5578003,24.1559497 18.15,24.16 L18.15,24.16 C20.5795308,24.1619166 22.77042,22.6985104 23.6990978,20.4534756 C24.6277756,18.2084408 24.1109189,15.6249524 22.39,13.91 L22.39,13.91 Z M14.98,17.16 C15.1466188,16.9871819 15.4125424,16.9571672 15.6134904,17.0884983 C15.8144385,17.2198293 15.8936916,17.4754368 15.8022895,17.6974133 C15.7108874,17.9193899 15.474629,18.0450808 15.2394683,17.9968377 C15.0043076,17.9485946 14.8366207,17.7400344 14.84,17.5 C14.841788,17.3729985 14.8918425,17.2514376 14.98,17.16 L14.98,17.16 Z M16.04,20.34 C15.9461167,20.4346563 15.8183188,20.4878992 15.685,20.4878992 C15.5516812,20.4878992 15.4238833,20.4346563 15.33,20.34 L15.33,20.34 C15.1233476,20.1581323 15.1025769,19.843433 15.2835335,19.6359824 C15.4644901,19.4285318 15.779095,19.4063765 15.9873398,19.5864186 C16.1955847,19.7664606 16.219124,20.080965 16.04,20.29 L16.04,20.34 L16.04,20.34 Z M17.1,15.04 C17.2956823,14.8459158 17.6115188,14.8467791 17.8061371,15.0419301 C18.0007554,15.2370812 18.0007554,15.5529188 17.8061371,15.7480699 C17.6115188,15.9432209 17.2956823,15.9440842 17.1,15.75 C17.0053437,15.6561167 16.9521008,15.5283188 16.9521008,15.395 C16.9521008,15.2616812 17.0053437,15.1338833 17.1,15.04 L17.1,15.04 L17.1,15.04 Z M17.45,17.46 C17.6456823,17.2659158 17.9615188,17.2667791 18.1561371,17.4619301 C18.3507554,17.6570812 18.3507554,17.9729188 18.1561371,18.1680699 C17.9615188,18.3632209 17.6456823,18.3640842 17.45,18.17 C17.3553437,18.0761167 17.3021008,17.9483188 17.3021008,17.815 C17.3021008,17.6816812 17.3553437,17.5538833 17.45,17.46 L17.45,17.46 L17.45,17.46 Z M18.51,20.64 C18.3143177,20.8340842 17.9984812,20.8332209 17.8038629,20.6380699 C17.6092446,20.4429188 17.6092446,20.1270812 17.8038629,19.9319301 C17.9984812,19.7367791 18.3143177,19.7359158 18.51,19.93 L18.51,19.93 C18.6993889,20.1210129 18.6993889,20.4289871 18.51,20.62 L18.51,20.62 L18.51,20.64 Z M19.57,15.34 C19.7175285,15.1431771 19.984523,15.0797 20.2048473,15.1890669 C20.4251715,15.2984339 20.5360401,15.5494789 20.4684654,15.7859901 C20.4008908,16.0225014 20.1741295,16.1770807 19.929283,16.1535417 C19.6844365,16.1300028 19.4912782,15.9350533 19.47,15.69 C19.4581736,15.5649128 19.4938749,15.4399582 19.57,15.34 L19.57,15.34 L19.57,15.34 Z M20.63,18.52 C20.4627428,18.681121 20.2053535,18.7026991 20.0136045,18.571675 C19.8218556,18.440651 19.7484211,18.1930178 19.8377438,17.9786433 C19.9270665,17.7642688 20.1546091,17.6420426 20.3826624,17.6859362 C20.6107157,17.7298298 20.7766326,17.9277854 20.78,18.16 C20.7781215,18.2918846 20.7242071,18.4176848 20.63,18.51 L20.63,18.51 L20.63,18.52 Z" id="Shape"></path>
                        <rect id="Rectangle-path" transform="translate(12.040563, 12.265563) rotate(-45.000000) translate(-12.040563, -12.265563) " x="6.04056275" y="9.26556349" width="12" height="6"></rect>
                    </g>
                </g>
            </g>
        </g>
    </g>
</svg>