<?xml version="1.0" encoding="utf-8"?>
<!-- Generator: Adobe Illustrator 18.1.1, SVG Export Plug-In . SVG Version: 6.00 Build 0)  -->
<!DOCTYPE svg PUBLIC "-//W3C//DTD SVG 1.1//EN" "http://www.w3.org/Graphics/SVG/1.1/DTD/svg11.dtd">
<svg version="1.1" xmlns="http://www.w3.org/2000/svg" xmlns:xlink="http://www.w3.org/1999/xlink" x="0px" y="0px" width="16px"
	 height="16px" viewBox="0 0 16 16" enable-background="new 0 0 16 16" xml:space="preserve">
<g id="bkdg" display="none" opacity="0.1">
	<rect x="0" y="0" display="inline" fill="#FF00FF" width="16" height="16"/>
</g>
<g id="Layer_1">
	<path fill="#ffffff" d="M15,6.7l-7.2,8C7,15.5,5.9,16,4.7,16h0c-1.3,0-2.5-0.5-3.4-1.5c-1.7-1.9-1.8-5.1-0.1-7l6-6.6l0.9,1l-6,6.6
		c-1,1.2-1.3,3.5,0.1,4.9c0.6,0.7,1.5,1.1,2.4,1.1l0,0c0.8,0,1.6-0.3,2.2-0.9l7.2-8C14.8,4.9,15,3.3,14,2.2c-0.9-1-2.5-0.9-3.2-0.1
		L5.9,7.5C5.5,7.8,5.4,8.3,5.4,8.7c0,0.4,0.1,0.8,0.4,1.1c0.3,0.3,0.6,0.5,0.9,0.5h0c0.5,0,0.9-0.3,1.3-0.7l3.5-4l0.9,1l-3.5,4
		c-0.7,0.7-1.5,1.2-2.3,1.2c0,0,0,0,0,0c-0.7,0-1.4-0.3-1.9-0.9C4.3,10.2,4,9.5,4,8.7c0-0.8,0.3-1.6,1-2.3l4.9-5.4
		c1.3-1.4,3.7-1.4,5.1,0.1C16.3,2.7,16.4,5.3,15,6.7z"/>
</g>
</svg>
