<?xml version="1.0" encoding="utf-8"?>
<!DOCTYPE svg PUBLIC "-//W3C//DTD SVG 1.1//EN" "http://www.w3.org/Graphics/SVG/1.1/DTD/svg11.dtd">
<svg version="1.1" id="Filled_Version" xmlns="http://www.w3.org/2000/svg" viewBox="0 0 40 40" xml:space="preserve">
	<style type="text/css">
		.st0{fill:#0067C5;}
		.st1{fill:#FFFFFF;}
	</style>
	<circle class="st0" cx="20" cy="20" r="20"/>
	<g>
		<path class="st1" d="M31,26c-1.3,0-2.4-1.1-2.4-2.5V19c0-3.6-2.1-7-5.4-8.3C22.9,9.1,21.5,8,20,8s-2.9,1.1-3.3,2.7
			c-3.3,1.3-5.4,4.7-5.4,8.3v4.5c0,1.4-1.1,2.5-2.4,2.5c-0.3,0-0.5,0.2-0.5,0.5S8.7,27,9,27h22c0.3,0,0.5-0.2,0.5-0.5S31.3,26,31,26z
			"/>
		<path class="st1" d="M22.9,28h-5.8c-0.3,0-0.5,0.2-0.5,0.5c0,1.9,1.5,3.5,3.4,3.5s3.4-1.6,3.4-3.5C23.4,28.2,23.2,28,22.9,28z"/>
	</g>
</svg>
