<?xml version="1.0" encoding="utf-8"?>
<!DOCTYPE svg PUBLIC "-//W3C//DTD SVG 1.1//EN" "http://www.w3.org/Graphics/SVG/1.1/DTD/svg11.dtd">
<svg xmlns="http://www.w3.org/2000/svg" viewBox="0 0 23.98 23.91">
    <style type="text/css">
        .cls-1 { fill: #0067c5; }
    </style>
    <path class="cls-1" d="M15.05,18A29.13,29.13,0,0,0,16,12H8A29,29,0,0,0,9,18h6.1Z" transform="translate(-0.01 -0.05)"/>
    <path class="cls-1" d="M15.33,6H8.68A18.3,18.3,0,0,0,8,11h8A18.3,18.3,0,0,0,15.33,6Z" transform="translate(-0.01 -0.05)"/>
    <path class="cls-1" d="M9.29,19A19,19,0,0,0,12,23.6,19,19,0,0,0,14.71,19H9.29Z" transform="translate(-0.01 -0.05)"/>
    <path class="cls-1" d="M15,5A14.26,14.26,0,0,0,12,.21,14.25,14.25,0,0,0,9,5h6Z" transform="translate(-0.01 -0.05)"/>
    <path class="cls-1" d="M22.07,5A11.54,11.54,0,0,0,13.17.05,15.15,15.15,0,0,1,16.07,5h6Z" transform="translate(-0.01 -0.05)"/>
    <path class="cls-1" d="M7.64,6H1.24A11.76,11.76,0,0,0,0,11H7A19.34,19.34,0,0,1,7.64,6Z" transform="translate(-0.01 -0.05)"/>
    <path class="cls-1" d="M10.84,0C7,0.4,3.7,2,1.8,5H7.94A15.17,15.17,0,0,1,10.84,0Z" transform="translate(-0.01 -0.05)"/>
    <path class="cls-1" d="M16.1,18h6.57A16.94,16.94,0,0,0,24,12H17A30.48,30.48,0,0,1,16.1,18Z" transform="translate(-0.01 -0.05)"/>
    <path class="cls-1" d="M17,11h7a11.86,11.86,0,0,0-1.34-5H16.36A19.3,19.3,0,0,1,17,11Z" transform="translate(-0.01 -0.05)"/>
    <path class="cls-1" d="M7,12H0a17.49,17.49,0,0,0,1.36,6H7.91A30.48,30.48,0,0,1,7,12Z" transform="translate(-0.01 -0.05)"/>
    <path class="cls-1" d="M2,19c2,3.08,5.28,4.65,9.07,5a19.93,19.93,0,0,1-2.8-5H2Z" transform="translate(-0.01 -0.05)"/>
    <path class="cls-1" d="M13,23.95c3.82-.32,7.14-1.89,9.11-4.95H15.77A19.93,19.93,0,0,1,13,23.95Z" transform="translate(-0.01 -0.05)"/>
</svg>
