<?xml version="1.0" encoding="utf-8"?>
<!-- Generator: Adobe Illustrator 17.1.0, SVG Export Plug-In . SVG Version: 6.00 Build 0)  -->
<!DOCTYPE svg PUBLIC "-//W3C//DTD SVG 1.1//EN" "http://www.w3.org/Graphics/SVG/1.1/DTD/svg11.dtd">
<svg version="1.1" id="Layer_1" xmlns="http://www.w3.org/2000/svg" xmlns:xlink="http://www.w3.org/1999/xlink" x="0px" y="0px"
	 width="60px" height="60px" viewBox="0 0 60 60" enable-background="new 0 0 60 60" xml:space="preserve">
<g>
	<g>
		<circle fill="#B7B1A9" cx="40.2" cy="10.6" r="5.2"/>
		<path fill="#B7B1A9" d="M38.2,37.3c0,0.2,0,0.3,0,0.3c-0.9,4.9,0,14.4,0.7,16.6c0.4,1.2,1.3,3.1,3.2,2.9c2.7-0.3,1.9-3.1,1.8-3.9
			C42.9,46.7,44,38,44,38c0.7-0.5,1.3-1.3,1.8-2.4l0,0l3-2.8h7.6V17.5h-7.7L42,18.4c-0.6,0.1-1.1,0.4-1.5,0.8c0,0.1-0.1,0.2-0.2,0.2
			c0,0,0,0.1-0.1,0.1v0.1C40.1,19.8,40,20,40,20.2l-3,15.3C36.8,36.3,37.4,37.1,38.2,37.3z M44.4,19l3.6-0.4l0.6,12v1l-2.3,2.3
			c0.4-1.4,0.7-3,0.8-4.9c0.3-5.2-1.5-8.6-1.5-8.6S45.3,19.6,44.4,19z"/>
	</g>
	<g>
		<circle fill="#B7B1A9" cx="19.7" cy="10.6" r="5.2"/>
		<path fill="#B7B1A9" d="M22.9,35.5l-3-15.3c0-0.2-0.1-0.4-0.2-0.6v-0.1c0,0,0-0.1-0.1-0.1c-0.1-0.1-0.1-0.2-0.2-0.2
			c-0.4-0.4-0.8-0.7-1.5-0.8l-6.7-0.9H3.6v15.3h7.6l3,2.8l0,0c0.5,1.1,1.1,1.9,1.8,2.4c0,0,1.1,8.7,0.1,15.2
			c-0.1,0.8-0.9,3.6,1.8,3.9c1.8,0.2,2.8-1.8,3.2-2.9c0.7-2.2,1.6-11.7,0.7-16.6c0,0,0-0.1,0-0.3C22.6,37.1,23.1,36.3,22.9,35.5z
			 M14.3,20.4c0,0-1.9,3.4-1.5,8.6c0.1,1.9,0.4,3.5,0.8,4.9l-2.3-2.3v-1l0.6-12l3.6,0.4C14.7,19.6,14.3,20.4,14.3,20.4z"/>
	</g>
</g>
</svg>
