<?xml version="1.0" encoding="utf-8"?>
<!-- Generator: Adobe Illustrator 17.1.0, SVG Export Plug-In . SVG Version: 6.00 Build 0)  -->
<!DOCTYPE svg PUBLIC "-//W3C//DTD SVG 1.1//EN" "http://www.w3.org/Graphics/SVG/1.1/DTD/svg11.dtd">
<svg version="1.1" id="Layer_1" xmlns="http://www.w3.org/2000/svg" xmlns:xlink="http://www.w3.org/1999/xlink" x="0px" y="0px"
	 width="60px" height="60px" viewBox="0 0 60 60" enable-background="new 0 0 60 60" xml:space="preserve">
<g>
	<path fill="#B7B1A9" d="M32.1,32.8c6.5,0,11.8-5.3,11.8-11.8S38.6,9.2,32.1,9.2S20.4,14.5,20.4,21C20.3,27.5,25.6,32.8,32.1,32.8z"
		/>
	<path fill="#B7B1A9" d="M44.5,51.3c0,0,0.2-16.3-14.4-16.3H15.8C6.2,35,0,40.1,0,51.3c0,0.3,0,0,0,0H44.5z"/>
	<path fill="#B7B1A9" d="M59.8,41.8l-6.5-13.1c3.2-2.6,4.3-7.1,2.4-10.9c-1.5-3-4.6-4.9-8-4.9c-1.4,0-2.7,0.3-4,0.9
		c-4.4,2.2-6.2,7.6-4,12c1.5,3,4.6,4.9,8,4.9c0.9,0,1.8-0.2,2.7-0.5l6.5,13.1c0.4,0.8,1.4,1.1,2.1,0.7
		C59.9,43.5,60.2,42.6,59.8,41.8z M42.2,24.5c-1.5-3-0.3-6.7,2.8-8.3c0.9-0.4,1.8-0.6,2.7-0.6c2.4,0,4.5,1.3,5.5,3.4
		c1.5,3,0.3,6.7-2.8,8.3C47.5,28.7,43.7,27.4,42.2,24.5z"/>
	<path fill="#B7B1A9" d="M56,51.3l2.8-11.9c0.5-2.3-0.9-4.5-3.1-5c-2.3-0.5-4.5,0.9-5,3.1l-3.3,13.8H56z"/>
</g>
</svg>
