<?xml version="1.0" encoding="utf-8"?>
<!-- Generator: Adobe Illustrator 17.1.0, SVG Export Plug-In . SVG Version: 6.00 Build 0)  -->
<!DOCTYPE svg PUBLIC "-//W3C//DTD SVG 1.1//EN" "http://www.w3.org/Graphics/SVG/1.1/DTD/svg11.dtd">
<svg version="1.1" id="Layer_1" xmlns="http://www.w3.org/2000/svg" xmlns:xlink="http://www.w3.org/1999/xlink" x="0px" y="0px"
	 width="60px" height="60px" viewBox="0 0 60 60" enable-background="new 0 0 60 60" xml:space="preserve">
<path fill="#B7B1A9" d="M51.1,12.8H8.6c-1,0-1.8,0.7-1.8,1.6V43c0,0.9,0.8,1.6,1.8,1.6h42.6c1,0,1.8-0.7,1.8-1.6V14.4
	C52.9,13.5,52.1,12.8,51.1,12.8z M50.9,42.6H8.8V14.6h42.1V42.6z"/>
<path fill="#B7B1A9" d="M34.5,46.2c0,0.7-0.6,1.3-1.3,1.3h-6.5c-0.7,0-1.3-0.6-1.3-1.3H0.7C0.7,47.7,2,49,3.6,49h52.9
	c1.6,0,2.9-1.3,2.9-2.9H34.5z"/>
<g>
	<polygon fill="#B7B1A9" points="29.8,18.7 21.6,25.9 38.1,25.9 	"/>
	<polygon fill="#B7B1A9" points="21.6,26 21.6,36.6 38.1,36.6 38.1,26 29.8,31.3 	"/>
</g>
</svg>
