<?xml version="1.0" encoding="utf-8"?>
<!-- Generator: Adobe Illustrator 17.1.0, SVG Export Plug-In . SVG Version: 6.00 Build 0)  -->
<!DOCTYPE svg PUBLIC "-//W3C//DTD SVG 1.1//EN" "http://www.w3.org/Graphics/SVG/1.1/DTD/svg11.dtd">
<svg version="1.1" id="Layer_1" xmlns="http://www.w3.org/2000/svg" xmlns:xlink="http://www.w3.org/1999/xlink" x="0px" y="0px"
	 width="60px" height="60px" viewBox="0 0 60 60" enable-background="new 0 0 60 60" xml:space="preserve">
<g>
	<path fill="#0067C5" d="M41.3,35.4c-0.8,0-1.4,0.6-1.4,1.4v2.3h-0.6v-4.4c0-0.8-0.6-1.4-1.4-1.4s-1.4,0.6-1.4,1.4V39h-0.7v-5.9
		c0-0.8-0.6-1.4-1.4-1.4S33,32.3,33,33.1V39h-1V26.6c0-0.8-0.6-1.4-1.4-1.4s-1.4,0.6-1.4,1.4v16.5l0,0c0,0-1.8-2.3-3.2-5.5
		c-0.3-0.7-0.8-1.8-2-1.7c-0.5,0.1-1.2,0.5-1.4,1.3c0,0,0.4,0.8,0.9,1.8c0.7,1.4,1.2,2.9,1.9,5c0.6,1.8,1.7,6.9,5.7,8.9v4.3h11.8v-2
		V39.3v-2.4C42.7,36,42.1,35.4,41.3,35.4z"/>
	<path fill="#0067C5" d="M0,1.2v29.5h60V1.2H0z M35.7,5.3h4.9v4.9h-4.9V5.3z M35.7,13.2h4.9v4.9h-4.9V13.2z M27.6,5.3h4.9v4.9h-4.9
		V5.3z M27.6,13.2h4.9v4.9h-4.9V13.2z M19.5,5.3h4.9v4.9h-4.9V5.3z M19.5,13.2h4.9v4.9h-4.9V13.2z M11.3,5.3h4.9v4.9h-4.9
		C11.3,10.2,11.3,5.3,11.3,5.3z M3.2,5.3h4.9v4.9H3.2V5.3z M3.2,13.2h13v4.9h-13C3.2,18.1,3.2,13.2,3.2,13.2z M8.1,26.7H3.2v-4.9
		h4.9V26.7z M48.7,26.7H11.3v-4.9h37.3v4.9H48.7z M48.7,18.1h-4.9v-4.9h4.9V18.1z M48.7,10.2h-4.9V5.3h4.9V10.2z M56.8,26.7h-4.9
		v-4.9h4.9V26.7z M56.8,18.1h-4.9v-4.9h4.9V18.1z M56.8,10.2h-4.9V5.3h4.9V10.2z"/>
</g>
</svg>
