<?xml version="1.0" encoding="utf-8"?>
<!-- Generator: Adobe Illustrator 17.1.0, SVG Export Plug-In . SVG Version: 6.00 Build 0)  -->
<!DOCTYPE svg PUBLIC "-//W3C//DTD SVG 1.1//EN" "http://www.w3.org/Graphics/SVG/1.1/DTD/svg11.dtd">
<svg version="1.1" id="Layer_1" xmlns="http://www.w3.org/2000/svg" xmlns:xlink="http://www.w3.org/1999/xlink" x="0px" y="0px"
	 width="60px" height="60px" viewBox="0 0 60 60" enable-background="new 0 0 60 60" xml:space="preserve">
<g>
	<circle fill="#B7B1A9" cx="24" cy="18.4" r="5.7"/>
	<path fill="#B7B1A9" d="M27.4,43.5c-0.5-0.3-0.9-0.5-1.4-0.8c1.1,0.1,1.7-0.4,1.8-1.2c0.2-1.1-1.4-2.4-3.4-3.7
		c-2.1-1.3-1.8-4.7-1.5-5.8c0-0.1,0.7-3,0.7-3c0.6-2.2-0.7-4.4-2.9-4.9c-1.8-0.5-3.6,0.3-4.5,1.9l0,0c-4.5,6.1-4.3,16-4.3,16l0,0
		c-0.1,2,0.6,4.1,3.1,4.5c2.1,0.4,5.8-0.1,7.6,0.9c1.4,0.7,3.4,2.4,2.5,7.5c-0.4,2.8-0.7,5,1.5,5.6c2.2,0.7,3.2-2,3.4-5
		C30.3,52.8,31.5,45.9,27.4,43.5z"/>
	<path fill="#B7B1A9" d="M18.6,59.9h2.6l-1-13.1h-2.6h-5.4H9.6l-1,13.1h2.6l0.4-4.7h6.7L18.6,59.9z M11.7,54.1l0.3-4.6h5.8l0.3,4.6
		H11.7z"/>
	<ellipse fill="#B7B1A9" cx="41.6" cy="6.8" rx="9.8" ry="6.2"/>
	<circle fill="#B7B1A9" cx="36.6" cy="15.1" r="1.7"/>
	<circle fill="#B7B1A9" cx="33.2" cy="17.2" r="1.2"/>
</g>
</svg>
