<?xml version="1.0" encoding="utf-8"?>
<!-- Generator: Adobe Illustrator 17.1.0, SVG Export Plug-In . SVG Version: 6.00 Build 0)  -->
<!DOCTYPE svg PUBLIC "-//W3C//DTD SVG 1.1//EN" "http://www.w3.org/Graphics/SVG/1.1/DTD/svg11.dtd">
<svg version="1.1" id="Layer_1" xmlns="http://www.w3.org/2000/svg" xmlns:xlink="http://www.w3.org/1999/xlink" x="0px" y="0px"
	 width="60px" height="60px" viewBox="0 0 60 60" enable-background="new 0 0 60 60" xml:space="preserve">
<g>
	<path fill="#B7B1A9" d="M9.7,12.1c0.8,0,1.5-0.7,1.5-1.5V9.2c0-0.8-0.7-1.5-1.5-1.5S8.2,8.4,8.2,9.2v1.4
		C8.1,11.4,8.8,12.1,9.7,12.1z"/>
	<path fill="#B7B1A9" d="M31.9,12.1c0.8,0,1.5-0.7,1.5-1.5V9.2c0-0.8-0.7-1.5-1.5-1.5s-1.5,0.7-1.5,1.5v1.4
		C30.4,11.4,31.1,12.1,31.9,12.1z"/>
	<path fill="#B7B1A9" d="M38.8,9.7h-4.5v0.8c0,1.3-1.1,2.4-2.4,2.4c-1.3,0-2.4-1.1-2.4-2.4V9.7H12.1v0.8c0,1.3-1.1,2.4-2.4,2.4
		s-2.4-1.1-2.4-2.4V9.7H2.7v5.7h36.1V9.7z"/>
	<path fill="#B7B1A9" d="M56.2,21.2c-0.8-1-2.2-1.1-3.2-0.2l-2.1,1.8l2.9,3.4l2.1-1.8C56.9,23.6,57,22.1,56.2,21.2z"/>
	
		<rect x="40.6" y="21" transform="matrix(0.6504 0.7596 -0.7596 0.6504 39.7447 -21.1787)" fill="#B7B1A9" width="4.5" height="23.2"/>
	<polygon fill="#B7B1A9" points="34.9,42.4 31.9,39 29.6,44 	"/>
	<path fill="#B7B1A9" d="M27.1,46.1L31,38l7.8-6.7V16.4H2.7v38.5h36.1V40.8l-3.1,2.7L27.1,46.1z M16.4,28.1h14.4V29H16.4V28.1z
		 M16.4,35.1h11.7V36H16.4V35.1z M14,40.7l-1.4,3c-0.1,0.1-0.2,0.2-0.4,0.3l0,0c-0.2,0-0.3-0.1-0.4-0.2l-1-1.5
		c-0.1-0.2-0.1-0.5,0.1-0.6c0.2-0.1,0.5-0.1,0.6,0.1l0.5,0.8l1.1-2.3c0.1-0.2,0.4-0.3,0.6-0.2C14,40.2,14.1,40.5,14,40.7z M14,33.8
		l-1.4,3c-0.1,0.1-0.2,0.2-0.4,0.3l0,0c-0.2,0-0.3-0.1-0.4-0.2l-1-1.5c-0.1-0.2-0.1-0.5,0.1-0.6c0.2-0.1,0.5-0.1,0.6,0.1l0.5,0.8
		l1.1-2.3c0.1-0.2,0.4-0.3,0.6-0.2C14,33.3,14.1,33.6,14,33.8z M14,26.8l-1.4,3c-0.1,0.1-0.2,0.2-0.4,0.3l0,0
		c-0.2,0-0.3-0.1-0.4-0.2l-1-1.5c-0.1-0.2-0.1-0.5,0.1-0.6c0.2-0.1,0.5-0.1,0.6,0.1l0.5,0.8l1.1-2.3c0.1-0.2,0.4-0.3,0.6-0.2
		C14,26.3,14.1,26.6,14,26.8z M25.4,42.9h-9V42h9V42.9z"/>
</g>
</svg>
