<?xml version="1.0" encoding="UTF-8" standalone="no"?>
<svg width="24px" height="23px" viewBox="0 0 24 23" version="1.1" xmlns="http://www.w3.org/2000/svg" xmlns:xlink="http://www.w3.org/1999/xlink">
    <!-- Generator: Sketch 39.1 (31720) - http://www.bohemiancoding.com/sketch -->
    <title>alarm clock_hover-sort</title>
    <desc>Created with Sketch.</desc>
    <defs></defs>
    <g id="Page-1" stroke="none" stroke-width="1" fill="none" fill-rule="evenodd">
        <g id="ikoner" transform="translate(-308.000000, -321.000000)" fill="#3E3832">
            <g id="alarm-clock" transform="translate(308.000000, 321.000000)">
                <g id="Filled_Version">
                    <g id="Group">
                        <path d="M4.396,22.146 C4.201,22.341 4.201,22.658 4.396,22.853 C4.494,22.951 4.622,23 4.75,23 C4.878,23 5.006,22.951 5.104,22.854 L5.747,22.21 C5.464,22.025 5.19,21.827 4.926,21.617 L4.396,22.146 L4.396,22.146 Z" id="Shape"></path>
                        <path d="M18.575,21.617 C18.31,21.827 18.037,22.025 17.754,22.211 L18.397,22.854 C18.494,22.951 18.622,23 18.75,23 C18.878,23 19.006,22.951 19.104,22.854 C19.299,22.659 19.299,22.342 19.104,22.147 L18.575,21.617 L18.575,21.617 Z" id="Shape"></path>
                        <path d="M19.25,0 C17.465,0 15.925,1.047 15.198,2.557 C18.057,3.503 20.401,5.59 21.684,8.28 C22.925,7.478 23.75,6.084 23.75,4.5 C23.75,2.019 21.731,0 19.25,0 L19.25,0 Z" id="Shape"></path>
                        <path d="M8.738,2.423 C7.986,0.984 6.482,0 4.75,0 C2.269,0 0.25,2.019 0.25,4.5 C0.25,5.923 0.916,7.19 1.949,8.016 C3.325,5.321 5.778,3.268 8.738,2.423 L8.738,2.423 Z" id="Shape"></path>
                        <path d="M11.75,3 C6.236,3 1.75,7.486 1.75,13 C1.75,18.514 6.236,23 11.75,23 C17.264,23 21.75,18.514 21.75,13 C21.75,7.486 17.264,3 11.75,3 L11.75,3 Z M12.75,13.5 C12.75,13.776 12.526,14 12.25,14 L8.25,14 C7.974,14 7.75,13.776 7.75,13.5 C7.75,13.224 7.974,13 8.25,13 L11.75,13 L11.75,7.5 C11.75,7.224 11.974,7 12.25,7 C12.526,7 12.75,7.224 12.75,7.5 L12.75,13.5 L12.75,13.5 Z" id="Shape"></path>
                    </g>
                </g>
            </g>
        </g>
    </g>
</svg>