<?xml version="1.0" encoding="UTF-8" standalone="no"?>
<svg width="24px" height="24px" viewBox="0 0 24 24" version="1.1" xmlns="http://www.w3.org/2000/svg" xmlns:xlink="http://www.w3.org/1999/xlink">
    <!-- Generator: Sketch 39.1 (31720) - http://www.bohemiancoding.com/sketch -->
    <title>alarm_hover-sort</title>
    <desc>Created with Sketch.</desc>
    <defs></defs>
    <g id="Page-1" stroke="none" stroke-width="1" fill="none" fill-rule="evenodd">
        <g id="ikoner" transform="translate(-308.000000, -98.000000)" fill="#000000">
            <g id="alarm" transform="translate(308.000000, 98.000000)">
                <g id="Filled_Version">
                    <g id="Group">
                        <path d="M23.5,18 C22.122,18 21,16.879 21,15.5 L21,11 C21,7.359 18.76,4.049 15.397,2.675 C15.022,1.108 13.637,0 12,0 C10.388,0 8.976,1.131 8.6,2.675 C5.239,4.049 3,7.358 3,11 L3,15.5 C3,16.879 1.878,18 0.5,18 C0.224,18 0,18.224 0,18.5 C0,18.776 0.224,19 0.5,19 L23.5,19 C23.776,19 24,18.776 24,18.5 C24,18.224 23.776,18 23.5,18 L23.5,18 Z" id="Shape"></path>
                        <path d="M15,20 L9,20 C8.724,20 8.5,20.224 8.5,20.5 C8.5,22.43 10.07,24 12,24 C13.93,24 15.5,22.43 15.5,20.5 C15.5,20.224 15.276,20 15,20 L15,20 Z" id="Shape"></path>
                    </g>
                </g>
            </g>
        </g>
    </g>
</svg>