<?xml version="1.0" encoding="UTF-8" standalone="no"?>
<svg width="24px" height="24px" viewBox="0 0 24 24" version="1.1" xmlns="http://www.w3.org/2000/svg" xmlns:xlink="http://www.w3.org/1999/xlink">
    <!-- Generator: Sketch 39.1 (31720) - http://www.bohemiancoding.com/sketch -->
    <title>check list_hover-sort</title>
    <desc>Created with Sketch.</desc>
    <defs></defs>
    <g id="Page-1" stroke="none" stroke-width="1" fill="none" fill-rule="evenodd">
        <g id="ikoner" transform="translate(-308.000000, -268.000000)" fill="#3E3832">
            <g id="check-list" transform="translate(308.000000, 268.000000)">
                <g id="Filled_Version">
                    <path d="M23.5,0 L0.5,0 C0.224,0 0,0.224 0,0.5 L0,23.5 C0,23.776 0.224,24 0.5,24 L23.5,24 C23.776,24 24,23.776 24,23.5 L24,0.5 C24,0.224 23.776,0 23.5,0 L23.5,0 Z M10.854,13.854 L5.854,18.854 C5.756,18.951 5.628,19 5.5,19 C5.372,19 5.244,18.951 5.146,18.854 L3.146,16.854 C2.951,16.659 2.951,16.342 3.146,16.147 C3.341,15.952 3.658,15.952 3.853,16.147 L5.5,17.793 L10.146,13.147 C10.341,12.952 10.658,12.952 10.853,13.147 C11.048,13.342 11.049,13.658 10.854,13.854 L10.854,13.854 Z M10.854,4.354 L5.854,9.354 C5.756,9.451 5.628,9.5 5.5,9.5 C5.372,9.5 5.244,9.451 5.146,9.354 L3.146,7.354 C2.951,7.159 2.951,6.842 3.146,6.647 C3.341,6.452 3.658,6.452 3.853,6.647 L5.5,8.293 L10.146,3.647 C10.341,3.452 10.658,3.452 10.853,3.647 C11.048,3.842 11.049,4.158 10.854,4.354 L10.854,4.354 Z M20.5,18 L12.5,18 C12.224,18 12,17.776 12,17.5 C12,17.224 12.224,17 12.5,17 L20.5,17 C20.776,17 21,17.224 21,17.5 C21,17.776 20.776,18 20.5,18 L20.5,18 Z M20.5,9 L12.5,9 C12.224,9 12,8.776 12,8.5 C12,8.224 12.224,8 12.5,8 L20.5,8 C20.776,8 21,8.224 21,8.5 C21,8.776 20.776,9 20.5,9 L20.5,9 Z" id="Shape"></path>
                </g>
            </g>
        </g>
    </g>
</svg>