<?xml version="1.0" encoding="utf-8"?>
<!-- Generator: Adobe Illustrator 16.0.0, SVG Export Plug-In . SVG Version: 6.00 Build 0)  -->
<!DOCTYPE svg PUBLIC "-//W3C//DTD SVG 1.1//EN" "http://www.w3.org/Graphics/SVG/1.1/DTD/svg11.dtd">
<svg version="1.1" id="Layer_1" xmlns="http://www.w3.org/2000/svg" xmlns:xlink="http://www.w3.org/1999/xlink" x="0px" y="0px"
	 width="32px" height="32px" viewBox="0 0 32 32" enable-background="new 0 0 32 32" xml:space="preserve">
<path fill="#0067C5" d="M16,0C7.164,0,0,7.164,0,16c0,8.837,7.163,16,16,16c8.837,0,16-7.163,16-16C32,7.164,24.838,0,16,0z
	 M16.014,24L8,24.016L9.016,20L14,17l0.016-2c-0.921-1.118-1.612-2.684-1.612-4.247c0-2.564,1.862-3.955,3.61-3.955
	c1.767,0,3.609,1.391,3.609,3.955c0,1.563-0.689,3.129-1.611,4.247l0.016,2l4.984,3l1.016,4.016L16.014,24z"/>
</svg>
