<?xml version="1.0" encoding="utf-8"?>
<!-- Generator: Adobe Illustrator 16.0.0, SVG Export Plug-In . SVG Version: 6.00 Build 0)  -->
<!DOCTYPE svg PUBLIC "-//W3C//DTD SVG 1.1//EN" "http://www.w3.org/Graphics/SVG/1.1/DTD/svg11.dtd">
<svg version="1.1" id="Layer_1" xmlns="http://www.w3.org/2000/svg" xmlns:xlink="http://www.w3.org/1999/xlink" x="0px" y="0px"
	 width="34px" height="34px" viewBox="0 0 34 34" enable-background="new 0 0 34 34" xml:space="preserve">
<g>
	<path fill="#C8C5C4" d="M17,1C8.163,1,1,8.164,1,17c0,8.836,7.163,16,16,16s16-7.164,16-16C33,8.164,25.837,1,17,1z M23.299,12.023
		h-2.273L21.02,9.751L23.299,12.023z M23.996,24H12.003V9L19.996,9v4.021h4V24z"/>
	<rect x="14" y="15" fill="#C8C5C4" width="8" height="1"/>
	<rect x="14" y="17" fill="#C8C5C4" width="8" height="1"/>
	<rect x="14" y="19" fill="#C8C5C4" width="8" height="1"/>
	<rect x="14" y="21" fill="#C8C5C4" width="8" height="1"/>
</g>
</svg>
