<?xml version="1.0" encoding="utf-8"?>
<!-- Generator: Adobe Illustrator 17.1.0, SVG Export Plug-In . SVG Version: 6.00 Build 0)  -->
<!DOCTYPE svg PUBLIC "-//W3C//DTD SVG 1.1//EN" "http://www.w3.org/Graphics/SVG/1.1/DTD/svg11.dtd">
<svg version="1.1" id="Layer_1" xmlns="http://www.w3.org/2000/svg" xmlns:xlink="http://www.w3.org/1999/xlink" x="0px" y="0px"
	 width="64px" height="64px" viewBox="0 0 64 64" enable-background="new 0 0 64 64" xml:space="preserve">
<g>
	<path fill="#BDBCBB" d="M32,0C14.3,0,0,14.3,0,32c0,17.7,14.3,32,32,32s32-14.3,32-32C64,14.3,49.7,0,32,0z M44.6,22h-4.5l0-4.5
		L44.6,22z M46,46H22V16h16v8h8V46z"/>
	<rect x="30" y="28" fill="#BDBCBB" width="12" height="2"/>
	<rect x="30" y="32" fill="#BDBCBB" width="12" height="2"/>
	<rect x="30" y="36" fill="#BDBCBB" width="12" height="2"/>
	<rect x="30" y="40" fill="#BDBCBB" width="12" height="2"/>
</g>
<path fill="#C8C5C4" d="M28.3,27.7l-1,2.1C27.2,30,27.1,30,27,30c0,0,0,0,0,0c-0.1,0-0.2-0.1-0.3-0.1L26,28.8
	c-0.1-0.1-0.1-0.4,0.1-0.4c0.1-0.1,0.3-0.1,0.4,0.1l0.4,0.6l0.8-1.6c0.1-0.2,0.3-0.2,0.4-0.2C28.3,27.3,28.4,27.5,28.3,27.7z"/>
<path fill="#C8C5C4" d="M28.3,31.8l-1,2.1c-0.1,0.1-0.2,0.2-0.3,0.2c0,0,0,0,0,0c-0.1,0-0.2-0.1-0.3-0.1L26,33
	c-0.1-0.1-0.1-0.4,0.1-0.4c0.1-0.1,0.3-0.1,0.4,0.1l0.4,0.6l0.8-1.6c0.1-0.2,0.3-0.2,0.4-0.2C28.3,31.5,28.4,31.7,28.3,31.8z"/>
<path fill="#C8C5C4" d="M28.3,35.9l-1,2.1c-0.1,0.1-0.2,0.2-0.3,0.2c0,0,0,0,0,0c-0.1,0-0.2-0.1-0.3-0.1L26,37.1
	c-0.1-0.1-0.1-0.4,0.1-0.4c0.1-0.1,0.3-0.1,0.4,0.1l0.4,0.6l0.8-1.6c0.1-0.2,0.3-0.2,0.4-0.2C28.3,35.6,28.4,35.8,28.3,35.9z"/>
<path fill="#C8C5C4" d="M28.3,39.9l-1,2.1c-0.1,0.1-0.2,0.2-0.3,0.2c0,0,0,0,0,0c-0.1,0-0.2-0.1-0.3-0.1L26,41
	c-0.1-0.1-0.1-0.4,0.1-0.4c0.1-0.1,0.3-0.1,0.4,0.1l0.4,0.6l0.8-1.6c0.1-0.2,0.3-0.2,0.4-0.2C28.3,39.5,28.4,39.7,28.3,39.9z"/>
</svg>
