<?xml version="1.0" encoding="utf-8"?>
<!-- Generator: Adobe Illustrator 16.0.0, SVG Export Plug-In . SVG Version: 6.00 Build 0)  -->
<!DOCTYPE svg PUBLIC "-//W3C//DTD SVG 1.1//EN" "http://www.w3.org/Graphics/SVG/1.1/DTD/svg11.dtd">
<svg version="1.1" id="Layer_1" xmlns="http://www.w3.org/2000/svg" xmlns:xlink="http://www.w3.org/1999/xlink" x="0px" y="0px"
	 width="11px" height="12px" viewBox="0 0 11 12" enable-background="new 0 0 11 12" xml:space="preserve">
<path fill="#FFFFFF" d="M10.211,8.986l-0.021-0.08l-0.055-0.031C9.549,8.113,7.406,7.242,7.008,7.084L6.996,7.08L6.98,7.072V5.828
	c0.629-0.782,1.055-1.974,1.055-3.064C8.035,0.946,6.854,0,5.52,0C4.461,0,3.003,0.946,3.003,2.763c0,1.09,0.427,2.282,1.054,3.064
	v1.245c0,0-2.584,0.988-3.207,1.834C0.227,9.752,0,12,0,12H5.52L11,11.99C11,11.99,10.789,9.893,10.211,8.986z"/>
</svg>
