<?xml version="1.0" encoding="utf-8"?>
<!-- Generator: Adobe Illustrator 17.0.0, SVG Export Plug-In . SVG Version: 6.00 Build 0)  -->
<!DOCTYPE svg PUBLIC "-//W3C//DTD SVG 1.1//EN" "http://www.w3.org/Graphics/SVG/1.1/DTD/svg11.dtd">
<svg version="1.1" id="Layer_1" xmlns="http://www.w3.org/2000/svg" xmlns:xlink="http://www.w3.org/1999/xlink" x="0px" y="0px"
	 width="45px" height="45px" viewBox="0 0 45 45" enable-background="new 0 0 45 45" xml:space="preserve">
<path fill="#EDBE1D" d="M22.5,0C10.074,0,0,10.074,0,22.5C0,34.926,10.074,45,22.5,45S45,34.926,45,22.5C45,10.074,34.926,0,22.5,0z
	 M34.351,23.458c-0.004,0.01-1.9,4.539-11.85,11.338c-9.951-6.799-11.847-11.328-11.851-11.338c-0.493-0.983-0.77-2.092-0.77-3.266
	c0-4.033,3.269-7.302,7.302-7.302c2.097,0,3.987,0.884,5.319,2.3c1.331-1.416,3.222-2.3,5.319-2.3c4.033,0,7.302,3.269,7.302,7.302
	C35.121,21.366,34.843,22.475,34.351,23.458z"/>
</svg>
