<?xml version="1.0" encoding="utf-8"?>
<!-- Generator: Adobe Illustrator 16.0.0, SVG Export Plug-In . SVG Version: 6.00 Build 0)  -->
<!DOCTYPE svg PUBLIC "-//W3C//DTD SVG 1.1//EN" "http://www.w3.org/Graphics/SVG/1.1/DTD/svg11.dtd">
<svg version="1.1" id="Layer_1" xmlns="http://www.w3.org/2000/svg" xmlns:xlink="http://www.w3.org/1999/xlink" x="0px" y="0px"
	 width="54px" height="400px" viewBox="0 0 54 400" enable-background="new 0 0 54 400" xml:space="preserve">
<path fill="#C22026" d="M25,9C16.163,9,9,16.164,9,25s7.163,16,16,16s16-7.164,16-16S33.837,9,25,9z M24.507,34
	c-1.108,0-2.008-0.896-2.008-2.008c0-1.109,0.898-2.01,2.008-2.01c1.108,0,2.009,0.897,2.009,2.01
	C26.516,33.104,25.616,34,24.507,34z M27.405,23.781c-1.057,1.244-1.488,2.354-1.437,3.65l0.026,0.567h-2.923l-0.054-0.703
	c-0.135-1.403,0.352-2.896,1.623-4.437c1.028-1.217,1.354-1.11,1.572-2.329c0.201-1.119-0.699-1.943-2.219-1.97
	c-0.946,0-1.896,0.457-2.574,0.97l-0.812-2.381c0.975-0.623,2.544-1.107,4.248-1.107c3.354,0,4.896,1.947,4.896,4.112
	C29.76,22.104,28.567,22.457,27.405,23.781z"/>
<path fill="#18A8E0" d="M25,360c-8.837,0-16,7.164-16,16s7.163,16,16,16s16-7.164,16-16S33.837,360,25,360z M24.507,385
	c-1.108,0-2.008-0.896-2.008-2.008c0-1.109,0.898-2.01,2.008-2.01s2.009,0.898,2.009,2.01S25.617,385,24.507,385z M27.405,374.781
	c-1.057,1.244-1.488,2.354-1.437,3.65L25.995,379h-2.923l-0.054-0.703c-0.135-1.404,0.352-2.896,1.623-4.438
	c1.028-1.217,1.354-1.109,1.572-2.328c0.201-1.119-0.699-1.943-2.219-1.971c-0.946,0-1.896,0.457-2.574,0.971l-0.812-2.382
	c0.975-0.623,2.544-1.106,4.248-1.106c3.354,0,4.896,1.947,4.896,4.111C29.76,373.104,28.567,373.457,27.405,374.781z"/>
</svg>
