<?xml version="1.0" encoding="utf-8"?>
<!-- Generator: Adobe Illustrator 16.0.0, SVG Export Plug-In . SVG Version: 6.00 Build 0)  -->
<!DOCTYPE svg PUBLIC "-//W3C//DTD SVG 1.1//EN" "http://www.w3.org/Graphics/SVG/1.1/DTD/svg11.dtd">
<svg version="1.1" id="Layer_1" xmlns="http://www.w3.org/2000/svg" xmlns:xlink="http://www.w3.org/1999/xlink" x="0px" y="0px"
	 width="32px" height="32px" viewBox="0 0 32 32" enable-background="new 0 0 32 32" xml:space="preserve">
<path fill="#D8D9D9" d="M16-0.001c-8.837,0-16,7.164-16,16S7.163,32,16,32c8.836,0,16-7.165,16-16.001S24.836-0.001,16-0.001z
	 M15.507,25c-1.109,0-2.009-0.898-2.009-2.01c0-1.108,0.9-2.008,2.009-2.008c1.109,0,2.009,0.898,2.009,2.008
	C17.516,24.102,16.617,25,15.507,25z M18.406,14.781c-1.057,1.244-1.489,2.353-1.436,3.65L16.999,19h-2.922l-0.055-0.702
	c-0.134-1.407,0.352-2.895,1.624-4.437c1.029-1.218,1.354-1.111,1.573-2.33c0.201-1.12-0.701-1.942-2.219-1.969
	c-0.947,0-1.897,0.456-2.574,0.969l-0.811-2.38c0.973-0.623,2.543-1.109,4.248-1.109c3.356,0,4.897,1.947,4.897,4.112
	C20.76,13.103,19.568,13.456,18.406,14.781z"/>
</svg>
