<?xml version="1.0" encoding="utf-8"?>
<!-- Generator: Adobe Illustrator 18.1.1, SVG Export Plug-In . SVG Version: 6.00 Build 0)  -->
<!DOCTYPE svg PUBLIC "-//W3C//DTD SVG 1.1//EN" "http://www.w3.org/Graphics/SVG/1.1/DTD/svg11.dtd">
<svg version="1.1" id="bakdg" xmlns="http://www.w3.org/2000/svg" xmlns:xlink="http://www.w3.org/1999/xlink" x="0px" y="0px"
	 viewPort="0 0 697 863" enable-background="new 0 0 697 863" xml:space="preserve">
<circle fill="#B7B1A9" cx="26" cy="66" r="16"/>
<circle fill="#B7B1A9" cx="26" cy="66" r="16"/>
<circle fill="#B7B1A9" cx="26" cy="107" r="16"/>
<circle fill="#B7B1A9" cx="26" cy="148" r="16"/>
<circle fill="#B7B1A9" cx="26" cy="189" r="16"/>
<circle fill="#B7B1A9" cx="26" cy="230" r="16"/>
<circle fill="#B7B1A9" cx="26" cy="25" r="16"/>
<circle fill="#B7B1A9" cx="26" cy="271" r="16"/>
<circle fill="#B7B1A9" cx="26" cy="312" r="16"/>
<circle fill="#B7B1A9" cx="26" cy="353" r="16"/>
<circle fill="#B7B1A9" cx="26" cy="394" r="16"/>
<circle fill="#B7B1A9" cx="26" cy="435" r="16"/>
<circle fill="#B7B1A9" cx="26" cy="476" r="16"/>
<circle fill="#B7B1A9" cx="26" cy="517" r="16"/>
<circle fill="#BA3A26" cx="67" cy="66" r="16"/>
<circle fill="#BA3A26" cx="67" cy="66" r="16"/>
<circle fill="#BA3A26" cx="67" cy="107" r="16"/>
<circle fill="#BA3A26" cx="67" cy="148" r="16"/>
<circle fill="#BA3A26" cx="67" cy="189" r="16"/>
<circle fill="#BA3A26" cx="67" cy="230" r="16"/>
<circle fill="#BA3A26" cx="67" cy="25" r="16"/>
<circle fill="#BA3A26" cx="67" cy="271" r="16"/>
<circle fill="#BA3A26" cx="67" cy="312" r="16"/>
<circle fill="#BA3A26" cx="67" cy="353" r="16"/>
<circle fill="#BA3A26" cx="67" cy="394" r="16"/>
<circle fill="#BA3A26" cx="67" cy="435" r="16"/>
<circle fill="#BA3A26" cx="67" cy="476" r="16"/>
<circle fill="#BA3A26" cx="67" cy="517" r="16"/>
<circle fill="#0067C5" cx="108" cy="66" r="16"/>
<circle fill="#0067C5" cx="108" cy="66" r="16"/>
<circle fill="#0067C5" cx="108" cy="107" r="16"/>
<circle fill="#0067C5" cx="108" cy="148" r="16"/>
<circle fill="#0067C5" cx="108" cy="189" r="16"/>
<circle fill="#0067C5" cx="108" cy="230" r="16"/>
<circle fill="#0067C5" cx="108" cy="25" r="16"/>
<circle fill="#0067C5" cx="108" cy="271" r="16"/>
<circle fill="#0067C5" cx="108" cy="312" r="16"/>
<circle fill="#0067C5" cx="108" cy="353" r="16"/>
<circle fill="#0067C5" cx="108" cy="394" r="16"/>
<circle fill="#0067C5" cx="108" cy="435" r="16"/>
<circle fill="#0067C5" cx="108" cy="476" r="16"/>
<circle fill="#0067C5" cx="108" cy="517" r="16"/>
<circle fill="#06893A" cx="149" cy="66" r="16"/>
<circle fill="#06893A" cx="149" cy="66" r="16"/>
<circle fill="#06893A" cx="149" cy="107" r="16"/>
<circle fill="#06893A" cx="149" cy="148" r="16"/>
<circle fill="#06893A" cx="149" cy="189" r="16"/>
<circle fill="#06893A" cx="149" cy="230" r="16"/>
<circle fill="#06893A" cx="149" cy="25" r="16"/>
<circle fill="#06893A" cx="149" cy="271" r="16"/>
<circle fill="#06893A" cx="149" cy="312" r="16"/>
<circle fill="#06893A" cx="149" cy="353" r="16"/>
<circle fill="#06893A" cx="149" cy="394" r="16"/>
<circle fill="#06893A" cx="149" cy="435" r="16"/>
<circle fill="#06893A" cx="149" cy="476" r="16"/>
<circle fill="#06893A" cx="149" cy="517" r="16"/>
<circle fill="#FF9100" cx="190" cy="66" r="16"/>
<circle fill="#FF9100" cx="190" cy="66" r="16"/>
<circle fill="#FF9100" cx="190" cy="107" r="16"/>
<circle fill="#FF9100" cx="190" cy="148" r="16"/>
<circle fill="#FF9100" cx="190" cy="189" r="16"/>
<circle fill="#FF9100" cx="190" cy="230" r="16"/>
<circle fill="#FF9100" cx="190" cy="25" r="16"/>
<circle fill="#FF9100" cx="190" cy="271" r="16"/>
<circle fill="#FF9100" cx="190" cy="312" r="16"/>
<circle fill="#FF9100" cx="190" cy="353" r="16"/>
<circle fill="#FF9100" cx="190" cy="394" r="16"/>
<circle fill="#FF9100" cx="190" cy="435" r="16"/>
<circle fill="#FF9100" cx="190" cy="476" r="16"/>
<circle fill="#FF9100" cx="190" cy="517" r="16"/>
<circle fill="#7F756C" cx="231" cy="66" r="16"/>
<circle fill="#7F756C" cx="231" cy="66" r="16"/>
<circle fill="#7F756C" cx="231" cy="107" r="16"/>
<circle fill="#7F756C" cx="231" cy="148" r="16"/>
<circle fill="#7F756C" cx="231" cy="189" r="16"/>
<circle fill="#7F756C" cx="231" cy="230" r="16"/>
<circle fill="#7F756C" cx="231" cy="25" r="16"/>
<circle fill="#7F756C" cx="231" cy="271" r="16"/>
<circle fill="#7F756C" cx="231" cy="312" r="16"/>
<circle fill="#7F756C" cx="231" cy="353" r="16"/>
<circle fill="#7F756C" cx="231" cy="394" r="16"/>
<circle fill="#7F756C" cx="231" cy="435" r="16"/>
<circle fill="#7F756C" cx="231" cy="476" r="16"/>
<circle fill="#7F756C" cx="231" cy="517" r="16"/>
<circle fill="#3E3832" cx="272" cy="66" r="16"/>
<circle fill="#3E3832" cx="272" cy="66" r="16"/>
<circle fill="#3E3832" cx="272" cy="107" r="16"/>
<circle fill="#3E3832" cx="272" cy="148" r="16"/>
<circle fill="#3E3832" cx="272" cy="189" r="16"/>
<circle fill="#3E3832" cx="272" cy="230" r="16"/>
<circle fill="#3E3832" cx="272" cy="25" r="16"/>
<circle fill="#3E3832" cx="272" cy="271" r="16"/>
<circle fill="#3E3832" cx="272" cy="312" r="16"/>
<circle fill="#3E3832" cx="272" cy="353" r="16"/>
<circle fill="#3E3832" cx="272" cy="394" r="16"/>
<circle fill="#3E3832" cx="272" cy="435" r="16"/>
<circle fill="#3E3832" cx="272" cy="476" r="16"/>
<circle fill="#3E3832" cx="272" cy="517" r="16"/>
<circle fill="#66CBEC" cx="312" cy="66" r="16"/>
<circle fill="#66CBEC" cx="312" cy="66" r="16"/>
<circle fill="#66CBEC" cx="312" cy="107" r="16"/>
<circle fill="#66CBEC" cx="312" cy="148" r="16"/>
<circle fill="#66CBEC" cx="312" cy="189" r="16"/>
<circle fill="#66CBEC" cx="312" cy="230" r="16"/>
<circle fill="#66CBEC" cx="312" cy="25" r="16"/>
<circle fill="#66CBEC" cx="312" cy="271" r="16"/>
<circle fill="#66CBEC" cx="312" cy="312" r="16"/>
<circle fill="#66CBEC" cx="312" cy="353" r="16"/>
<circle fill="#66CBEC" cx="312" cy="394" r="16"/>
<circle fill="#66CBEC" cx="312" cy="435" r="16"/>
<circle fill="#66CBEC" cx="312" cy="476" r="16"/>
<circle fill="#66CBEC" cx="312" cy="517" r="16"/>
<path fill="#1D1D1B" d="M33,351.7l-7.2,8c-0.8,0.8-1.9,1.3-3.1,1.3h0c-1.3,0-2.5-0.5-3.4-1.5c-1.7-1.9-1.8-5.1-0.1-7l6-6.6l0.9,1
	l-6,6.6c-1,1.2-1.3,3.5,0.1,4.9c0.6,0.7,1.5,1.1,2.4,1.1l0,0c0.8,0,1.6-0.3,2.2-0.9l7.2-8c0.7-0.8,0.9-2.4-0.1-3.5
	c-0.9-1-2.5-0.9-3.2-0.1l-4.9,5.4c-0.4,0.4-0.6,0.8-0.6,1.3c0,0.4,0.1,0.8,0.4,1.1c0.3,0.3,0.6,0.5,0.9,0.5h0c0.5,0,0.9-0.3,1.3-0.7
	l3.5-4l0.9,1l-3.5,4c-0.7,0.7-1.5,1.2-2.3,1.2c0,0,0,0,0,0c-0.7,0-1.4-0.3-1.9-0.9c-0.5-0.6-0.8-1.3-0.8-2.1c0-0.8,0.3-1.6,1-2.3
	l4.9-5.4c1.3-1.4,3.7-1.4,5.1,0.1C34.3,347.7,34.4,350.3,33,351.7z"/>
<path d="M22,275h8v-1h-8V275z M30,271v-1h-8v1H30z M30,273v-1h-8v1H30z M32,267v12H20v-16h8v4L32,267z"/>
<polygon points="32,266 29,266 29,263 "/>
<g>
	<polygon fill="#1D1D1B" points="32.4,74 34,72.4 27.6,66 34,59.6 32.4,58 26,64.4 19.6,58 18,59.6 24.4,66 18,72.4 19.6,74
		26,67.6 	"/>
</g>
<g>
	<polygon fill="#1D1D1B" points="31.1,115 34,112.1 28.9,107 34,101.9 31.1,99 26,104.1 20.9,99 18,101.9 23.1,107 18,112.1
		20.9,115 26,109.9 	"/>
</g>
<g>
	<polygon fill="#1D1D1B" points="24.2,33 27.8,33 27.8,26.8 34,26.8 34,23.2 27.8,23.2 27.8,17 24.2,17 24.2,23.2 18,23.2 18,26.8
		24.2,26.8 	"/>
</g>
<g>
	<rect x="18" y="843.2" fill="#1D1D1B" width="16" height="3.6"/>
</g>
<g>
	<path d="M31,305L31,305v-1h-2v1h-6v-1h-2v1h-3v15h0.8h1h12.4h1.7H34v-15H31z M29,306h2v1h-2V306z M21,306h2v1h-2V306z M20,318v-9
		h12v0.3l0,0v8.7H20z"/>
	<polygon points="22,311 22,313 23,313 23,316 25,316 25,311 	"/>
	<polygon points="26,311 26,313 27,313 27,316 29,316 29,311 	"/>
</g>
<polygon id="polygon2995_4_" points="18,595 18,596 19,596 19,597 20,597 20,598 21,598 21,599 22,599 22,600 23,600 23,601 24,601
	24,602 25,602 25,603 27,603 27,602 28,602 28,601 29,601 29,600 30,600 30,599 31,599 31,598 32,598 32,597 33,597 33,596 34,596
	34,595 "/>
<polygon id="polygon2995_1_" points="34,644 34,643 33,643 33,642 32,642 32,641 31,641 31,640 30,640 30,639 29,639 29,638 28,638
	28,637 27,637 27,636 25,636 25,637 24,637 24,638 23,638 23,639 22,639 22,640 21,640 21,641 20,641 20,642 19,642 19,643 18,643
	18,644 "/>
<g>
	<rect x="21" y="428" width="10" height="4"/>
	<rect x="21" y="438" width="10" height="5"/>
	<polygon points="36,433 36,433 32.3,433 20,433 16,433 16,436.8 16,441 20,441 20,437 32,437 32,441 36,441 36,436.8 36,436.8 	"/>
</g>
<rect x="24" y="194" width="4" height="3"/>
<rect x="24" y="181" width="4" height="11"/>
<g id="Layer_2">
</g>
<g id="Layer_2_1_">
</g>
<polygon points="30,685.1 25.9,681 30,676.9 30,673 22,681 30,689 "/>
<polygon points="22,717.9 26.1,722 22,726.1 22,730 30,722 22,714 "/>
<polygon points="30.1,759 26,763.1 21.9,759 18,759 26,767 34,759 "/>
<polygon points="21.9,808 26,803.9 30.1,808 34,808 26,800 18,808 "/>
<polygon points="31,140 24.1,152.2 21,147 18,147 23,156 26,156 34,140 "/>
<path d="M28.3,230.5c1.3-2.2,1-5-0.8-6.8c-1.1-1.1-2.4-1.6-3.9-1.6s-2.9,0.6-3.9,1.6c-1.1,1.1-1.6,2.4-1.6,3.9
	c0,1.5,0.6,2.9,1.6,3.9c1.1,1.1,2.4,1.6,3.9,1.6c1,0,2-0.3,2.9-0.8l5.7,5.7l1.9-1.9L28.3,230.5z M26.4,230.4
	c-0.8,0.8-1.8,1.2-2.8,1.2c-1.1,0-2.1-0.4-2.8-1.2c-0.8-0.8-1.2-1.8-1.2-2.8c0-1.1,0.4-2.1,1.2-2.8c0.8-0.8,1.8-1.2,2.8-1.2
	c1.1,0,2.1,0.4,2.8,1.2c0.8,0.8,1.2,1.8,1.2,2.8C27.6,228.6,27.2,229.6,26.4,230.4z"/>
<polygon points="32,389 29,389 29,386 "/>
<g id="XMLID_1_">
	<path d="M27,394.2c0,0.5-0.2,0.9-0.5,1.2s-0.8,0.5-1.2,0.5c-0.5,0-0.9-0.2-1.2-0.5c-0.3-0.3-0.5-0.8-0.5-1.2c0-0.5,0.2-0.9,0.5-1.2
		c0.3-0.3,0.8-0.5,1.2-0.5c0.5,0,0.9,0.2,1.2,0.5C26.8,393.3,27,393.8,27,394.2z"/>
	<path d="M30,400l1-1l-3.2-3.2c0.8-1.2,0.6-2.8-0.5-3.8c-0.6-0.6-1.4-0.9-2.2-0.9c-0.8,0-1.6,0.3-2.2,0.9c-0.6,0.6-0.9,1.4-0.9,2.2
		c0,0.8,0.3,1.6,0.9,2.2s1.4,0.9,2.2,0.9c0.6,0,1.1-0.2,1.6-0.5L30,400z M32,390v12H20v-16h8v4L32,390z"/>
</g>
<circle cx="26" cy="558" r="3"/>
<g>
	<path d="M26.9,480h-3c0,0-0.3-3.2,2.2-4.9c0.8-0.6,1.8-1.1,1.8-2.1c0-1.8-1-2-2-2c-0.6,0-2,1-2,2h-3c0-2,1-5,5-5
		c1.7,0,5.1,0.4,5.1,3.9c-0.1,2.6-1.3,3.5-2.4,4.3C26.8,477.5,26.9,479,26.9,480z"/>
	<rect x="24" y="481" width="3" height="3"/>
</g>
<g>
	<polygon points="29,523 29,525 23,525 23,523 25,523 25,516 23,516 23,514 28,514 28,523 	"/>
</g>
<circle cx="26" cy="511" r="2"/>
<path fill="#FBF5F4" d="M74,351.7l-7.2,8c-0.8,0.8-1.9,1.3-3.1,1.3h0c-1.3,0-2.5-0.5-3.4-1.5c-1.7-1.9-1.8-5.1-0.1-7l6-6.6l0.9,1
	l-6,6.6c-1,1.2-1.3,3.5,0.1,4.9c0.6,0.7,1.5,1.1,2.4,1.1l0,0c0.8,0,1.6-0.3,2.2-0.9l7.2-8c0.7-0.8,0.9-2.4-0.1-3.5
	c-0.9-1-2.5-0.9-3.2-0.1l-4.9,5.4c-0.4,0.4-0.6,0.8-0.6,1.3c0,0.4,0.1,0.8,0.4,1.1c0.3,0.3,0.6,0.5,0.9,0.5h0c0.5,0,0.9-0.3,1.3-0.7
	l3.5-4l0.9,1l-3.5,4c-0.7,0.7-1.5,1.2-2.3,1.2c0,0,0,0,0,0c-0.7,0-1.4-0.3-1.9-0.9c-0.5-0.6-0.8-1.3-0.8-2.1c0-0.8,0.3-1.6,1-2.3
	l4.9-5.4c1.3-1.4,3.7-1.4,5.1,0.1C75.3,347.7,75.4,350.3,74,351.7z"/>
<path fill="#FBF5F4" d="M63,275h8v-1h-8V275z M71,271v-1h-8v1H71z M71,273v-1h-8v1H71z M73,267v12H61v-16h8v4L73,267z"/>
<polygon fill="#FBF5F4" points="73,266 70,266 70,263 "/>
<g>
	<polygon fill="#FBF5F4" points="73.4,74 75,72.4 68.6,66 75,59.6 73.4,58 67,64.4 60.6,58 59,59.6 65.4,66 59,72.4 60.6,74
		67,67.6 	"/>
</g>
<g>
	<polygon fill="#FBF5F4" points="72.1,115 75,112.1 69.9,107 75,101.9 72.1,99 67,104.1 61.9,99 59,101.9 64.1,107 59,112.1
		61.9,115 67,109.9 	"/>
</g>
<g>
	<polygon fill="#FBF5F4" points="65.2,33 68.8,33 68.8,26.8 75,26.8 75,23.2 68.8,23.2 68.8,17 65.2,17 65.2,23.2 59,23.2 59,26.8
		65.2,26.8 	"/>
</g>
<g>
	<rect x="59" y="843.2" fill="#FBF5F4" width="16" height="3.6"/>
</g>
<g>
	<path fill="#FBF5F4" d="M72,305L72,305v-1h-2v1h-6v-1h-2v1h-3v15h0.8h1h12.4h1.7H75v-15H72z M70,306h2v1h-2V306z M62,306h2v1h-2
		V306z M61,318v-9h12v0.3l0,0v8.7H61z"/>
	<polygon fill="#FBF5F4" points="63,311 63,313 64,313 64,316 66,316 66,311 	"/>
	<polygon fill="#FBF5F4" points="67,311 67,313 68,313 68,316 70,316 70,311 	"/>
</g>
<polygon id="polygon2995_3_" fill="#FBF5F4" points="59,595 59,596 60,596 60,597 61,597 61,598 62,598 62,599 63,599 63,600
	64,600 64,601 65,601 65,602 66,602 66,603 68,603 68,602 69,602 69,601 70,601 70,600 71,600 71,599 72,599 72,598 73,598 73,597
	74,597 74,596 75,596 75,595 "/>
<polygon id="polygon2995_2_" fill="#FBF5F4" points="75,644 75,643 74,643 74,642 73,642 73,641 72,641 72,640 71,640 71,639
	70,639 70,638 69,638 69,637 68,637 68,636 66,636 66,637 65,637 65,638 64,638 64,639 63,639 63,640 62,640 62,641 61,641 61,642
	60,642 60,643 59,643 59,644 "/>
<g>
	<rect x="62" y="428" fill="#FBF5F4" width="10" height="4"/>
	<rect x="62" y="438" fill="#FBF5F4" width="10" height="5"/>
	<polygon fill="#FBF5F4" points="77,433 77,433 73.3,433 61,433 57,433 57,436.8 57,441 61,441 61,437 73,437 73,441 77,441
		77,436.8 77,436.8 	"/>
</g>
<rect x="65" y="194" fill="#FBF5F4" width="4" height="3"/>
<rect x="65" y="181" fill="#FBF5F4" width="4" height="11"/>
<polygon fill="#FBF5F4" points="71,685.1 66.9,681 71,676.9 71,673 63,681 71,689 "/>
<polygon fill="#FBF5F4" points="63,717.9 67.1,722 63,726.1 63,730 71,722 63,714 "/>
<polygon fill="#FBF5F4" points="71.1,759 67,763.1 62.9,759 59,759 67,767 75,759 "/>
<polygon fill="#FBF5F4" points="62.9,808 67,803.9 71.1,808 75,808 67,800 59,808 "/>
<polygon fill="#FBF5F4" points="72,140 65.1,152.2 62,147 59,147 64,156 67,156 75,140 "/>
<path fill="#FBF5F4" d="M69.3,230.5c1.3-2.2,1-5-0.8-6.8c-1.1-1.1-2.4-1.6-3.9-1.6c-1.5,0-2.9,0.6-3.9,1.6c-1.1,1.1-1.6,2.4-1.6,3.9
	c0,1.5,0.6,2.9,1.6,3.9c1.1,1.1,2.4,1.6,3.9,1.6c1,0,2-0.3,2.9-0.8l5.7,5.7l1.9-1.9L69.3,230.5z M67.4,230.4
	c-0.8,0.8-1.8,1.2-2.8,1.2c-1.1,0-2.1-0.4-2.8-1.2c-0.8-0.8-1.2-1.8-1.2-2.8c0-1.1,0.4-2.1,1.2-2.8c0.8-0.8,1.8-1.2,2.8-1.2
	c1.1,0,2.1,0.4,2.8,1.2c0.8,0.8,1.2,1.8,1.2,2.8C68.6,228.6,68.2,229.6,67.4,230.4z"/>
<polygon fill="#FBF5F4" points="73,389 70,389 70,386 "/>
<g id="XMLID_2_">
	<path fill="#FBF5F4" d="M68,394.2c0,0.5-0.2,0.9-0.5,1.2c-0.3,0.3-0.8,0.5-1.2,0.5c-0.5,0-0.9-0.2-1.2-0.5
		c-0.3-0.3-0.5-0.8-0.5-1.2c0-0.5,0.2-0.9,0.5-1.2c0.3-0.3,0.8-0.5,1.2-0.5c0.5,0,0.9,0.2,1.2,0.5C67.8,393.3,68,393.8,68,394.2z"/>
	<path fill="#FBF5F4" d="M71,400l1-1l-3.2-3.2c0.8-1.2,0.6-2.8-0.5-3.8c-0.6-0.6-1.4-0.9-2.2-0.9c-0.8,0-1.6,0.3-2.2,0.9
		c-0.6,0.6-0.9,1.4-0.9,2.2c0,0.8,0.3,1.6,0.9,2.2c0.6,0.6,1.4,0.9,2.2,0.9c0.6,0,1.1-0.2,1.6-0.5L71,400z M73,390v12H61v-16h8v4
		L73,390z"/>
</g>
<circle fill="#FBF5F4" cx="67" cy="558" r="3"/>
<g>
	<path fill="#FBF5F4" d="M67.9,480h-3c0,0-0.3-3.2,2.2-4.9c0.8-0.6,1.8-1.1,1.8-2.1c0-1.8-1-2-2-2c-0.6,0-2,1-2,2h-3c0-2,1-5,5-5
		c1.7,0,5.1,0.4,5.1,3.9c-0.1,2.6-1.3,3.5-2.4,4.3C67.8,477.5,67.9,479,67.9,480z"/>
	<rect x="65" y="481" fill="#FBF5F4" width="3" height="3"/>
</g>
<g>
	<polygon fill="#FBF5F4" points="70,523 70,525 64,525 64,523 66,523 66,516 64,516 64,514 69,514 69,523 	"/>
</g>
<circle fill="#FBF5F4" cx="67" cy="511" r="2"/>
<path fill="#FFFFFF" d="M115,351.7l-7.2,8c-0.8,0.8-1.9,1.3-3.1,1.3h0c-1.3,0-2.5-0.5-3.4-1.5c-1.7-1.9-1.8-5.1-0.1-7l6-6.6l0.9,1
	l-6,6.6c-1,1.2-1.3,3.5,0.1,4.9c0.6,0.7,1.5,1.1,2.4,1.1l0,0c0.8,0,1.6-0.3,2.2-0.9l7.2-8c0.7-0.8,0.9-2.4-0.1-3.5
	c-0.9-1-2.5-0.9-3.2-0.1l-4.9,5.4c-0.4,0.4-0.6,0.8-0.6,1.3c0,0.4,0.1,0.8,0.4,1.1c0.3,0.3,0.6,0.5,0.9,0.5h0c0.5,0,0.9-0.3,1.3-0.7
	l3.5-4l0.9,1l-3.5,4c-0.7,0.7-1.5,1.2-2.3,1.2c0,0,0,0,0,0c-0.7,0-1.4-0.3-1.9-0.9c-0.5-0.6-0.8-1.3-0.8-2.1c0-0.8,0.3-1.6,1-2.3
	l4.9-5.4c1.3-1.4,3.7-1.4,5.1,0.1C116.3,347.7,116.4,350.3,115,351.7z"/>
<path fill="#FFFFFF" d="M104,275h8v-1h-8V275z M112,271v-1h-8v1H112z M112,273v-1h-8v1H112z M114,267v12h-12v-16h8v4L114,267z"/>
<polygon fill="#FFFFFF" points="114,266 111,266 111,263 "/>
<g>
	<polygon fill="#FFFFFF" points="114.4,74 116,72.4 109.6,66 116,59.6 114.4,58 108,64.4 101.6,58 100,59.6 106.4,66 100,72.4
		101.6,74 108,67.6 	"/>
</g>
<g>
	<polygon fill="#FFFFFF" points="113.1,115 116,112.1 110.9,107 116,101.9 113.1,99 108,104.1 102.9,99 100,101.9 105.1,107
		100,112.1 102.9,115 108,109.9 	"/>
</g>
<g>
	<polygon fill="#FFFFFF" points="106.2,33 109.8,33 109.8,26.8 116,26.8 116,23.2 109.8,23.2 109.8,17 106.2,17 106.2,23.2
		100,23.2 100,26.8 106.2,26.8 	"/>
</g>
<g>
	<rect x="100" y="843.2" fill="#FFFFFF" width="16" height="3.6"/>
</g>
<g>
	<path fill="#FFFFFF" d="M113,305L113,305v-1h-2v1h-6v-1h-2v1h-3v15h0.8h1h12.4h1.7h0.1v-15H113z M111,306h2v1h-2V306z M103,306h2v1
		h-2V306z M102,318v-9h12v0.3l0,0v8.7H102z"/>
	<polygon fill="#FFFFFF" points="104,311 104,313 105,313 105,316 107,316 107,311 	"/>
	<polygon fill="#FFFFFF" points="108,311 108,313 109,313 109,316 111,316 111,311 	"/>
</g>
<polygon id="polygon2995_6_" fill="#FFFFFF" points="100,595 100,596 101,596 101,597 102,597 102,598 103,598 103,599 104,599
	104,600 105,600 105,601 106,601 106,602 107,602 107,603 109,603 109,602 110,602 110,601 111,601 111,600 112,600 112,599
	113,599 113,598 114,598 114,597 115,597 115,596 116,596 116,595 "/>
<polygon id="polygon2995_5_" fill="#FFFFFF" points="116,644 116,643 115,643 115,642 114,642 114,641 113,641 113,640 112,640
	112,639 111,639 111,638 110,638 110,637 109,637 109,636 107,636 107,637 106,637 106,638 105,638 105,639 104,639 104,640
	103,640 103,641 102,641 102,642 101,642 101,643 100,643 100,644 "/>
<g>
	<rect x="103" y="428" fill="#FFFFFF" width="10" height="4"/>
	<rect x="103" y="438" fill="#FFFFFF" width="10" height="5"/>
	<polygon fill="#FFFFFF" points="118,433 118,433 114.3,433 102,433 98,433 98,436.8 98,441 102,441 102,437 114,437 114,441
		118,441 118,436.8 118,436.8 	"/>
</g>
<rect x="106" y="194" fill="#FFFFFF" width="4" height="3"/>
<rect x="106" y="181" fill="#FFFFFF" width="4" height="11"/>
<polygon fill="#FFFFFF" points="112,685.1 107.9,681 112,676.9 112,673 104,681 112,689 "/>
<polygon fill="#FFFFFF" points="104,717.9 108.1,722 104,726.1 104,730 112,722 104,714 "/>
<polygon fill="#FFFFFF" points="112.1,759 108,763.1 103.9,759 100,759 108,767 116,759 "/>
<polygon fill="#FFFFFF" points="103.9,808 108,803.9 112.1,808 116,808 108,800 100,808 "/>
<polygon fill="#FFFFFF" points="113,140 106.1,152.2 103,147 100,147 105,156 108,156 116,140 "/>
<path fill="#FFFFFF" d="M110.3,230.5c1.3-2.2,1-5-0.8-6.8c-1.1-1.1-2.4-1.6-3.9-1.6c-1.5,0-2.9,0.6-3.9,1.6
	c-1.1,1.1-1.6,2.4-1.6,3.9c0,1.5,0.6,2.9,1.6,3.9c1.1,1.1,2.4,1.6,3.9,1.6c1,0,2-0.3,2.9-0.8l5.7,5.7l1.9-1.9L110.3,230.5z
	 M108.4,230.4c-0.8,0.8-1.8,1.2-2.8,1.2c-1.1,0-2.1-0.4-2.8-1.2c-0.8-0.8-1.2-1.8-1.2-2.8c0-1.1,0.4-2.1,1.2-2.8
	c0.8-0.8,1.8-1.2,2.8-1.2c1.1,0,2.1,0.4,2.8,1.2c0.8,0.8,1.2,1.8,1.2,2.8C109.6,228.6,109.2,229.6,108.4,230.4z"/>
<polygon fill="#FFFFFF" points="114,389 111,389 111,386 "/>
<g id="XMLID_3_">
	<path fill="#FFFFFF" d="M109,394.2c0,0.5-0.2,0.9-0.5,1.2c-0.3,0.3-0.8,0.5-1.2,0.5c-0.5,0-0.9-0.2-1.2-0.5
		c-0.3-0.3-0.5-0.8-0.5-1.2c0-0.5,0.2-0.9,0.5-1.2c0.3-0.3,0.8-0.5,1.2-0.5c0.5,0,0.9,0.2,1.2,0.5C108.8,393.3,109,393.8,109,394.2z
		"/>
	<path fill="#FFFFFF" d="M112,400l1-1l-3.2-3.2c0.8-1.2,0.6-2.8-0.5-3.8c-0.6-0.6-1.4-0.9-2.2-0.9c-0.8,0-1.6,0.3-2.2,0.9
		c-0.6,0.6-0.9,1.4-0.9,2.2c0,0.8,0.3,1.6,0.9,2.2c0.6,0.6,1.4,0.9,2.2,0.9c0.6,0,1.1-0.2,1.6-0.5L112,400z M114,390v12h-12v-16h8v4
		L114,390z"/>
</g>
<circle fill="#FFFFFF" cx="108" cy="558" r="3"/>
<g>
	<path fill="#FFFFFF" d="M108.9,480h-3c0,0-0.3-3.2,2.2-4.9c0.8-0.6,1.8-1.1,1.8-2.1c0-1.8-1-2-2-2c-0.6,0-2,1-2,2h-3c0-2,1-5,5-5
		c1.7,0,5.1,0.4,5.1,3.9c-0.1,2.6-1.3,3.5-2.4,4.3C108.8,477.5,108.9,479,108.9,480z"/>
	<rect x="106" y="481" fill="#FFFFFF" width="3" height="3"/>
</g>
<g>
	<polygon fill="#FFFFFF" points="111,523 111,525 105,525 105,523 107,523 107,516 105,516 105,514 110,514 110,523 	"/>
</g>
<circle fill="#FFFFFF" cx="108" cy="511" r="2"/>
<path fill="#FFFFFF" d="M156,351.7l-7.2,8c-0.8,0.8-1.9,1.3-3.1,1.3h0c-1.3,0-2.5-0.5-3.4-1.5c-1.7-1.9-1.8-5.1-0.1-7l6-6.6l0.9,1
	l-6,6.6c-1,1.2-1.3,3.5,0.1,4.9c0.6,0.7,1.5,1.1,2.4,1.1l0,0c0.8,0,1.6-0.3,2.2-0.9l7.2-8c0.7-0.8,0.9-2.4-0.1-3.5
	c-0.9-1-2.5-0.9-3.2-0.1l-4.9,5.4c-0.4,0.4-0.6,0.8-0.6,1.3c0,0.4,0.1,0.8,0.4,1.1c0.3,0.3,0.6,0.5,0.9,0.5h0c0.5,0,0.9-0.3,1.3-0.7
	l3.5-4l0.9,1l-3.5,4c-0.7,0.7-1.5,1.2-2.3,1.2c0,0,0,0,0,0c-0.7,0-1.4-0.3-1.9-0.9c-0.5-0.6-0.8-1.3-0.8-2.1c0-0.8,0.3-1.6,1-2.3
	l4.9-5.4c1.3-1.4,3.7-1.4,5.1,0.1C157.3,347.7,157.4,350.3,156,351.7z"/>
<path fill="#FFFFFF" d="M145,275h8v-1h-8V275z M153,271v-1h-8v1H153z M153,273v-1h-8v1H153z M155,267v12h-12v-16h8v4L155,267z"/>
<polygon fill="#FFFFFF" points="155,266 152,266 152,263 "/>
<g>
	<polygon fill="#FFFFFF" points="155.4,74 157,72.4 150.6,66 157,59.6 155.4,58 149,64.4 142.6,58 141,59.6 147.4,66 141,72.4
		142.6,74 149,67.6 	"/>
</g>
<g>
	<polygon fill="#FFFFFF" points="154.1,115 157,112.1 151.9,107 157,101.9 154.1,99 149,104.1 143.9,99 141,101.9 146.1,107
		141,112.1 143.9,115 149,109.9 	"/>
</g>
<g>
	<polygon fill="#FFFFFF" points="147.2,33 150.8,33 150.8,26.8 157,26.8 157,23.2 150.8,23.2 150.8,17 147.2,17 147.2,23.2
		141,23.2 141,26.8 147.2,26.8 	"/>
</g>
<g>
	<rect x="141" y="843.2" fill="#FFFFFF" width="16" height="3.6"/>
</g>
<g>
	<path fill="#FFFFFF" d="M154,305L154,305v-1h-2v1h-6v-1h-2v1h-3v15h0.8h1h12.4h1.7h0.1v-15H154z M152,306h2v1h-2V306z M144,306h2v1
		h-2V306z M143,318v-9h12v0.3l0,0v8.7H143z"/>
	<polygon fill="#FFFFFF" points="145,311 145,313 146,313 146,316 148,316 148,311 	"/>
	<polygon fill="#FFFFFF" points="149,311 149,313 150,313 150,316 152,316 152,311 	"/>
</g>
<polygon id="polygon2995_8_" fill="#FFFFFF" points="141,595 141,596 142,596 142,597 143,597 143,598 144,598 144,599 145,599
	145,600 146,600 146,601 147,601 147,602 148,602 148,603 150,603 150,602 151,602 151,601 152,601 152,600 153,600 153,599
	154,599 154,598 155,598 155,597 156,597 156,596 157,596 157,595 "/>
<polygon id="polygon2995_7_" fill="#FFFFFF" points="157,644 157,643 156,643 156,642 155,642 155,641 154,641 154,640 153,640
	153,639 152,639 152,638 151,638 151,637 150,637 150,636 148,636 148,637 147,637 147,638 146,638 146,639 145,639 145,640
	144,640 144,641 143,641 143,642 142,642 142,643 141,643 141,644 "/>
<g>
	<rect x="144" y="428" fill="#FFFFFF" width="10" height="4"/>
	<rect x="144" y="438" fill="#FFFFFF" width="10" height="5"/>
	<polygon fill="#FFFFFF" points="159,433 159,433 155.3,433 143,433 139,433 139,436.8 139,441 143,441 143,437 155,437 155,441
		159,441 159,436.8 159,436.8 	"/>
</g>
<rect x="147" y="194" fill="#FFFFFF" width="4" height="3"/>
<rect x="147" y="181" fill="#FFFFFF" width="4" height="11"/>
<polygon fill="#FFFFFF" points="153,685.1 148.9,681 153,676.9 153,673 145,681 153,689 "/>
<polygon fill="#FFFFFF" points="145,717.9 149.1,722 145,726.1 145,730 153,722 145,714 "/>
<polygon fill="#FFFFFF" points="153.1,759 149,763.1 144.9,759 141,759 149,767 157,759 "/>
<polygon fill="#FFFFFF" points="144.9,808 149,803.9 153.1,808 157,808 149,800 141,808 "/>
<polygon fill="#FFFFFF" points="154,140 147.1,152.2 144,147 141,147 146,156 149,156 157,140 "/>
<path fill="#FFFFFF" d="M151.3,230.5c1.3-2.2,1-5-0.8-6.8c-1.1-1.1-2.4-1.6-3.9-1.6s-2.9,0.6-3.9,1.6c-1.1,1.1-1.6,2.4-1.6,3.9
	c0,1.5,0.6,2.9,1.6,3.9c1.1,1.1,2.4,1.6,3.9,1.6c1,0,2-0.3,2.9-0.8l5.7,5.7l1.9-1.9L151.3,230.5z M149.4,230.4
	c-0.8,0.8-1.8,1.2-2.8,1.2c-1.1,0-2.1-0.4-2.8-1.2c-0.8-0.8-1.2-1.8-1.2-2.8c0-1.1,0.4-2.1,1.2-2.8c0.8-0.8,1.8-1.2,2.8-1.2
	c1.1,0,2.1,0.4,2.8,1.2c0.8,0.8,1.2,1.8,1.2,2.8C150.6,228.6,150.2,229.6,149.4,230.4z"/>
<polygon fill="#FFFFFF" points="155,389 152,389 152,386 "/>
<g id="XMLID_4_">
	<path fill="#FFFFFF" d="M150,394.2c0,0.5-0.2,0.9-0.5,1.2s-0.8,0.5-1.2,0.5c-0.5,0-0.9-0.2-1.2-0.5c-0.3-0.3-0.5-0.8-0.5-1.2
		c0-0.5,0.2-0.9,0.5-1.2c0.3-0.3,0.8-0.5,1.2-0.5c0.5,0,0.9,0.2,1.2,0.5C149.8,393.3,150,393.8,150,394.2z"/>
	<path fill="#FFFFFF" d="M153,400l1-1l-3.2-3.2c0.8-1.2,0.6-2.8-0.5-3.8c-0.6-0.6-1.4-0.9-2.2-0.9c-0.8,0-1.6,0.3-2.2,0.9
		c-0.6,0.6-0.9,1.4-0.9,2.2c0,0.8,0.3,1.6,0.9,2.2s1.4,0.9,2.2,0.9c0.6,0,1.1-0.2,1.6-0.5L153,400z M155,390v12h-12v-16h8v4L155,390
		z"/>
</g>
<circle fill="#FFFFFF" cx="149" cy="558" r="3"/>
<g>
	<path fill="#FFFFFF" d="M149.9,480h-3c0,0-0.3-3.2,2.2-4.9c0.8-0.6,1.8-1.1,1.8-2.1c0-1.8-1-2-2-2c-0.6,0-2,1-2,2h-3c0-2,1-5,5-5
		c1.7,0,5.1,0.4,5.1,3.9c-0.1,2.6-1.3,3.5-2.4,4.3C149.8,477.5,149.9,479,149.9,480z"/>
	<rect x="147" y="481" fill="#FFFFFF" width="3" height="3"/>
</g>
<g>
	<polygon fill="#FFFFFF" points="152,523 152,525 146,525 146,523 148,523 148,516 146,516 146,514 151,514 151,523 	"/>
</g>
<circle fill="#FFFFFF" cx="149" cy="511" r="2"/>
<path fill="#1D1D1B" d="M197,351.7l-7.2,8c-0.8,0.8-1.9,1.3-3.1,1.3h0c-1.3,0-2.5-0.5-3.4-1.5c-1.7-1.9-1.8-5.1-0.1-7l6-6.6l0.9,1
	l-6,6.6c-1,1.2-1.3,3.5,0.1,4.9c0.6,0.7,1.5,1.1,2.4,1.1l0,0c0.8,0,1.6-0.3,2.2-0.9l7.2-8c0.7-0.8,0.9-2.4-0.1-3.5
	c-0.9-1-2.5-0.9-3.2-0.1l-4.9,5.4c-0.4,0.4-0.6,0.8-0.6,1.3c0,0.4,0.1,0.8,0.4,1.1c0.3,0.3,0.6,0.5,0.9,0.5h0c0.5,0,0.9-0.3,1.3-0.7
	l3.5-4l0.9,1l-3.5,4c-0.7,0.7-1.5,1.2-2.3,1.2c0,0,0,0,0,0c-0.7,0-1.4-0.3-1.9-0.9c-0.5-0.6-0.8-1.3-0.8-2.1c0-0.8,0.3-1.6,1-2.3
	l4.9-5.4c1.3-1.4,3.7-1.4,5.1,0.1C198.3,347.7,198.4,350.3,197,351.7z"/>
<path d="M186,275h8v-1h-8V275z M194,271v-1h-8v1H194z M194,273v-1h-8v1H194z M196,267v12h-12v-16h8v4L196,267z"/>
<polygon points="196,266 193,266 193,263 "/>
<g>
	<polygon fill="#1D1D1B" points="196.4,74 198,72.4 191.6,66 198,59.6 196.4,58 190,64.4 183.6,58 182,59.6 188.4,66 182,72.4
		183.6,74 190,67.6 	"/>
</g>
<g>
	<polygon fill="#1D1D1B" points="195.1,115 198,112.1 192.9,107 198,101.9 195.1,99 190,104.1 184.9,99 182,101.9 187.1,107
		182,112.1 184.9,115 190,109.9 	"/>
</g>
<g>
	<polygon fill="#1D1D1B" points="188.2,33 191.8,33 191.8,26.8 198,26.8 198,23.2 191.8,23.2 191.8,17 188.2,17 188.2,23.2
		182,23.2 182,26.8 188.2,26.8 	"/>
</g>
<g>
	<rect x="182" y="843.2" fill="#1D1D1B" width="16" height="3.6"/>
</g>
<g>
	<path d="M195,305L195,305v-1h-2v1h-6v-1h-2v1h-3v15h0.8h1h12.4h1.7h0.1v-15H195z M193,306h2v1h-2V306z M185,306h2v1h-2V306z
		 M184,318v-9h12v0.3l0,0v8.7H184z"/>
	<polygon points="186,311 186,313 187,313 187,316 189,316 189,311 	"/>
	<polygon points="190,311 190,313 191,313 191,316 193,316 193,311 	"/>
</g>
<polygon id="polygon2995_10_" points="182,595 182,596 183,596 183,597 184,597 184,598 185,598 185,599 186,599 186,600 187,600
	187,601 188,601 188,602 189,602 189,603 191,603 191,602 192,602 192,601 193,601 193,600 194,600 194,599 195,599 195,598
	196,598 196,597 197,597 197,596 198,596 198,595 "/>
<polygon id="polygon2995_9_" points="198,644 198,643 197,643 197,642 196,642 196,641 195,641 195,640 194,640 194,639 193,639
	193,638 192,638 192,637 191,637 191,636 189,636 189,637 188,637 188,638 187,638 187,639 186,639 186,640 185,640 185,641
	184,641 184,642 183,642 183,643 182,643 182,644 "/>
<g>
	<rect x="185" y="428" width="10" height="4"/>
	<rect x="185" y="438" width="10" height="5"/>
	<polygon points="200,433 200,433 196.3,433 184,433 180,433 180,436.8 180,441 184,441 184,437 196,437 196,441 200,441 200,436.8
		200,436.8 	"/>
</g>
<rect x="188" y="194" width="4" height="3"/>
<rect x="188" y="181" width="4" height="11"/>
<polygon points="194,685.1 189.9,681 194,676.9 194,673 186,681 194,689 "/>
<polygon points="186,717.9 190.1,722 186,726.1 186,730 194,722 186,714 "/>
<polygon points="194.1,759 190,763.1 185.9,759 182,759 190,767 198,759 "/>
<polygon points="185.9,808 190,803.9 194.1,808 198,808 190,800 182,808 "/>
<polygon points="195,140 188.1,152.2 185,147 182,147 187,156 190,156 198,140 "/>
<path d="M192.3,230.5c1.3-2.2,1-5-0.8-6.8c-1.1-1.1-2.4-1.6-3.9-1.6s-2.9,0.6-3.9,1.6c-1.1,1.1-1.6,2.4-1.6,3.9
	c0,1.5,0.6,2.9,1.6,3.9c1.1,1.1,2.4,1.6,3.9,1.6c1,0,2-0.3,2.9-0.8l5.7,5.7l1.9-1.9L192.3,230.5z M190.4,230.4
	c-0.8,0.8-1.8,1.2-2.8,1.2c-1.1,0-2.1-0.4-2.8-1.2c-0.8-0.8-1.2-1.8-1.2-2.8c0-1.1,0.4-2.1,1.2-2.8c0.8-0.8,1.8-1.2,2.8-1.2
	c1.1,0,2.1,0.4,2.8,1.2c0.8,0.8,1.2,1.8,1.2,2.8C191.6,228.6,191.2,229.6,190.4,230.4z"/>
<polygon points="196,389 193,389 193,386 "/>
<g id="XMLID_5_">
	<path d="M191,394.2c0,0.5-0.2,0.9-0.5,1.2s-0.8,0.5-1.2,0.5c-0.5,0-0.9-0.2-1.2-0.5c-0.3-0.3-0.5-0.8-0.5-1.2
		c0-0.5,0.2-0.9,0.5-1.2c0.3-0.3,0.8-0.5,1.2-0.5c0.5,0,0.9,0.2,1.2,0.5C190.8,393.3,191,393.8,191,394.2z"/>
	<path d="M194,400l1-1l-3.2-3.2c0.8-1.2,0.6-2.8-0.5-3.8c-0.6-0.6-1.4-0.9-2.2-0.9c-0.8,0-1.6,0.3-2.2,0.9c-0.6,0.6-0.9,1.4-0.9,2.2
		c0,0.8,0.3,1.6,0.9,2.2s1.4,0.9,2.2,0.9c0.6,0,1.1-0.2,1.6-0.5L194,400z M196,390v12h-12v-16h8v4L196,390z"/>
</g>
<circle cx="190" cy="558" r="3"/>
<g>
	<path d="M190.9,480h-3c0,0-0.3-3.2,2.2-4.9c0.8-0.6,1.8-1.1,1.8-2.1c0-1.8-1-2-2-2c-0.6,0-2,1-2,2h-3c0-2,1-5,5-5
		c1.7,0,5.1,0.4,5.1,3.9c-0.1,2.6-1.3,3.5-2.4,4.3C190.8,477.5,190.9,479,190.9,480z"/>
	<rect x="188" y="481" width="3" height="3"/>
</g>
<g>
	<polygon points="193,523 193,525 187,525 187,523 189,523 189,516 187,516 187,514 192,514 192,523 	"/>
</g>
<circle cx="190" cy="511" r="2"/>
<path fill="#634689" d="M648,351.7l-7.2,8c-0.8,0.8-1.9,1.3-3.1,1.3h0c-1.3,0-2.5-0.5-3.4-1.5c-1.7-1.9-1.8-5.1-0.1-7l6-6.6l0.9,1
	l-6,6.6c-1,1.2-1.3,3.5,0.1,4.9c0.6,0.7,1.5,1.1,2.4,1.1l0,0c0.8,0,1.6-0.3,2.2-0.9l7.2-8c0.7-0.8,0.9-2.4-0.1-3.5
	c-0.9-1-2.5-0.9-3.2-0.1l-4.9,5.4c-0.4,0.4-0.6,0.8-0.6,1.3c0,0.4,0.1,0.8,0.4,1.1c0.3,0.3,0.6,0.5,0.9,0.5h0c0.5,0,0.9-0.3,1.3-0.7
	l3.5-4l0.9,1l-3.5,4c-0.7,0.7-1.5,1.2-2.3,1.2c0,0,0,0,0,0c-0.7,0-1.4-0.3-1.9-0.9c-0.5-0.6-0.8-1.3-0.8-2.1c0-0.8,0.3-1.6,1-2.3
	l4.9-5.4c1.3-1.4,3.7-1.4,5.1,0.1C649.3,347.7,649.4,350.3,648,351.7z"/>
<path fill="#634689" d="M637,275h8v-1h-8V275z M645,271v-1h-8v1H645z M645,273v-1h-8v1H645z M647,267v12h-12v-16h8v4L647,267z"/>
<polygon fill="#634689" points="647,266 644,266 644,263 "/>
<g>
	<polygon fill="#634689" points="647.4,74 649,72.4 642.6,66 649,59.6 647.4,58 641,64.4 634.6,58 633,59.6 639.4,66 633,72.4
		634.6,74 641,67.6 	"/>
</g>
<g>
	<polygon fill="#634689" points="646.1,115 649,112.1 643.9,107 649,101.9 646.1,99 641,104.1 635.9,99 633,101.9 638.1,107
		633,112.1 635.9,115 641,109.9 	"/>
</g>
<g>
	<polygon fill="#634689" points="639.2,33 642.8,33 642.8,26.8 649,26.8 649,23.2 642.8,23.2 642.8,17 639.2,17 639.2,23.2
		633,23.2 633,26.8 639.2,26.8 	"/>
</g>
<g>
	<rect x="633" y="843.2" fill="#634689" width="16" height="3.6"/>
</g>
<g>
	<path fill="#634689" d="M646,305L646,305v-1h-2v1h-6v-1h-2v1h-3v15h0.8h1h12.4h1.7h0.1v-15H646z M644,306h2v1h-2V306z M636,306h2v1
		h-2V306z M635,318v-9h12v0.3l0,0v8.7H635z"/>
	<polygon fill="#634689" points="637,311 637,313 638,313 638,316 640,316 640,311 	"/>
	<polygon fill="#634689" points="641,311 641,313 642,313 642,316 644,316 644,311 	"/>
</g>
<polygon id="polygon2995_32_" fill="#634689" points="633,595 633,596 634,596 634,597 635,597 635,598 636,598 636,599 637,599
	637,600 638,600 638,601 639,601 639,602 640,602 640,603 642,603 642,602 643,602 643,601 644,601 644,600 645,600 645,599
	646,599 646,598 647,598 647,597 648,597 648,596 649,596 649,595 "/>
<polygon id="polygon2995_31_" fill="#634689" points="649,644 649,643 648,643 648,642 647,642 647,641 646,641 646,640 645,640
	645,639 644,639 644,638 643,638 643,637 642,637 642,636 640,636 640,637 639,637 639,638 638,638 638,639 637,639 637,640
	636,640 636,641 635,641 635,642 634,642 634,643 633,643 633,644 "/>
<g>
	<rect x="636" y="428" fill="#634689" width="10" height="4"/>
	<rect x="636" y="438" fill="#634689" width="10" height="5"/>
	<polygon fill="#634689" points="651,433 651,433 647.3,433 635,433 631,433 631,436.8 631,441 635,441 635,437 647,437 647,441
		651,441 651,436.8 651,436.8 	"/>
</g>
<rect x="639" y="194" fill="#634689" width="4" height="3"/>
<rect x="639" y="181" fill="#634689" width="4" height="11"/>
<polygon fill="#634689" points="645,685.1 640.9,681 645,676.9 645,673 637,681 645,689 "/>
<polygon fill="#634689" points="637,717.9 641.1,722 637,726.1 637,730 645,722 637,714 "/>
<polygon fill="#634689" points="645.1,759 641,763.1 636.9,759 633,759 641,767 649,759 "/>
<polygon fill="#634689" points="636.9,808 641,803.9 645.1,808 649,808 641,800 633,808 "/>
<polygon fill="#634689" points="646,140 639.1,152.2 636,147 633,147 638,156 641,156 649,140 "/>
<path fill="#634689" d="M643.3,230.5c1.3-2.2,1-5-0.8-6.8c-1.1-1.1-2.4-1.6-3.9-1.6c-1.5,0-2.9,0.6-3.9,1.6
	c-1.1,1.1-1.6,2.4-1.6,3.9c0,1.5,0.6,2.9,1.6,3.9c1.1,1.1,2.4,1.6,3.9,1.6c1,0,2-0.3,2.9-0.8l5.7,5.7l1.9-1.9L643.3,230.5z
	 M641.4,230.4c-0.8,0.8-1.8,1.2-2.8,1.2c-1.1,0-2.1-0.4-2.8-1.2c-0.8-0.8-1.2-1.8-1.2-2.8c0-1.1,0.4-2.1,1.2-2.8
	c0.8-0.8,1.8-1.2,2.8-1.2s2.1,0.4,2.8,1.2c0.8,0.8,1.2,1.8,1.2,2.8C642.6,228.6,642.2,229.6,641.4,230.4z"/>
<polygon fill="#634689" points="647,389 644,389 644,386 "/>
<g id="XMLID_16_">
	<path fill="#634689" d="M642,394.2c0,0.5-0.2,0.9-0.5,1.2c-0.3,0.3-0.8,0.5-1.2,0.5c-0.5,0-0.9-0.2-1.2-0.5
		c-0.3-0.3-0.5-0.8-0.5-1.2c0-0.5,0.2-0.9,0.5-1.2c0.3-0.3,0.8-0.5,1.2-0.5c0.5,0,0.9,0.2,1.2,0.5C641.8,393.3,642,393.8,642,394.2z
		"/>
	<path fill="#634689" d="M645,400l1-1l-3.2-3.2c0.8-1.2,0.6-2.8-0.5-3.8c-0.6-0.6-1.4-0.9-2.2-0.9c-0.8,0-1.6,0.3-2.2,0.9
		c-0.6,0.6-0.9,1.4-0.9,2.2c0,0.8,0.3,1.6,0.9,2.2c0.6,0.6,1.4,0.9,2.2,0.9c0.6,0,1.1-0.2,1.6-0.5L645,400z M647,390v12h-12v-16h8v4
		L647,390z"/>
</g>
<circle fill="#634689" cx="641" cy="558" r="3"/>
<g>
	<path fill="#634689" d="M641.9,480h-3c0,0-0.3-3.2,2.2-4.9c0.8-0.6,1.8-1.1,1.8-2.1c0-1.8-1-2-2-2c-0.6,0-2,1-2,2h-3c0-2,1-5,5-5
		c1.7,0,5.1,0.4,5.1,3.9c-0.1,2.6-1.3,3.5-2.4,4.3C641.8,477.5,641.9,479,641.9,480z"/>
	<rect x="639" y="481" fill="#634689" width="3" height="3"/>
</g>
<g>
	<polygon fill="#634689" points="644,523 644,525 638,525 638,523 640,523 640,516 638,516 638,514 643,514 643,523 	"/>
</g>
<circle fill="#634689" cx="641" cy="511" r="2"/>
<path fill="#FFFFFF" d="M238,351.7l-7.2,8c-0.8,0.8-1.9,1.3-3.1,1.3h0c-1.3,0-2.5-0.5-3.4-1.5c-1.7-1.9-1.8-5.1-0.1-7l6-6.6l0.9,1
	l-6,6.6c-1,1.2-1.3,3.5,0.1,4.9c0.6,0.7,1.5,1.1,2.4,1.1l0,0c0.8,0,1.6-0.3,2.2-0.9l7.2-8c0.7-0.8,0.9-2.4-0.1-3.5
	c-0.9-1-2.5-0.9-3.2-0.1l-4.9,5.4c-0.4,0.4-0.6,0.8-0.6,1.3c0,0.4,0.1,0.8,0.4,1.1c0.3,0.3,0.6,0.5,0.9,0.5h0c0.5,0,0.9-0.3,1.3-0.7
	l3.5-4l0.9,1l-3.5,4c-0.7,0.7-1.5,1.2-2.3,1.2c0,0,0,0,0,0c-0.7,0-1.4-0.3-1.9-0.9c-0.5-0.6-0.8-1.3-0.8-2.1c0-0.8,0.3-1.6,1-2.3
	l4.9-5.4c1.3-1.4,3.7-1.4,5.1,0.1C239.3,347.7,239.4,350.3,238,351.7z"/>
<path fill="#FFFFFF" d="M227,275h8v-1h-8V275z M235,271v-1h-8v1H235z M235,273v-1h-8v1H235z M237,267v12h-12v-16h8v4L237,267z"/>
<polygon fill="#FFFFFF" points="237,266 234,266 234,263 "/>
<g>
	<polygon fill="#FFFFFF" points="237.4,74 239,72.4 232.6,66 239,59.6 237.4,58 231,64.4 224.6,58 223,59.6 229.4,66 223,72.4
		224.6,74 231,67.6 	"/>
</g>
<g>
	<polygon fill="#FFFFFF" points="236.1,115 239,112.1 233.9,107 239,101.9 236.1,99 231,104.1 225.9,99 223,101.9 228.1,107
		223,112.1 225.9,115 231,109.9 	"/>
</g>
<g>
	<polygon fill="#FFFFFF" points="229.2,33 232.8,33 232.8,26.8 239,26.8 239,23.2 232.8,23.2 232.8,17 229.2,17 229.2,23.2
		223,23.2 223,26.8 229.2,26.8 	"/>
</g>
<g>
	<rect x="223" y="843.2" fill="#FFFFFF" width="16" height="3.6"/>
</g>
<g>
	<path fill="#FFFFFF" d="M236,305L236,305v-1h-2v1h-6v-1h-2v1h-3v15h0.8h1h12.4h1.7h0.1v-15H236z M234,306h2v1h-2V306z M226,306h2v1
		h-2V306z M225,318v-9h12v0.3l0,0v8.7H225z"/>
	<polygon fill="#FFFFFF" points="227,311 227,313 228,313 228,316 230,316 230,311 	"/>
	<polygon fill="#FFFFFF" points="231,311 231,313 232,313 232,316 234,316 234,311 	"/>
</g>
<polygon id="polygon2995_12_" fill="#FFFFFF" points="223,595 223,596 224,596 224,597 225,597 225,598 226,598 226,599 227,599
	227,600 228,600 228,601 229,601 229,602 230,602 230,603 232,603 232,602 233,602 233,601 234,601 234,600 235,600 235,599
	236,599 236,598 237,598 237,597 238,597 238,596 239,596 239,595 "/>
<polygon id="polygon2995_11_" fill="#FFFFFF" points="239,644 239,643 238,643 238,642 237,642 237,641 236,641 236,640 235,640
	235,639 234,639 234,638 233,638 233,637 232,637 232,636 230,636 230,637 229,637 229,638 228,638 228,639 227,639 227,640
	226,640 226,641 225,641 225,642 224,642 224,643 223,643 223,644 "/>
<g>
	<rect x="226" y="428" fill="#FFFFFF" width="10" height="4"/>
	<rect x="226" y="438" fill="#FFFFFF" width="10" height="5"/>
	<polygon fill="#FFFFFF" points="241,433 241,433 237.3,433 225,433 221,433 221,436.8 221,441 225,441 225,437 237,437 237,441
		241,441 241,436.8 241,436.8 	"/>
</g>
<rect x="229" y="194" fill="#FFFFFF" width="4" height="3"/>
<rect x="229" y="181" fill="#FFFFFF" width="4" height="11"/>
<polygon fill="#FFFFFF" points="235,685.1 230.9,681 235,676.9 235,673 227,681 235,689 "/>
<polygon fill="#FFFFFF" points="227,717.9 231.1,722 227,726.1 227,730 235,722 227,714 "/>
<polygon fill="#FFFFFF" points="235.1,759 231,763.1 226.9,759 223,759 231,767 239,759 "/>
<polygon fill="#FFFFFF" points="226.9,808 231,803.9 235.1,808 239,808 231,800 223,808 "/>
<polygon fill="#FFFFFF" points="236,140 229.1,152.2 226,147 223,147 228,156 231,156 239,140 "/>
<path fill="#FFFFFF" d="M233.3,230.5c1.3-2.2,1-5-0.8-6.8c-1.1-1.1-2.4-1.6-3.9-1.6s-2.9,0.6-3.9,1.6c-1.1,1.1-1.6,2.4-1.6,3.9
	c0,1.5,0.6,2.9,1.6,3.9c1.1,1.1,2.4,1.6,3.9,1.6c1,0,2-0.3,2.9-0.8l5.7,5.7l1.9-1.9L233.3,230.5z M231.4,230.4
	c-0.8,0.8-1.8,1.2-2.8,1.2c-1.1,0-2.1-0.4-2.8-1.2c-0.8-0.8-1.2-1.8-1.2-2.8c0-1.1,0.4-2.1,1.2-2.8c0.8-0.8,1.8-1.2,2.8-1.2
	c1.1,0,2.1,0.4,2.8,1.2c0.8,0.8,1.2,1.8,1.2,2.8C232.6,228.6,232.2,229.6,231.4,230.4z"/>
<polygon fill="#FFFFFF" points="237,389 234,389 234,386 "/>
<g id="XMLID_6_">
	<path fill="#FFFFFF" d="M232,394.2c0,0.5-0.2,0.9-0.5,1.2s-0.8,0.5-1.2,0.5c-0.5,0-0.9-0.2-1.2-0.5c-0.3-0.3-0.5-0.8-0.5-1.2
		c0-0.5,0.2-0.9,0.5-1.2c0.3-0.3,0.8-0.5,1.2-0.5c0.5,0,0.9,0.2,1.2,0.5C231.8,393.3,232,393.8,232,394.2z"/>
	<path fill="#FFFFFF" d="M235,400l1-1l-3.2-3.2c0.8-1.2,0.6-2.8-0.5-3.8c-0.6-0.6-1.4-0.9-2.2-0.9c-0.8,0-1.6,0.3-2.2,0.9
		c-0.6,0.6-0.9,1.4-0.9,2.2c0,0.8,0.3,1.6,0.9,2.2s1.4,0.9,2.2,0.9c0.6,0,1.1-0.2,1.6-0.5L235,400z M237,390v12h-12v-16h8v4L237,390
		z"/>
</g>
<circle fill="#FFFFFF" cx="231" cy="558" r="3"/>
<g>
	<path fill="#FFFFFF" d="M231.9,480h-3c0,0-0.3-3.2,2.2-4.9c0.8-0.6,1.8-1.1,1.8-2.1c0-1.8-1-2-2-2c-0.6,0-2,1-2,2h-3c0-2,1-5,5-5
		c1.7,0,5.1,0.4,5.1,3.9c-0.1,2.6-1.3,3.5-2.4,4.3C231.8,477.5,231.9,479,231.9,480z"/>
	<rect x="229" y="481" fill="#FFFFFF" width="3" height="3"/>
</g>
<g>
	<polygon fill="#FFFFFF" points="234,523 234,525 228,525 228,523 230,523 230,516 228,516 228,514 233,514 233,523 	"/>
</g>
<circle fill="#FFFFFF" cx="231" cy="511" r="2"/>
<path fill="#FFFFFF" d="M279,351.7l-7.2,8c-0.8,0.8-1.9,1.3-3.1,1.3h0c-1.3,0-2.5-0.5-3.4-1.5c-1.7-1.9-1.8-5.1-0.1-7l6-6.6l0.9,1
	l-6,6.6c-1,1.2-1.3,3.5,0.1,4.9c0.6,0.7,1.5,1.1,2.4,1.1l0,0c0.8,0,1.6-0.3,2.2-0.9l7.2-8c0.7-0.8,0.9-2.4-0.1-3.5
	c-0.9-1-2.5-0.9-3.2-0.1l-4.9,5.4c-0.4,0.4-0.6,0.8-0.6,1.3c0,0.4,0.1,0.8,0.4,1.1c0.3,0.3,0.6,0.5,0.9,0.5h0c0.5,0,0.9-0.3,1.3-0.7
	l3.5-4l0.9,1l-3.5,4c-0.7,0.7-1.5,1.2-2.3,1.2c0,0,0,0,0,0c-0.7,0-1.4-0.3-1.9-0.9c-0.5-0.6-0.8-1.3-0.8-2.1c0-0.8,0.3-1.6,1-2.3
	l4.9-5.4c1.3-1.4,3.7-1.4,5.1,0.1C280.3,347.7,280.4,350.3,279,351.7z"/>
<path fill="#FFFFFF" d="M268,275h8v-1h-8V275z M276,271v-1h-8v1H276z M276,273v-1h-8v1H276z M278,267v12h-12v-16h8v4L278,267z"/>
<polygon fill="#FFFFFF" points="278,266 275,266 275,263 "/>
<g>
	<polygon fill="#FFFFFF" points="278.4,74 280,72.4 273.6,66 280,59.6 278.4,58 272,64.4 265.6,58 264,59.6 270.4,66 264,72.4
		265.6,74 272,67.6 	"/>
</g>
<g>
	<polygon fill="#FFFFFF" points="277.1,115 280,112.1 274.9,107 280,101.9 277.1,99 272,104.1 266.9,99 264,101.9 269.1,107
		264,112.1 266.9,115 272,109.9 	"/>
</g>
<g>
	<polygon fill="#FFFFFF" points="270.2,33 273.8,33 273.8,26.8 280,26.8 280,23.2 273.8,23.2 273.8,17 270.2,17 270.2,23.2
		264,23.2 264,26.8 270.2,26.8 	"/>
</g>
<g>
	<rect x="264" y="843.2" fill="#FFFFFF" width="16" height="3.6"/>
</g>
<g>
	<path fill="#FFFFFF" d="M277,305L277,305v-1h-2v1h-6v-1h-2v1h-3v15h0.8h1h12.4h1.7h0.1v-15H277z M275,306h2v1h-2V306z M267,306h2v1
		h-2V306z M266,318v-9h12v0.3l0,0v8.7H266z"/>
	<polygon fill="#FFFFFF" points="268,311 268,313 269,313 269,316 271,316 271,311 	"/>
	<polygon fill="#FFFFFF" points="272,311 272,313 273,313 273,316 275,316 275,311 	"/>
</g>
<polygon id="polygon2995_14_" fill="#FFFFFF" points="264,595 264,596 265,596 265,597 266,597 266,598 267,598 267,599 268,599
	268,600 269,600 269,601 270,601 270,602 271,602 271,603 273,603 273,602 274,602 274,601 275,601 275,600 276,600 276,599
	277,599 277,598 278,598 278,597 279,597 279,596 280,596 280,595 "/>
<polygon id="polygon2995_13_" fill="#FFFFFF" points="280,644 280,643 279,643 279,642 278,642 278,641 277,641 277,640 276,640
	276,639 275,639 275,638 274,638 274,637 273,637 273,636 271,636 271,637 270,637 270,638 269,638 269,639 268,639 268,640
	267,640 267,641 266,641 266,642 265,642 265,643 264,643 264,644 "/>
<g>
	<rect x="267" y="428" fill="#FFFFFF" width="10" height="4"/>
	<rect x="267" y="438" fill="#FFFFFF" width="10" height="5"/>
	<polygon fill="#FFFFFF" points="282,433 282,433 278.3,433 266,433 262,433 262,436.8 262,441 266,441 266,437 278,437 278,441
		282,441 282,436.8 282,436.8 	"/>
</g>
<rect x="270" y="194" fill="#FFFFFF" width="4" height="3"/>
<rect x="270" y="181" fill="#FFFFFF" width="4" height="11"/>
<polygon fill="#FFFFFF" points="276,685.1 271.9,681 276,676.9 276,673 268,681 276,689 "/>
<polygon fill="#FFFFFF" points="268,717.9 272.1,722 268,726.1 268,730 276,722 268,714 "/>
<polygon fill="#FFFFFF" points="276.1,759 272,763.1 267.9,759 264,759 272,767 280,759 "/>
<polygon fill="#FFFFFF" points="267.9,808 272,803.9 276.1,808 280,808 272,800 264,808 "/>
<polygon fill="#FFFFFF" points="277,140 270.1,152.2 267,147 264,147 269,156 272,156 280,140 "/>
<path fill="#FFFFFF" d="M274.3,230.5c1.3-2.2,1-5-0.8-6.8c-1.1-1.1-2.4-1.6-3.9-1.6c-1.5,0-2.9,0.6-3.9,1.6
	c-1.1,1.1-1.6,2.4-1.6,3.9c0,1.5,0.6,2.9,1.6,3.9c1.1,1.1,2.4,1.6,3.9,1.6c1,0,2-0.3,2.9-0.8l5.7,5.7l1.9-1.9L274.3,230.5z
	 M272.4,230.4c-0.8,0.8-1.8,1.2-2.8,1.2c-1.1,0-2.1-0.4-2.8-1.2c-0.8-0.8-1.2-1.8-1.2-2.8c0-1.1,0.4-2.1,1.2-2.8
	c0.8-0.8,1.8-1.2,2.8-1.2c1.1,0,2.1,0.4,2.8,1.2c0.8,0.8,1.2,1.8,1.2,2.8C273.6,228.6,273.2,229.6,272.4,230.4z"/>
<polygon fill="#FFFFFF" points="278,389 275,389 275,386 "/>
<g id="XMLID_7_">
	<path fill="#FFFFFF" d="M273,394.2c0,0.5-0.2,0.9-0.5,1.2s-0.8,0.5-1.2,0.5c-0.5,0-0.9-0.2-1.2-0.5c-0.3-0.3-0.5-0.8-0.5-1.2
		c0-0.5,0.2-0.9,0.5-1.2c0.3-0.3,0.8-0.5,1.2-0.5c0.5,0,0.9,0.2,1.2,0.5C272.8,393.3,273,393.8,273,394.2z"/>
	<path fill="#FFFFFF" d="M276,400l1-1l-3.2-3.2c0.8-1.2,0.6-2.8-0.5-3.8c-0.6-0.6-1.4-0.9-2.2-0.9c-0.8,0-1.6,0.3-2.2,0.9
		c-0.6,0.6-0.9,1.4-0.9,2.2c0,0.8,0.3,1.6,0.9,2.2c0.6,0.6,1.4,0.9,2.2,0.9c0.6,0,1.1-0.2,1.6-0.5L276,400z M278,390v12h-12v-16h8v4
		L278,390z"/>
</g>
<circle fill="#FFFFFF" cx="272" cy="558" r="3"/>
<g>
	<path fill="#FFFFFF" d="M272.9,480h-3c0,0-0.3-3.2,2.2-4.9c0.8-0.6,1.8-1.1,1.8-2.1c0-1.8-1-2-2-2c-0.6,0-2,1-2,2h-3c0-2,1-5,5-5
		c1.7,0,5.1,0.4,5.1,3.9c-0.1,2.6-1.3,3.5-2.4,4.3C272.8,477.5,272.9,479,272.9,480z"/>
	<rect x="270" y="481" fill="#FFFFFF" width="3" height="3"/>
</g>
<g>
	<polygon fill="#FFFFFF" points="275,523 275,525 269,525 269,523 271,523 271,516 269,516 269,514 274,514 274,523 	"/>
</g>
<circle fill="#FFFFFF" cx="272" cy="511" r="2"/>
<path fill="#3E3832" d="M320,351.7l-7.2,8c-0.8,0.8-1.9,1.3-3.1,1.3h0c-1.3,0-2.5-0.5-3.4-1.5c-1.7-1.9-1.8-5.1-0.1-7l6-6.6l0.9,1
	l-6,6.6c-1,1.2-1.3,3.5,0.1,4.9c0.6,0.7,1.5,1.1,2.4,1.1l0,0c0.8,0,1.6-0.3,2.2-0.9l7.2-8c0.7-0.8,0.9-2.4-0.1-3.5
	c-0.9-1-2.5-0.9-3.2-0.1l-4.9,5.4c-0.4,0.4-0.6,0.8-0.6,1.3c0,0.4,0.1,0.8,0.4,1.1c0.3,0.3,0.6,0.5,0.9,0.5h0c0.5,0,0.9-0.3,1.3-0.7
	l3.5-4l0.9,1l-3.5,4c-0.7,0.7-1.5,1.2-2.3,1.2c0,0,0,0,0,0c-0.7,0-1.4-0.3-1.9-0.9c-0.5-0.6-0.8-1.3-0.8-2.1c0-0.8,0.3-1.6,1-2.3
	l4.9-5.4c1.3-1.4,3.7-1.4,5.1,0.1C321.3,347.7,321.4,350.3,320,351.7z"/>
<path fill="#3E3832" d="M309,275h8v-1h-8V275z M317,271v-1h-8v1H317z M317,273v-1h-8v1H317z M319,267v12h-12v-16h8v4L319,267z"/>
<polygon fill="#3E3832" points="319,266 316,266 316,263 "/>
<g>
	<polygon fill="#3E3832" points="319.4,74 321,72.4 314.6,66 321,59.6 319.4,58 313,64.4 306.6,58 305,59.6 311.4,66 305,72.4
		306.6,74 313,67.6 	"/>
</g>
<g>
	<polygon fill="#3E3832" points="318.1,115 321,112.1 315.9,107 321,101.9 318.1,99 313,104.1 307.9,99 305,101.9 310.1,107
		305,112.1 307.9,115 313,109.9 	"/>
</g>
<g>
	<polygon fill="#3E3832" points="311.2,33 314.8,33 314.8,26.8 321,26.8 321,23.2 314.8,23.2 314.8,17 311.2,17 311.2,23.2
		305,23.2 305,26.8 311.2,26.8 	"/>
</g>
<g>
	<rect x="305" y="843.2" fill="#3E3832" width="16" height="3.6"/>
</g>
<g>
	<path fill="#3E3832" d="M318,305L318,305v-1h-2v1h-6v-1h-2v1h-3v15h0.8h1h12.4h1.7h0.1v-15H318z M316,306h2v1h-2V306z M308,306h2v1
		h-2V306z M307,318v-9h12v0.3l0,0v8.7H307z"/>
	<polygon fill="#3E3832" points="309,311 309,313 310,313 310,316 312,316 312,311 	"/>
	<polygon fill="#3E3832" points="313,311 313,313 314,313 314,316 316,316 316,311 	"/>
</g>
<polygon id="polygon2995_16_" fill="#3E3832" points="305,595 305,596 306,596 306,597 307,597 307,598 308,598 308,599 309,599
	309,600 310,600 310,601 311,601 311,602 312,602 312,603 314,603 314,602 315,602 315,601 316,601 316,600 317,600 317,599
	318,599 318,598 319,598 319,597 320,597 320,596 321,596 321,595 "/>
<polygon id="polygon2995_15_" fill="#3E3832" points="321,644 321,643 320,643 320,642 319,642 319,641 318,641 318,640 317,640
	317,639 316,639 316,638 315,638 315,637 314,637 314,636 312,636 312,637 311,637 311,638 310,638 310,639 309,639 309,640
	308,640 308,641 307,641 307,642 306,642 306,643 305,643 305,644 "/>
<g>
	<rect x="308" y="428" fill="#3E3832" width="10" height="4"/>
	<rect x="308" y="438" fill="#3E3832" width="10" height="5"/>
	<polygon fill="#3E3832" points="323,433 323,433 319.3,433 307,433 303,433 303,436.8 303,441 307,441 307,437 319,437 319,441
		323,441 323,436.8 323,436.8 	"/>
</g>
<rect x="310" y="194" fill="#3E3832" width="4" height="3"/>
<rect x="310" y="181" fill="#3E3832" width="4" height="11"/>
<polygon fill="#3E3832" points="317,685.1 312.9,681 317,676.9 317,673 309,681 317,689 "/>
<polygon fill="#3E3832" points="309,717.9 313.1,722 309,726.1 309,730 317,722 309,714 "/>
<polygon fill="#3E3832" points="317.1,759 313,763.1 308.9,759 305,759 313,767 321,759 "/>
<polygon fill="#3E3832" points="308.9,808 313,803.9 317.1,808 321,808 313,800 305,808 "/>
<polygon fill="#3E3832" points="318,140 311.1,152.2 308,147 305,147 310,156 313,156 321,140 "/>
<path fill="#3E3832" d="M315.3,230.5c1.3-2.2,1-5-0.8-6.8c-1.1-1.1-2.4-1.6-3.9-1.6c-1.5,0-2.9,0.6-3.9,1.6
	c-1.1,1.1-1.6,2.4-1.6,3.9c0,1.5,0.6,2.9,1.6,3.9c1.1,1.1,2.4,1.6,3.9,1.6c1,0,2-0.3,2.9-0.8l5.7,5.7l1.9-1.9L315.3,230.5z
	 M313.4,230.4c-0.8,0.8-1.8,1.2-2.8,1.2c-1.1,0-2.1-0.4-2.8-1.2c-0.8-0.8-1.2-1.8-1.2-2.8c0-1.1,0.4-2.1,1.2-2.8
	c0.8-0.8,1.8-1.2,2.8-1.2c1.1,0,2.1,0.4,2.8,1.2c0.8,0.8,1.2,1.8,1.2,2.8C314.6,228.6,314.2,229.6,313.4,230.4z"/>
<polygon fill="#3E3832" points="319,389 316,389 316,386 "/>
<g id="XMLID_8_">
	<path fill="#3E3832" d="M314,394.2c0,0.5-0.2,0.9-0.5,1.2s-0.8,0.5-1.2,0.5c-0.5,0-0.9-0.2-1.2-0.5c-0.3-0.3-0.5-0.8-0.5-1.2
		c0-0.5,0.2-0.9,0.5-1.2c0.3-0.3,0.8-0.5,1.2-0.5c0.5,0,0.9,0.2,1.2,0.5C313.8,393.3,314,393.8,314,394.2z"/>
	<path fill="#3E3832" d="M317,400l1-1l-3.2-3.2c0.8-1.2,0.6-2.8-0.5-3.8c-0.6-0.6-1.4-0.9-2.2-0.9c-0.8,0-1.6,0.3-2.2,0.9
		c-0.6,0.6-0.9,1.4-0.9,2.2c0,0.8,0.3,1.6,0.9,2.2c0.6,0.6,1.4,0.9,2.2,0.9c0.6,0,1.1-0.2,1.6-0.5L317,400z M319,390v12h-12v-16h8v4
		L319,390z"/>
</g>
<circle fill="#3E3832" cx="313" cy="558" r="3"/>
<g>
	<path fill="#3E3832" d="M313.9,480h-3c0,0-0.3-3.2,2.2-4.9c0.8-0.6,1.8-1.1,1.8-2.1c0-1.8-1-2-2-2c-0.6,0-2,1-2,2h-3c0-2,1-5,5-5
		c1.7,0,5.1,0.4,5.1,3.9c-0.1,2.6-1.3,3.5-2.4,4.3C313.8,477.5,313.9,479,313.9,480z"/>
	<rect x="311" y="481" fill="#3E3832" width="3" height="3"/>
</g>
<g>
	<polygon fill="#3E3832" points="316,523 316,525 310,525 310,523 312,523 312,516 310,516 310,514 315,514 315,523 	"/>
</g>
<circle fill="#3E3832" cx="313" cy="511" r="2"/>
<path fill="#FFFFFF" d="M566,351.7l-7.2,8c-0.8,0.8-1.9,1.3-3.1,1.3h0c-1.3,0-2.5-0.5-3.4-1.5c-1.7-1.9-1.8-5.1-0.1-7l6-6.6l0.9,1
	l-6,6.6c-1,1.2-1.3,3.5,0.1,4.9c0.6,0.7,1.5,1.1,2.4,1.1l0,0c0.8,0,1.6-0.3,2.2-0.9l7.2-8c0.7-0.8,0.9-2.4-0.1-3.5
	c-0.9-1-2.5-0.9-3.2-0.1l-4.9,5.4c-0.4,0.4-0.6,0.8-0.6,1.3c0,0.4,0.1,0.8,0.4,1.1c0.3,0.3,0.6,0.5,0.9,0.5h0c0.5,0,0.9-0.3,1.3-0.7
	l3.5-4l0.9,1l-3.5,4c-0.7,0.7-1.5,1.2-2.3,1.2c0,0,0,0,0,0c-0.7,0-1.4-0.3-1.9-0.9c-0.5-0.6-0.8-1.3-0.8-2.1c0-0.8,0.3-1.6,1-2.3
	l4.9-5.4c1.3-1.4,3.7-1.4,5.1,0.1C567.3,347.7,567.4,350.3,566,351.7z"/>
<path fill="#FFFFFF" d="M555,275h8v-1h-8V275z M563,271v-1h-8v1H563z M563,273v-1h-8v1H563z M565,267v12h-12v-16h8v4L565,267z"/>
<polygon fill="#FFFFFF" points="565,266 562,266 562,263 "/>
<g>
	<polygon fill="#FFFFFF" points="565.4,74 567,72.4 560.6,66 567,59.6 565.4,58 559,64.4 552.6,58 551,59.6 557.4,66 551,72.4
		552.6,74 559,67.6 	"/>
</g>
<g>
	<polygon fill="#FFFFFF" points="564.1,115 567,112.1 561.9,107 567,101.9 564.1,99 559,104.1 553.9,99 551,101.9 556.1,107
		551,112.1 553.9,115 559,109.9 	"/>
</g>
<g>
	<polygon fill="#FFFFFF" points="557.2,33 560.8,33 560.8,26.8 567,26.8 567,23.2 560.8,23.2 560.8,17 557.2,17 557.2,23.2
		551,23.2 551,26.8 557.2,26.8 	"/>
</g>
<g>
	<rect x="551" y="843.2" fill="#FFFFFF" width="16" height="3.6"/>
</g>
<g>
	<path fill="#FFFFFF" d="M564,305L564,305v-1h-2v1h-6v-1h-2v1h-3v15h0.8h1h12.4h1.7h0.1v-15H564z M562,306h2v1h-2V306z M554,306h2v1
		h-2V306z M553,318v-9h12v0.3l0,0v8.7H553z"/>
	<polygon fill="#FFFFFF" points="555,311 555,313 556,313 556,316 558,316 558,311 	"/>
	<polygon fill="#FFFFFF" points="559,311 559,313 560,313 560,316 562,316 562,311 	"/>
</g>
<polygon id="polygon2995_28_" fill="#FFFFFF" points="551,595 551,596 552,596 552,597 553,597 553,598 554,598 554,599 555,599
	555,600 556,600 556,601 557,601 557,602 558,602 558,603 560,603 560,602 561,602 561,601 562,601 562,600 563,600 563,599
	564,599 564,598 565,598 565,597 566,597 566,596 567,596 567,595 "/>
<polygon id="polygon2995_27_" fill="#FFFFFF" points="567,644 567,643 566,643 566,642 565,642 565,641 564,641 564,640 563,640
	563,639 562,639 562,638 561,638 561,637 560,637 560,636 558,636 558,637 557,637 557,638 556,638 556,639 555,639 555,640
	554,640 554,641 553,641 553,642 552,642 552,643 551,643 551,644 "/>
<g>
	<rect x="554" y="428" fill="#FFFFFF" width="10" height="4"/>
	<rect x="554" y="438" fill="#FFFFFF" width="10" height="5"/>
	<polygon fill="#FFFFFF" points="569,433 569,433 565.3,433 553,433 549,433 549,436.8 549,441 553,441 553,437 565,437 565,441
		569,441 569,436.8 569,436.8 	"/>
</g>
<rect x="557" y="194" fill="#FFFFFF" width="4" height="3"/>
<rect x="557" y="181" fill="#FFFFFF" width="4" height="11"/>
<polygon fill="#FFFFFF" points="563,685.1 558.9,681 563,676.9 563,673 555,681 563,689 "/>
<polygon fill="#FFFFFF" points="555,717.9 559.1,722 555,726.1 555,730 563,722 555,714 "/>
<polygon fill="#FFFFFF" points="563.1,759 559,763.1 554.9,759 551,759 559,767 567,759 "/>
<polygon fill="#FFFFFF" points="554.9,808 559,803.9 563.1,808 567,808 559,800 551,808 "/>
<polygon fill="#FFFFFF" points="564,140 557.1,152.2 554,147 551,147 556,156 559,156 567,140 "/>
<path fill="#FFFFFF" d="M561.3,230.5c1.3-2.2,1-5-0.8-6.8c-1.1-1.1-2.4-1.6-3.9-1.6c-1.5,0-2.9,0.6-3.9,1.6
	c-1.1,1.1-1.6,2.4-1.6,3.9c0,1.5,0.6,2.9,1.6,3.9c1.1,1.1,2.4,1.6,3.9,1.6c1,0,2-0.3,2.9-0.8l5.7,5.7l1.9-1.9L561.3,230.5z
	 M559.4,230.4c-0.8,0.8-1.8,1.2-2.8,1.2c-1.1,0-2.1-0.4-2.8-1.2c-0.8-0.8-1.2-1.8-1.2-2.8c0-1.1,0.4-2.1,1.2-2.8
	c0.8-0.8,1.8-1.2,2.8-1.2s2.1,0.4,2.8,1.2c0.8,0.8,1.2,1.8,1.2,2.8C560.6,228.6,560.2,229.6,559.4,230.4z"/>
<polygon fill="#FFFFFF" points="565,389 562,389 562,386 "/>
<g id="XMLID_14_">
	<path fill="#FFFFFF" d="M560,394.2c0,0.5-0.2,0.9-0.5,1.2c-0.3,0.3-0.8,0.5-1.2,0.5c-0.5,0-0.9-0.2-1.2-0.5
		c-0.3-0.3-0.5-0.8-0.5-1.2c0-0.5,0.2-0.9,0.5-1.2c0.3-0.3,0.8-0.5,1.2-0.5c0.5,0,0.9,0.2,1.2,0.5C559.8,393.3,560,393.8,560,394.2z
		"/>
	<path fill="#FFFFFF" d="M563,400l1-1l-3.2-3.2c0.8-1.2,0.6-2.8-0.5-3.8c-0.6-0.6-1.4-0.9-2.2-0.9c-0.8,0-1.6,0.3-2.2,0.9
		c-0.6,0.6-0.9,1.4-0.9,2.2c0,0.8,0.3,1.6,0.9,2.2c0.6,0.6,1.4,0.9,2.2,0.9c0.6,0,1.1-0.2,1.6-0.5L563,400z M565,390v12h-12v-16h8v4
		L565,390z"/>
</g>
<circle fill="#FFFFFF" cx="559" cy="558" r="3"/>
<g>
	<path fill="#FFFFFF" d="M559.9,480h-3c0,0-0.3-3.2,2.2-4.9c0.8-0.6,1.8-1.1,1.8-2.1c0-1.8-1-2-2-2c-0.6,0-2,1-2,2h-3c0-2,1-5,5-5
		c1.7,0,5.1,0.4,5.1,3.9c-0.1,2.6-1.3,3.5-2.4,4.3C559.8,477.5,559.9,479,559.9,480z"/>
	<rect x="557" y="481" fill="#FFFFFF" width="3" height="3"/>
</g>
<g>
	<polygon fill="#FFFFFF" points="562,523 562,525 556,525 556,523 558,523 558,516 556,516 556,514 561,514 561,523 	"/>
</g>
<circle fill="#FFFFFF" cx="559" cy="511" r="2"/>
<path fill="#BA3A26" d="M608,351.7l-7.2,8c-0.8,0.8-1.9,1.3-3.1,1.3h0c-1.3,0-2.5-0.5-3.4-1.5c-1.7-1.9-1.8-5.1-0.1-7l6-6.6l0.9,1
	l-6,6.6c-1,1.2-1.3,3.5,0.1,4.9c0.6,0.7,1.5,1.1,2.4,1.1l0,0c0.8,0,1.6-0.3,2.2-0.9l7.2-8c0.7-0.8,0.9-2.4-0.1-3.5
	c-0.9-1-2.5-0.9-3.2-0.1l-4.9,5.4c-0.4,0.4-0.6,0.8-0.6,1.3c0,0.4,0.1,0.8,0.4,1.1c0.3,0.3,0.6,0.5,0.9,0.5h0c0.5,0,0.9-0.3,1.3-0.7
	l3.5-4l0.9,1l-3.5,4c-0.7,0.7-1.5,1.2-2.3,1.2c0,0,0,0,0,0c-0.7,0-1.4-0.3-1.9-0.9c-0.5-0.6-0.8-1.3-0.8-2.1c0-0.8,0.3-1.6,1-2.3
	l4.9-5.4c1.3-1.4,3.7-1.4,5.1,0.1C609.3,347.7,609.4,350.3,608,351.7z"/>
<path fill="#BA3A26" d="M597,275h8v-1h-8V275z M605,271v-1h-8v1H605z M605,273v-1h-8v1H605z M607,267v12h-12v-16h8v4L607,267z"/>
<polygon fill="#BA3A26" points="607,266 604,266 604,263 "/>
<g>
	<polygon fill="#BA3A26" points="607.4,74 609,72.4 602.6,66 609,59.6 607.4,58 601,64.4 594.6,58 593,59.6 599.4,66 593,72.4
		594.6,74 601,67.6 	"/>
</g>
<g>
	<polygon fill="#BA3A26" points="606.1,115 609,112.1 603.9,107 609,101.9 606.1,99 601,104.1 595.9,99 593,101.9 598.1,107
		593,112.1 595.9,115 601,109.9 	"/>
</g>
<g>
	<polygon fill="#BA3A26" points="599.2,33 602.8,33 602.8,26.8 609,26.8 609,23.2 602.8,23.2 602.8,17 599.2,17 599.2,23.2
		593,23.2 593,26.8 599.2,26.8 	"/>
</g>
<g>
	<rect x="593" y="843.2" fill="#BA3A26" width="16" height="3.6"/>
</g>
<g>
	<path fill="#BA3A26" d="M606,305L606,305v-1h-2v1h-6v-1h-2v1h-3v15h0.8h1h12.4h1.7h0.1v-15H606z M604,306h2v1h-2V306z M596,306h2v1
		h-2V306z M595,318v-9h12v0.3l0,0v8.7H595z"/>
	<polygon fill="#BA3A26" points="597,311 597,313 598,313 598,316 600,316 600,311 	"/>
	<polygon fill="#BA3A26" points="601,311 601,313 602,313 602,316 604,316 604,311 	"/>
</g>
<polygon id="polygon2995_30_" fill="#BA3A26" points="593,595 593,596 594,596 594,597 595,597 595,598 596,598 596,599 597,599
	597,600 598,600 598,601 599,601 599,602 600,602 600,603 602,603 602,602 603,602 603,601 604,601 604,600 605,600 605,599
	606,599 606,598 607,598 607,597 608,597 608,596 609,596 609,595 "/>
<polygon id="polygon2995_29_" fill="#BA3A26" points="609,644 609,643 608,643 608,642 607,642 607,641 606,641 606,640 605,640
	605,639 604,639 604,638 603,638 603,637 602,637 602,636 600,636 600,637 599,637 599,638 598,638 598,639 597,639 597,640
	596,640 596,641 595,641 595,642 594,642 594,643 593,643 593,644 "/>
<g>
	<rect x="596" y="428" fill="#BA3A26" width="10" height="4"/>
	<rect x="596" y="438" fill="#BA3A26" width="10" height="5"/>
	<polygon fill="#BA3A26" points="611,433 611,433 607.3,433 595,433 591,433 591,436.8 591,441 595,441 595,437 607,437 607,441
		611,441 611,436.8 611,436.8 	"/>
</g>
<rect x="599" y="194" fill="#BA3A26" width="4" height="3"/>
<rect x="599" y="181" fill="#BA3A26" width="4" height="11"/>
<polygon fill="#BA3A26" points="605,685.1 600.9,681 605,676.9 605,673 597,681 605,689 "/>
<polygon fill="#BA3A26" points="597,717.9 601.1,722 597,726.1 597,730 605,722 597,714 "/>
<polygon fill="#BA3A26" points="605.1,759 601,763.1 596.9,759 593,759 601,767 609,759 "/>
<polygon fill="#BA3A26" points="596.9,808 601,803.9 605.1,808 609,808 601,800 593,808 "/>
<polygon fill="#BA3A26" points="606,140 599.1,152.2 596,147 593,147 598,156 601,156 609,140 "/>
<path fill="#BA3A26" d="M603.3,230.5c1.3-2.2,1-5-0.8-6.8c-1.1-1.1-2.4-1.6-3.9-1.6c-1.5,0-2.9,0.6-3.9,1.6
	c-1.1,1.1-1.6,2.4-1.6,3.9c0,1.5,0.6,2.9,1.6,3.9c1.1,1.1,2.4,1.6,3.9,1.6c1,0,2-0.3,2.9-0.8l5.7,5.7l1.9-1.9L603.3,230.5z
	 M601.4,230.4c-0.8,0.8-1.8,1.2-2.8,1.2c-1.1,0-2.1-0.4-2.8-1.2c-0.8-0.8-1.2-1.8-1.2-2.8c0-1.1,0.4-2.1,1.2-2.8
	c0.8-0.8,1.8-1.2,2.8-1.2s2.1,0.4,2.8,1.2c0.8,0.8,1.2,1.8,1.2,2.8C602.6,228.6,602.2,229.6,601.4,230.4z"/>
<polygon fill="#BA3A26" points="607,389 604,389 604,386 "/>
<g id="XMLID_15_">
	<path fill="#BA3A26" d="M602,394.2c0,0.5-0.2,0.9-0.5,1.2c-0.3,0.3-0.8,0.5-1.2,0.5c-0.5,0-0.9-0.2-1.2-0.5
		c-0.3-0.3-0.5-0.8-0.5-1.2c0-0.5,0.2-0.9,0.5-1.2c0.3-0.3,0.8-0.5,1.2-0.5c0.5,0,0.9,0.2,1.2,0.5C601.8,393.3,602,393.8,602,394.2z
		"/>
	<path fill="#BA3A26" d="M605,400l1-1l-3.2-3.2c0.8-1.2,0.6-2.8-0.5-3.8c-0.6-0.6-1.4-0.9-2.2-0.9c-0.8,0-1.6,0.3-2.2,0.9
		c-0.6,0.6-0.9,1.4-0.9,2.2c0,0.8,0.3,1.6,0.9,2.2c0.6,0.6,1.4,0.9,2.2,0.9c0.6,0,1.1-0.2,1.6-0.5L605,400z M607,390v12h-12v-16h8v4
		L607,390z"/>
</g>
<circle fill="#BA3A26" cx="601" cy="558" r="3"/>
<g>
	<path fill="#BA3A26" d="M601.9,480h-3c0,0-0.3-3.2,2.2-4.9c0.8-0.6,1.8-1.1,1.8-2.1c0-1.8-1-2-2-2c-0.6,0-2,1-2,2h-3c0-2,1-5,5-5
		c1.7,0,5.1,0.4,5.1,3.9c-0.1,2.6-1.3,3.5-2.4,4.3C601.8,477.5,601.9,479,601.9,480z"/>
	<rect x="599" y="481" fill="#BA3A26" width="3" height="3"/>
</g>
<g>
	<polygon fill="#BA3A26" points="604,523 604,525 598,525 598,523 600,523 600,516 598,516 598,514 603,514 603,523 	"/>
</g>
<circle fill="#BA3A26" cx="601" cy="511" r="2"/>
<path fill="#0067C5" d="M361,351.7l-7.2,8c-0.8,0.8-1.9,1.3-3.1,1.3h0c-1.3,0-2.5-0.5-3.4-1.5c-1.7-1.9-1.8-5.1-0.1-7l6-6.6l0.9,1
	l-6,6.6c-1,1.2-1.3,3.5,0.1,4.9c0.6,0.7,1.5,1.1,2.4,1.1l0,0c0.8,0,1.6-0.3,2.2-0.9l7.2-8c0.7-0.8,0.9-2.4-0.1-3.5
	c-0.9-1-2.5-0.9-3.2-0.1l-4.9,5.4c-0.4,0.4-0.6,0.8-0.6,1.3c0,0.4,0.1,0.8,0.4,1.1c0.3,0.3,0.6,0.5,0.9,0.5h0c0.5,0,0.9-0.3,1.3-0.7
	l3.5-4l0.9,1l-3.5,4c-0.7,0.7-1.5,1.2-2.3,1.2c0,0,0,0,0,0c-0.7,0-1.4-0.3-1.9-0.9c-0.5-0.6-0.8-1.3-0.8-2.1c0-0.8,0.3-1.6,1-2.3
	l4.9-5.4c1.3-1.4,3.7-1.4,5.1,0.1C362.3,347.7,362.4,350.3,361,351.7z"/>
<path fill="#0067C5" d="M350,275h8v-1h-8V275z M358,271v-1h-8v1H358z M358,273v-1h-8v1H358z M360,267v12h-12v-16h8v4L360,267z"/>
<polygon fill="#0067C5" points="360,266 357,266 357,263 "/>
<g>
	<polygon fill="#0067C5" points="360.4,74 362,72.4 355.6,66 362,59.6 360.4,58 354,64.4 347.6,58 346,59.6 352.4,66 346,72.4
		347.6,74 354,67.6 	"/>
</g>
<g>
	<polygon fill="#0067C5" points="359.1,115 362,112.1 356.9,107 362,101.9 359.1,99 354,104.1 348.9,99 346,101.9 351.1,107
		346,112.1 348.9,115 354,109.9 	"/>
</g>
<g>
	<polygon fill="#0067C5" points="352.2,33 355.8,33 355.8,26.8 362,26.8 362,23.2 355.8,23.2 355.8,17 352.2,17 352.2,23.2
		346,23.2 346,26.8 352.2,26.8 	"/>
</g>
<g>
	<rect x="346" y="843.2" fill="#0067C5" width="16" height="3.6"/>
</g>
<g>
	<path fill="#0067C5" d="M359,305L359,305v-1h-2v1h-6v-1h-2v1h-3v15h0.8h1h12.4h1.7h0.1v-15H359z M357,306h2v1h-2V306z M349,306h2v1
		h-2V306z M348,318v-9h12v0.3l0,0v8.7H348z"/>
	<polygon fill="#0067C5" points="350,311 350,313 351,313 351,316 353,316 353,311 	"/>
	<polygon fill="#0067C5" points="354,311 354,313 355,313 355,316 357,316 357,311 	"/>
</g>
<polygon id="polygon2995_18_" fill="#0067C5" points="346,595 346,596 347,596 347,597 348,597 348,598 349,598 349,599 350,599
	350,600 351,600 351,601 352,601 352,602 353,602 353,603 355,603 355,602 356,602 356,601 357,601 357,600 358,600 358,599
	359,599 359,598 360,598 360,597 361,597 361,596 362,596 362,595 "/>
<polygon id="polygon2995_17_" fill="#0067C5" points="362,644 362,643 361,643 361,642 360,642 360,641 359,641 359,640 358,640
	358,639 357,639 357,638 356,638 356,637 355,637 355,636 353,636 353,637 352,637 352,638 351,638 351,639 350,639 350,640
	349,640 349,641 348,641 348,642 347,642 347,643 346,643 346,644 "/>
<g>
	<rect x="349" y="428" fill="#0067C5" width="10" height="4"/>
	<rect x="349" y="438" fill="#0067C5" width="10" height="5"/>
	<polygon fill="#0067C5" points="364,433 364,433 360.3,433 348,433 344,433 344,436.8 344,441 348,441 348,437 360,437 360,441
		364,441 364,436.8 364,436.8 	"/>
</g>
<rect x="352" y="194" fill="#0067C5" width="4" height="3"/>
<rect x="352" y="181" fill="#0067C5" width="4" height="11"/>
<polygon fill="#0067C5" points="358,685.1 353.9,681 358,676.9 358,673 350,681 358,689 "/>
<polygon fill="#0067C5" points="350,717.9 354.1,722 350,726.1 350,730 358,722 350,714 "/>
<polygon fill="#0067C5" points="358.1,759 354,763.1 349.9,759 346,759 354,767 362,759 "/>
<polygon fill="#0067C5" points="349.9,808 354,803.9 358.1,808 362,808 354,800 346,808 "/>
<polygon fill="#0067C5" points="359,140 352.1,152.2 349,147 346,147 351,156 354,156 362,140 "/>
<path fill="#0067C5" d="M356.3,230.5c1.3-2.2,1-5-0.8-6.8c-1.1-1.1-2.4-1.6-3.9-1.6c-1.5,0-2.9,0.6-3.9,1.6
	c-1.1,1.1-1.6,2.4-1.6,3.9c0,1.5,0.6,2.9,1.6,3.9c1.1,1.1,2.4,1.6,3.9,1.6c1,0,2-0.3,2.9-0.8l5.7,5.7l1.9-1.9L356.3,230.5z
	 M354.4,230.4c-0.8,0.8-1.8,1.2-2.8,1.2c-1.1,0-2.1-0.4-2.8-1.2c-0.8-0.8-1.2-1.8-1.2-2.8c0-1.1,0.4-2.1,1.2-2.8
	c0.8-0.8,1.8-1.2,2.8-1.2c1.1,0,2.1,0.4,2.8,1.2c0.8,0.8,1.2,1.8,1.2,2.8C355.6,228.6,355.2,229.6,354.4,230.4z"/>
<polygon fill="#0067C5" points="360,389 357,389 357,386 "/>
<g id="XMLID_9_">
	<path fill="#0067C5" d="M355,394.2c0,0.5-0.2,0.9-0.5,1.2s-0.8,0.5-1.2,0.5c-0.5,0-0.9-0.2-1.2-0.5c-0.3-0.3-0.5-0.8-0.5-1.2
		c0-0.5,0.2-0.9,0.5-1.2c0.3-0.3,0.8-0.5,1.2-0.5c0.5,0,0.9,0.2,1.2,0.5C354.8,393.3,355,393.8,355,394.2z"/>
	<path fill="#0067C5" d="M358,400l1-1l-3.2-3.2c0.8-1.2,0.6-2.8-0.5-3.8c-0.6-0.6-1.4-0.9-2.2-0.9c-0.8,0-1.6,0.3-2.2,0.9
		c-0.6,0.6-0.9,1.4-0.9,2.2c0,0.8,0.3,1.6,0.9,2.2c0.6,0.6,1.4,0.9,2.2,0.9c0.6,0,1.1-0.2,1.6-0.5L358,400z M360,390v12h-12v-16h8v4
		L360,390z"/>
</g>
<circle fill="#0067C5" cx="354" cy="558" r="3"/>
<g>
	<path fill="#0067C5" d="M354.9,480h-3c0,0-0.3-3.2,2.2-4.9c0.8-0.6,1.8-1.1,1.8-2.1c0-1.8-1-2-2-2c-0.6,0-2,1-2,2h-3c0-2,1-5,5-5
		c1.7,0,5.1,0.4,5.1,3.9c-0.1,2.6-1.3,3.5-2.4,4.3C354.8,477.5,354.9,479,354.9,480z"/>
	<rect x="352" y="481" fill="#0067C5" width="3" height="3"/>
</g>
<g>
	<polygon fill="#0067C5" points="357,523 357,525 351,525 351,523 353,523 353,516 351,516 351,514 356,514 356,523 	"/>
</g>
<circle fill="#0067C5" cx="354" cy="511" r="2"/>
<path fill="#7F756C" d="M402,351.7l-7.2,8c-0.8,0.8-1.9,1.3-3.1,1.3h0c-1.3,0-2.5-0.5-3.4-1.5c-1.7-1.9-1.8-5.1-0.1-7l6-6.6l0.9,1
	l-6,6.6c-1,1.2-1.3,3.5,0.1,4.9c0.6,0.7,1.5,1.1,2.4,1.1l0,0c0.8,0,1.6-0.3,2.2-0.9l7.2-8c0.7-0.8,0.9-2.4-0.1-3.5
	c-0.9-1-2.5-0.9-3.2-0.1l-4.9,5.4c-0.4,0.4-0.6,0.8-0.6,1.3c0,0.4,0.1,0.8,0.4,1.1c0.3,0.3,0.6,0.5,0.9,0.5h0c0.5,0,0.9-0.3,1.3-0.7
	l3.5-4l0.9,1l-3.5,4c-0.7,0.7-1.5,1.2-2.3,1.2c0,0,0,0,0,0c-0.7,0-1.4-0.3-1.9-0.9c-0.5-0.6-0.8-1.3-0.8-2.1c0-0.8,0.3-1.6,1-2.3
	l4.9-5.4c1.3-1.4,3.7-1.4,5.1,0.1C403.3,347.7,403.4,350.3,402,351.7z"/>
<path fill="#7F756C" d="M391,275h8v-1h-8V275z M399,271v-1h-8v1H399z M399,273v-1h-8v1H399z M401,267v12h-12v-16h8v4L401,267z"/>
<polygon fill="#7F756C" points="401,266 398,266 398,263 "/>
<g>
	<polygon fill="#7F756C" points="401.4,74 403,72.4 396.6,66 403,59.6 401.4,58 395,64.4 388.6,58 387,59.6 393.4,66 387,72.4
		388.6,74 395,67.6 	"/>
</g>
<g>
	<polygon fill="#7F756C" points="400.1,115 403,112.1 397.9,107 403,101.9 400.1,99 395,104.1 389.9,99 387,101.9 392.1,107
		387,112.1 389.9,115 395,109.9 	"/>
</g>
<g>
	<polygon fill="#7F756C" points="393.2,33 396.8,33 396.8,26.8 403,26.8 403,23.2 396.8,23.2 396.8,17 393.2,17 393.2,23.2
		387,23.2 387,26.8 393.2,26.8 	"/>
</g>
<g>
	<rect x="387" y="843.2" fill="#7F756C" width="16" height="3.6"/>
</g>
<g>
	<path fill="#7F756C" d="M400,305L400,305v-1h-2v1h-6v-1h-2v1h-3v15h0.8h1h12.4h1.7h0.1v-15H400z M398,306h2v1h-2V306z M390,306h2v1
		h-2V306z M389,318v-9h12v0.3l0,0v8.7H389z"/>
	<polygon fill="#7F756C" points="391,311 391,313 392,313 392,316 394,316 394,311 	"/>
	<polygon fill="#7F756C" points="395,311 395,313 396,313 396,316 398,316 398,311 	"/>
</g>
<polygon id="polygon2995_20_" fill="#7F756C" points="387,595 387,596 388,596 388,597 389,597 389,598 390,598 390,599 391,599
	391,600 392,600 392,601 393,601 393,602 394,602 394,603 396,603 396,602 397,602 397,601 398,601 398,600 399,600 399,599
	400,599 400,598 401,598 401,597 402,597 402,596 403,596 403,595 "/>
<polygon id="polygon2995_19_" fill="#7F756C" points="403,644 403,643 402,643 402,642 401,642 401,641 400,641 400,640 399,640
	399,639 398,639 398,638 397,638 397,637 396,637 396,636 394,636 394,637 393,637 393,638 392,638 392,639 391,639 391,640
	390,640 390,641 389,641 389,642 388,642 388,643 387,643 387,644 "/>
<g>
	<rect x="390" y="428" fill="#7F756C" width="10" height="4"/>
	<rect x="390" y="438" fill="#7F756C" width="10" height="5"/>
	<polygon fill="#7F756C" points="405,433 405,433 401.3,433 389,433 385,433 385,436.8 385,441 389,441 389,437 401,437 401,441
		405,441 405,436.8 405,436.8 	"/>
</g>
<rect x="393" y="194" fill="#7F756C" width="4" height="3"/>
<rect x="393" y="181" fill="#7F756C" width="4" height="11"/>
<polygon fill="#7F756C" points="399,685.1 394.9,681 399,676.9 399,673 391,681 399,689 "/>
<polygon fill="#7F756C" points="391,717.9 395.1,722 391,726.1 391,730 399,722 391,714 "/>
<polygon fill="#7F756C" points="399.1,759 395,763.1 390.9,759 387,759 395,767 403,759 "/>
<polygon fill="#7F756C" points="390.9,808 395,803.9 399.1,808 403,808 395,800 387,808 "/>
<polygon fill="#7F756C" points="400,140 393.1,152.2 390,147 387,147 392,156 395,156 403,140 "/>
<path fill="#7F756C" d="M397.3,230.5c1.3-2.2,1-5-0.8-6.8c-1.1-1.1-2.4-1.6-3.9-1.6c-1.5,0-2.9,0.6-3.9,1.6
	c-1.1,1.1-1.6,2.4-1.6,3.9c0,1.5,0.6,2.9,1.6,3.9c1.1,1.1,2.4,1.6,3.9,1.6c1,0,2-0.3,2.9-0.8l5.7,5.7l1.9-1.9L397.3,230.5z
	 M395.4,230.4c-0.8,0.8-1.8,1.2-2.8,1.2c-1.1,0-2.1-0.4-2.8-1.2c-0.8-0.8-1.2-1.8-1.2-2.8c0-1.1,0.4-2.1,1.2-2.8
	c0.8-0.8,1.8-1.2,2.8-1.2c1.1,0,2.1,0.4,2.8,1.2c0.8,0.8,1.2,1.8,1.2,2.8C396.6,228.6,396.2,229.6,395.4,230.4z"/>
<polygon fill="#7F756C" points="401,389 398,389 398,386 "/>
<g id="XMLID_10_">
	<path fill="#7F756C" d="M396,394.2c0,0.5-0.2,0.9-0.5,1.2s-0.8,0.5-1.2,0.5c-0.5,0-0.9-0.2-1.2-0.5c-0.3-0.3-0.5-0.8-0.5-1.2
		c0-0.5,0.2-0.9,0.5-1.2c0.3-0.3,0.8-0.5,1.2-0.5c0.5,0,0.9,0.2,1.2,0.5C395.8,393.3,396,393.8,396,394.2z"/>
	<path fill="#7F756C" d="M399,400l1-1l-3.2-3.2c0.8-1.2,0.6-2.8-0.5-3.8c-0.6-0.6-1.4-0.9-2.2-0.9c-0.8,0-1.6,0.3-2.2,0.9
		c-0.6,0.6-0.9,1.4-0.9,2.2c0,0.8,0.3,1.6,0.9,2.2c0.6,0.6,1.4,0.9,2.2,0.9c0.6,0,1.1-0.2,1.6-0.5L399,400z M401,390v12h-12v-16h8v4
		L401,390z"/>
</g>
<circle fill="#7F756C" cx="395" cy="558" r="3"/>
<g>
	<path fill="#7F756C" d="M395.9,480h-3c0,0-0.3-3.2,2.2-4.9c0.8-0.6,1.8-1.1,1.8-2.1c0-1.8-1-2-2-2c-0.6,0-2,1-2,2h-3c0-2,1-5,5-5
		c1.7,0,5.1,0.4,5.1,3.9c-0.1,2.6-1.3,3.5-2.4,4.3C395.8,477.5,395.9,479,395.9,480z"/>
	<rect x="393" y="481" fill="#7F756C" width="3" height="3"/>
</g>
<g>
	<polygon fill="#7F756C" points="398,523 398,525 392,525 392,523 394,523 394,516 392,516 392,514 397,514 397,523 	"/>
</g>
<circle fill="#7F756C" cx="395" cy="511" r="2"/>
<path fill="#3E3832" d="M443,351.7l-7.2,8c-0.8,0.8-1.9,1.3-3.1,1.3h0c-1.3,0-2.5-0.5-3.4-1.5c-1.7-1.9-1.8-5.1-0.1-7l6-6.6l0.9,1
	l-6,6.6c-1,1.2-1.3,3.5,0.1,4.9c0.6,0.7,1.5,1.1,2.4,1.1l0,0c0.8,0,1.6-0.3,2.2-0.9l7.2-8c0.7-0.8,0.9-2.4-0.1-3.5
	c-0.9-1-2.5-0.9-3.2-0.1l-4.9,5.4c-0.4,0.4-0.6,0.8-0.6,1.3c0,0.4,0.1,0.8,0.4,1.1c0.3,0.3,0.6,0.5,0.9,0.5h0c0.5,0,0.9-0.3,1.3-0.7
	l3.5-4l0.9,1l-3.5,4c-0.7,0.7-1.5,1.2-2.3,1.2c0,0,0,0,0,0c-0.7,0-1.4-0.3-1.9-0.9c-0.5-0.6-0.8-1.3-0.8-2.1c0-0.8,0.3-1.6,1-2.3
	l4.9-5.4c1.3-1.4,3.7-1.4,5.1,0.1C444.3,347.7,444.4,350.3,443,351.7z"/>
<path fill="#3E3832" d="M432,275h8v-1h-8V275z M440,271v-1h-8v1H440z M440,273v-1h-8v1H440z M442,267v12h-12v-16h8v4L442,267z"/>
<polygon fill="#3E3832" points="442,266 439,266 439,263 "/>
<g>
	<polygon fill="#3E3832" points="442.4,74 444,72.4 437.6,66 444,59.6 442.4,58 436,64.4 429.6,58 428,59.6 434.4,66 428,72.4
		429.6,74 436,67.6 	"/>
</g>
<g>
	<polygon fill="#3E3832" points="441.1,115 444,112.1 438.9,107 444,101.9 441.1,99 436,104.1 430.9,99 428,101.9 433.1,107
		428,112.1 430.9,115 436,109.9 	"/>
</g>
<g>
	<polygon fill="#3E3832" points="434.2,33 437.8,33 437.8,26.8 444,26.8 444,23.2 437.8,23.2 437.8,17 434.2,17 434.2,23.2
		428,23.2 428,26.8 434.2,26.8 	"/>
</g>
<g>
	<rect x="428" y="843.2" fill="#3E3832" width="16" height="3.6"/>
</g>
<g>
	<path fill="#3E3832" d="M441,305L441,305v-1h-2v1h-6v-1h-2v1h-3v15h0.8h1h12.4h1.7h0.1v-15H441z M439,306h2v1h-2V306z M431,306h2v1
		h-2V306z M430,318v-9h12v0.3l0,0v8.7H430z"/>
	<polygon fill="#3E3832" points="432,311 432,313 433,313 433,316 435,316 435,311 	"/>
	<polygon fill="#3E3832" points="436,311 436,313 437,313 437,316 439,316 439,311 	"/>
</g>
<polygon id="polygon2995_22_" fill="#3E3832" points="428,595 428,596 429,596 429,597 430,597 430,598 431,598 431,599 432,599
	432,600 433,600 433,601 434,601 434,602 435,602 435,603 437,603 437,602 438,602 438,601 439,601 439,600 440,600 440,599
	441,599 441,598 442,598 442,597 443,597 443,596 444,596 444,595 "/>
<polygon id="polygon2995_21_" fill="#3E3832" points="444,644 444,643 443,643 443,642 442,642 442,641 441,641 441,640 440,640
	440,639 439,639 439,638 438,638 438,637 437,637 437,636 435,636 435,637 434,637 434,638 433,638 433,639 432,639 432,640
	431,640 431,641 430,641 430,642 429,642 429,643 428,643 428,644 "/>
<g>
	<rect x="431" y="428" fill="#3E3832" width="10" height="4"/>
	<rect x="431" y="438" fill="#3E3832" width="10" height="5"/>
	<polygon fill="#3E3832" points="446,433 446,433 442.3,433 430,433 426,433 426,436.8 426,441 430,441 430,437 442,437 442,441
		446,441 446,436.8 446,436.8 	"/>
</g>
<rect x="434" y="194" fill="#3E3832" width="4" height="3"/>
<rect x="434" y="181" fill="#3E3832" width="4" height="11"/>
<polygon fill="#3E3832" points="440,685.1 435.9,681 440,676.9 440,673 432,681 440,689 "/>
<polygon fill="#3E3832" points="432,717.9 436.1,722 432,726.1 432,730 440,722 432,714 "/>
<polygon fill="#3E3832" points="440.1,759 436,763.1 431.9,759 428,759 436,767 444,759 "/>
<polygon fill="#3E3832" points="431.9,808 436,803.9 440.1,808 444,808 436,800 428,808 "/>
<polygon fill="#3E3832" points="441,140 434.1,152.2 431,147 428,147 433,156 436,156 444,140 "/>
<path fill="#3E3832" d="M438.3,230.5c1.3-2.2,1-5-0.8-6.8c-1.1-1.1-2.4-1.6-3.9-1.6c-1.5,0-2.9,0.6-3.9,1.6
	c-1.1,1.1-1.6,2.4-1.6,3.9c0,1.5,0.6,2.9,1.6,3.9c1.1,1.1,2.4,1.6,3.9,1.6c1,0,2-0.3,2.9-0.8l5.7,5.7l1.9-1.9L438.3,230.5z
	 M436.4,230.4c-0.8,0.8-1.8,1.2-2.8,1.2c-1.1,0-2.1-0.4-2.8-1.2c-0.8-0.8-1.2-1.8-1.2-2.8c0-1.1,0.4-2.1,1.2-2.8
	c0.8-0.8,1.8-1.2,2.8-1.2c1.1,0,2.1,0.4,2.8,1.2c0.8,0.8,1.2,1.8,1.2,2.8C437.6,228.6,437.2,229.6,436.4,230.4z"/>
<polygon fill="#3E3832" points="442,389 439,389 439,386 "/>
<g id="XMLID_11_">
	<path fill="#3E3832" d="M437,394.2c0,0.5-0.2,0.9-0.5,1.2s-0.8,0.5-1.2,0.5c-0.5,0-0.9-0.2-1.2-0.5c-0.3-0.3-0.5-0.8-0.5-1.2
		c0-0.5,0.2-0.9,0.5-1.2c0.3-0.3,0.8-0.5,1.2-0.5c0.5,0,0.9,0.2,1.2,0.5C436.8,393.3,437,393.8,437,394.2z"/>
	<path fill="#3E3832" d="M440,400l1-1l-3.2-3.2c0.8-1.2,0.6-2.8-0.5-3.8c-0.6-0.6-1.4-0.9-2.2-0.9c-0.8,0-1.6,0.3-2.2,0.9
		c-0.6,0.6-0.9,1.4-0.9,2.2c0,0.8,0.3,1.6,0.9,2.2c0.6,0.6,1.4,0.9,2.2,0.9c0.6,0,1.1-0.2,1.6-0.5L440,400z M442,390v12h-12v-16h8v4
		L442,390z"/>
</g>
<circle fill="#3E3832" cx="436" cy="558" r="3"/>
<g>
	<path fill="#3E3832" d="M436.9,480h-3c0,0-0.3-3.2,2.2-4.9c0.8-0.6,1.8-1.1,1.8-2.1c0-1.8-1-2-2-2c-0.6,0-2,1-2,2h-3c0-2,1-5,5-5
		c1.7,0,5.1,0.4,5.1,3.9c-0.1,2.6-1.3,3.5-2.4,4.3C436.8,477.5,436.9,479,436.9,480z"/>
	<rect x="434" y="481" fill="#3E3832" width="3" height="3"/>
</g>
<g>
	<polygon fill="#3E3832" points="439,523 439,525 433,525 433,523 435,523 435,516 433,516 433,514 438,514 438,523 	"/>
</g>
<circle fill="#3E3832" cx="436" cy="511" r="2"/>
<path fill="#66CBEC" d="M484,351.7l-7.2,8c-0.8,0.8-1.9,1.3-3.1,1.3h0c-1.3,0-2.5-0.5-3.4-1.5c-1.7-1.9-1.8-5.1-0.1-7l6-6.6l0.9,1
	l-6,6.6c-1,1.2-1.3,3.5,0.1,4.9c0.6,0.7,1.5,1.1,2.4,1.1l0,0c0.8,0,1.6-0.3,2.2-0.9l7.2-8c0.7-0.8,0.9-2.4-0.1-3.5
	c-0.9-1-2.5-0.9-3.2-0.1l-4.9,5.4c-0.4,0.4-0.6,0.8-0.6,1.3c0,0.4,0.1,0.8,0.4,1.1c0.3,0.3,0.6,0.5,0.9,0.5h0c0.5,0,0.9-0.3,1.3-0.7
	l3.5-4l0.9,1l-3.5,4c-0.7,0.7-1.5,1.2-2.3,1.2c0,0,0,0,0,0c-0.7,0-1.4-0.3-1.9-0.9c-0.5-0.6-0.8-1.3-0.8-2.1c0-0.8,0.3-1.6,1-2.3
	l4.9-5.4c1.3-1.4,3.7-1.4,5.1,0.1C485.3,347.7,485.4,350.3,484,351.7z"/>
<path fill="#66CBEC" d="M473,275h8v-1h-8V275z M481,271v-1h-8v1H481z M481,273v-1h-8v1H481z M483,267v12h-12v-16h8v4L483,267z"/>
<polygon fill="#66CBEC" points="483,266 480,266 480,263 "/>
<g>
	<polygon fill="#66CBEC" points="483.4,74 485,72.4 478.6,66 485,59.6 483.4,58 477,64.4 470.6,58 469,59.6 475.4,66 469,72.4
		470.6,74 477,67.6 	"/>
</g>
<g>
	<polygon fill="#66CBEC" points="482.1,115 485,112.1 479.9,107 485,101.9 482.1,99 477,104.1 471.9,99 469,101.9 474.1,107
		469,112.1 471.9,115 477,109.9 	"/>
</g>
<g>
	<polygon fill="#66CBEC" points="475.2,33 478.8,33 478.8,26.8 485,26.8 485,23.2 478.8,23.2 478.8,17 475.2,17 475.2,23.2
		469,23.2 469,26.8 475.2,26.8 	"/>
</g>
<g>
	<rect x="469" y="843.2" fill="#66CBEC" width="16" height="3.6"/>
</g>
<g>
	<path fill="#66CBEC" d="M482,305L482,305v-1h-2v1h-6v-1h-2v1h-3v15h0.8h1h12.4h1.7h0.1v-15H482z M480,306h2v1h-2V306z M472,306h2v1
		h-2V306z M471,318v-9h12v0.3l0,0v8.7H471z"/>
	<polygon fill="#66CBEC" points="473,311 473,313 474,313 474,316 476,316 476,311 	"/>
	<polygon fill="#66CBEC" points="477,311 477,313 478,313 478,316 480,316 480,311 	"/>
</g>
<polygon id="polygon2995_24_" fill="#66CBEC" points="469,595 469,596 470,596 470,597 471,597 471,598 472,598 472,599 473,599
	473,600 474,600 474,601 475,601 475,602 476,602 476,603 478,603 478,602 479,602 479,601 480,601 480,600 481,600 481,599
	482,599 482,598 483,598 483,597 484,597 484,596 485,596 485,595 "/>
<polygon id="polygon2995_23_" fill="#66CBEC" points="485,644 485,643 484,643 484,642 483,642 483,641 482,641 482,640 481,640
	481,639 480,639 480,638 479,638 479,637 478,637 478,636 476,636 476,637 475,637 475,638 474,638 474,639 473,639 473,640
	472,640 472,641 471,641 471,642 470,642 470,643 469,643 469,644 "/>
<g>
	<rect x="472" y="428" fill="#66CBEC" width="10" height="4"/>
	<rect x="472" y="438" fill="#66CBEC" width="10" height="5"/>
	<polygon fill="#66CBEC" points="487,433 487,433 483.3,433 471,433 467,433 467,436.8 467,441 471,441 471,437 483,437 483,441
		487,441 487,436.8 487,436.8 	"/>
</g>
<rect x="475" y="194" fill="#66CBEC" width="4" height="3"/>
<rect x="475" y="181" fill="#66CBEC" width="4" height="11"/>
<polygon fill="#66CBEC" points="481,685.1 476.9,681 481,676.9 481,673 473,681 481,689 "/>
<polygon fill="#66CBEC" points="473,717.9 477.1,722 473,726.1 473,730 481,722 473,714 "/>
<polygon fill="#66CBEC" points="481.1,759 477,763.1 472.9,759 469,759 477,767 485,759 "/>
<polygon fill="#66CBEC" points="472.9,808 477,803.9 481.1,808 485,808 477,800 469,808 "/>
<polygon fill="#66CBEC" points="482,140 475.1,152.2 472,147 469,147 474,156 477,156 485,140 "/>
<path fill="#66CBEC" d="M479.3,230.5c1.3-2.2,1-5-0.8-6.8c-1.1-1.1-2.4-1.6-3.9-1.6c-1.5,0-2.9,0.6-3.9,1.6
	c-1.1,1.1-1.6,2.4-1.6,3.9c0,1.5,0.6,2.9,1.6,3.9c1.1,1.1,2.4,1.6,3.9,1.6c1,0,2-0.3,2.9-0.8l5.7,5.7l1.9-1.9L479.3,230.5z
	 M477.4,230.4c-0.8,0.8-1.8,1.2-2.8,1.2c-1.1,0-2.1-0.4-2.8-1.2c-0.8-0.8-1.2-1.8-1.2-2.8c0-1.1,0.4-2.1,1.2-2.8
	c0.8-0.8,1.8-1.2,2.8-1.2c1.1,0,2.1,0.4,2.8,1.2c0.8,0.8,1.2,1.8,1.2,2.8C478.6,228.6,478.2,229.6,477.4,230.4z"/>
<polygon fill="#66CBEC" points="483,389 480,389 480,386 "/>
<g id="XMLID_12_">
	<path fill="#66CBEC" d="M478,394.2c0,0.5-0.2,0.9-0.5,1.2s-0.8,0.5-1.2,0.5c-0.5,0-0.9-0.2-1.2-0.5c-0.3-0.3-0.5-0.8-0.5-1.2
		c0-0.5,0.2-0.9,0.5-1.2c0.3-0.3,0.8-0.5,1.2-0.5c0.5,0,0.9,0.2,1.2,0.5C477.8,393.3,478,393.8,478,394.2z"/>
	<path fill="#66CBEC" d="M481,400l1-1l-3.2-3.2c0.8-1.2,0.6-2.8-0.5-3.8c-0.6-0.6-1.4-0.9-2.2-0.9c-0.8,0-1.6,0.3-2.2,0.9
		c-0.6,0.6-0.9,1.4-0.9,2.2c0,0.8,0.3,1.6,0.9,2.2c0.6,0.6,1.4,0.9,2.2,0.9c0.6,0,1.1-0.2,1.6-0.5L481,400z M483,390v12h-12v-16h8v4
		L483,390z"/>
</g>
<circle fill="#66CBEC" cx="477" cy="558" r="3"/>
<g>
	<path fill="#66CBEC" d="M477.9,480h-3c0,0-0.3-3.2,2.2-4.9c0.8-0.6,1.8-1.1,1.8-2.1c0-1.8-1-2-2-2c-0.6,0-2,1-2,2h-3c0-2,1-5,5-5
		c1.7,0,5.1,0.4,5.1,3.9c-0.1,2.6-1.3,3.5-2.4,4.3C477.8,477.5,477.9,479,477.9,480z"/>
	<rect x="475" y="481" fill="#66CBEC" width="3" height="3"/>
</g>
<g>
	<polygon fill="#66CBEC" points="480,523 480,525 474,525 474,523 476,523 476,516 474,516 474,514 479,514 479,523 	"/>
</g>
<circle fill="#66CBEC" cx="477" cy="511" r="2"/>
<path fill="#1D1D1B" d="M525,351.7l-7.2,8c-0.8,0.8-1.9,1.3-3.1,1.3h0c-1.3,0-2.5-0.5-3.4-1.5c-1.7-1.9-1.8-5.1-0.1-7l6-6.6l0.9,1
	l-6,6.6c-1,1.2-1.3,3.5,0.1,4.9c0.6,0.7,1.5,1.1,2.4,1.1l0,0c0.8,0,1.6-0.3,2.2-0.9l7.2-8c0.7-0.8,0.9-2.4-0.1-3.5
	c-0.9-1-2.5-0.9-3.2-0.1l-4.9,5.4c-0.4,0.4-0.6,0.8-0.6,1.3c0,0.4,0.1,0.8,0.4,1.1c0.3,0.3,0.6,0.5,0.9,0.5h0c0.5,0,0.9-0.3,1.3-0.7
	l3.5-4l0.9,1l-3.5,4c-0.7,0.7-1.5,1.2-2.3,1.2c0,0,0,0,0,0c-0.7,0-1.4-0.3-1.9-0.9c-0.5-0.6-0.8-1.3-0.8-2.1c0-0.8,0.3-1.6,1-2.3
	l4.9-5.4c1.3-1.4,3.7-1.4,5.1,0.1C526.3,347.7,526.4,350.3,525,351.7z"/>
<path d="M514,275h8v-1h-8V275z M522,271v-1h-8v1H522z M522,273v-1h-8v1H522z M524,267v12h-12v-16h8v4L524,267z"/>
<polygon points="524,266 521,266 521,263 "/>
<g>
	<polygon fill="#1D1D1B" points="524.4,74 526,72.4 519.6,66 526,59.6 524.4,58 518,64.4 511.6,58 510,59.6 516.4,66 510,72.4
		511.6,74 518,67.6 	"/>
</g>
<g>
	<polygon fill="#1D1D1B" points="523.1,115 526,112.1 520.9,107 526,101.9 523.1,99 518,104.1 512.9,99 510,101.9 515.1,107
		510,112.1 512.9,115 518,109.9 	"/>
</g>
<g>
	<polygon fill="#1D1D1B" points="516.2,33 519.8,33 519.8,26.8 526,26.8 526,23.2 519.8,23.2 519.8,17 516.2,17 516.2,23.2
		510,23.2 510,26.8 516.2,26.8 	"/>
</g>
<g>
	<rect x="510" y="843.2" fill="#1D1D1B" width="16" height="3.6"/>
</g>
<g>
	<path d="M523,305L523,305v-1h-2v1h-6v-1h-2v1h-3v15h0.8h1h12.4h1.7h0.1v-15H523z M521,306h2v1h-2V306z M513,306h2v1h-2V306z
		 M512,318v-9h12v0.3l0,0v8.7H512z"/>
	<polygon points="514,311 514,313 515,313 515,316 517,316 517,311 	"/>
	<polygon points="518,311 518,313 519,313 519,316 521,316 521,311 	"/>
</g>
<polygon id="polygon2995_26_" points="510,595 510,596 511,596 511,597 512,597 512,598 513,598 513,599 514,599 514,600 515,600
	515,601 516,601 516,602 517,602 517,603 519,603 519,602 520,602 520,601 521,601 521,600 522,600 522,599 523,599 523,598
	524,598 524,597 525,597 525,596 526,596 526,595 "/>
<polygon id="polygon2995_25_" points="526,644 526,643 525,643 525,642 524,642 524,641 523,641 523,640 522,640 522,639 521,639
	521,638 520,638 520,637 519,637 519,636 517,636 517,637 516,637 516,638 515,638 515,639 514,639 514,640 513,640 513,641
	512,641 512,642 511,642 511,643 510,643 510,644 "/>
<g>
	<rect x="513" y="428" width="10" height="4"/>
	<rect x="513" y="438" width="10" height="5"/>
	<polygon points="528,433 528,433 524.3,433 512,433 508,433 508,436.8 508,441 512,441 512,437 524,437 524,441 528,441 528,436.8
		528,436.8 	"/>
</g>
<rect x="516" y="194" width="4" height="3"/>
<rect x="516" y="181" width="4" height="11"/>
<polygon points="522,685.1 517.9,681 522,676.9 522,673 514,681 522,689 "/>
<polygon points="514,717.9 518.1,722 514,726.1 514,730 522,722 514,714 "/>
<polygon points="522.1,759 518,763.1 513.9,759 510,759 518,767 526,759 "/>
<polygon points="513.9,808 518,803.9 522.1,808 526,808 518,800 510,808 "/>
<polygon points="523,140 516.1,152.2 513,147 510,147 515,156 518,156 526,140 "/>
<path d="M520.3,230.5c1.3-2.2,1-5-0.8-6.8c-1.1-1.1-2.4-1.6-3.9-1.6c-1.5,0-2.9,0.6-3.9,1.6c-1.1,1.1-1.6,2.4-1.6,3.9
	c0,1.5,0.6,2.9,1.6,3.9c1.1,1.1,2.4,1.6,3.9,1.6c1,0,2-0.3,2.9-0.8l5.7,5.7l1.9-1.9L520.3,230.5z M518.4,230.4
	c-0.8,0.8-1.8,1.2-2.8,1.2c-1.1,0-2.1-0.4-2.8-1.2c-0.8-0.8-1.2-1.8-1.2-2.8c0-1.1,0.4-2.1,1.2-2.8c0.8-0.8,1.8-1.2,2.8-1.2
	s2.1,0.4,2.8,1.2c0.8,0.8,1.2,1.8,1.2,2.8C519.6,228.6,519.2,229.6,518.4,230.4z"/>
<polygon points="524,389 521,389 521,386 "/>
<g id="XMLID_13_">
	<path d="M519,394.2c0,0.5-0.2,0.9-0.5,1.2c-0.3,0.3-0.8,0.5-1.2,0.5c-0.5,0-0.9-0.2-1.2-0.5c-0.3-0.3-0.5-0.8-0.5-1.2
		c0-0.5,0.2-0.9,0.5-1.2c0.3-0.3,0.8-0.5,1.2-0.5c0.5,0,0.9,0.2,1.2,0.5C518.8,393.3,519,393.8,519,394.2z"/>
	<path d="M522,400l1-1l-3.2-3.2c0.8-1.2,0.6-2.8-0.5-3.8c-0.6-0.6-1.4-0.9-2.2-0.9c-0.8,0-1.6,0.3-2.2,0.9c-0.6,0.6-0.9,1.4-0.9,2.2
		c0,0.8,0.3,1.6,0.9,2.2c0.6,0.6,1.4,0.9,2.2,0.9c0.6,0,1.1-0.2,1.6-0.5L522,400z M524,390v12h-12v-16h8v4L524,390z"/>
</g>
<circle cx="518" cy="558" r="3"/>
<g>
	<path d="M518.9,480h-3c0,0-0.3-3.2,2.2-4.9c0.8-0.6,1.8-1.1,1.8-2.1c0-1.8-1-2-2-2c-0.6,0-2,1-2,2h-3c0-2,1-5,5-5
		c1.7,0,5.1,0.4,5.1,3.9c-0.1,2.6-1.3,3.5-2.4,4.3C518.8,477.5,518.9,479,518.9,480z"/>
	<rect x="516" y="481" width="3" height="3"/>
</g>
<g>
	<polygon points="521,523 521,525 515,525 515,523 517,523 517,516 515,516 515,514 520,514 520,523 	"/>
</g>
<circle cx="518" cy="511" r="2"/>
</svg>
