<?xml version="1.0" encoding="utf-8"?>
<!-- Generator: Adobe Illustrator 17.1.0, SVG Export Plug-In . SVG Version: 6.00 Build 0)  -->
<!DOCTYPE svg PUBLIC "-//W3C//DTD SVG 1.1//EN" "http://www.w3.org/Graphics/SVG/1.1/DTD/svg11.dtd">
<svg version="1.1" id="Layer_1" xmlns="http://www.w3.org/2000/svg" xmlns:xlink="http://www.w3.org/1999/xlink" x="0px" y="0px"
	 width="32px" height="32px" viewBox="0 0 32 32" enable-background="new 0 0 32 32" xml:space="preserve">
<g id="Layer_3">
	<path fill="#119B48" d="M16,0C7.2,0,0,7.2,0,16c0,8.8,7.2,16,16,16s16-7.2,16-16C32,7.2,24.8,0,16,0z M15.8,5.9
		c1.4,0,2.5,1.1,2.5,2.5c0,1.4-1.1,2.5-2.5,2.5s-2.5-1.1-2.5-2.5C13.2,7,14.4,5.9,15.8,5.9z M19,26h-7v-2h2v-9v0h-2v-2h6v11h1V26z"
		/>
</g>
</svg>
