<?xml version="1.0" encoding="utf-8"?>
<!-- Generator: Adobe Illustrator 17.1.0, SVG Export Plug-In . SVG Version: 6.00 Build 0)  -->
<!DOCTYPE svg PUBLIC "-//W3C//DTD SVG 1.1//EN" "http://www.w3.org/Graphics/SVG/1.1/DTD/svg11.dtd">
<svg version="1.1" id="søknad_copy_2" xmlns="http://www.w3.org/2000/svg" xmlns:xlink="http://www.w3.org/1999/xlink" x="0px"
	 y="0px" width="32px" height="32px" viewBox="0 0 32 32" enable-background="new 0 0 32 32" xml:space="preserve">
<path fill="#F68D27" d="M16,0C7.2,0,0,7.2,0,16c0,8.8,7.2,16,16,16s16-7.2,16-16C32,7.2,24.8,0,16,0z M22,8h-0.8
	c0,0,0.4,6.1-4.8,7.5v0v0.9v0c5.1,1.4,4.8,7.2,4.8,7.5H22v2H10v-1.9h0.8c0-0.3-0.3-6.2,4.8-7.6v0v-0.9v0C10.3,14.1,10.8,8,10.8,8H10
	V6h12V8z"/>
</svg>
