<?xml version="1.0" encoding="utf-8"?>
<!-- Generator: Adobe Illustrator 17.1.0, SVG Export Plug-In . SVG Version: 6.00 Build 0)  -->
<!DOCTYPE svg PUBLIC "-//W3C//DTD SVG 1.1//EN" "http://www.w3.org/Graphics/SVG/1.1/DTD/svg11.dtd">
<svg version="1.1" id="Layer_1" xmlns="http://www.w3.org/2000/svg" xmlns:xlink="http://www.w3.org/1999/xlink" x="0px" y="0px"
	 width="32px" height="32px" viewBox="0 0 32 32" enable-background="new 0 0 32 32" xml:space="preserve">
<g>
	<path fill="#353330" d="M16,0C7.2,0,0,7.2,0,16c0,8.8,7.2,16,16,16c8.8,0,16-7.2,16-16C32,7.2,24.8,0,16,0z M22.3,11H20l0-2.3
		L22.3,11z M23,23H11V8l8,0v4h4V23z"/>
</g>
<polygon fill="#353330" points="14.1,13 13.3,14.5 13,13.8 12.6,13.7 12.6,13.8 13.1,15 13.1,15 13.5,15 14.6,13 "/>
<rect x="15" y="14" fill="#353330" width="6" height="1"/>
<polygon fill="#353330" points="14.1,16 13.3,17.5 13,16.8 12.6,16.7 12.6,16.8 13.1,18 13.1,18 13.5,18 14.6,16 "/>
<rect x="15" y="17" fill="#353330" width="6" height="1"/>
<polygon fill="#353330" points="14.1,19 13.3,20.5 13,19.8 12.6,19.7 12.6,19.8 13.1,21 13.1,21 13.5,21 14.6,19 "/>
<rect x="15" y="20" fill="#353330" width="6" height="1"/>
</svg>
