<?xml version="1.0" encoding="utf-8"?>
<!-- Generator: Adobe Illustrator 17.1.0, SVG Export Plug-In . SVG Version: 6.00 Build 0)  -->
<!DOCTYPE svg PUBLIC "-//W3C//DTD SVG 1.1//EN" "http://www.w3.org/Graphics/SVG/1.1/DTD/svg11.dtd">
<svg version="1.1" id="Layer_3" xmlns="http://www.w3.org/2000/svg" xmlns:xlink="http://www.w3.org/1999/xlink" x="0px" y="0px"
	 width="26px" height="22px" viewBox="0 0 26 22" enable-background="new 0 0 26 22" xml:space="preserve">
<path fill="none" stroke="#333333" stroke-linecap="round" stroke-linejoin="round" stroke-miterlimit="10" d="M13,0.5
	c6.9,0,12.4,4.2,12.4,9.4c0,3.3-2.3,6.2-5.8,7.9l1.2,3.7L16,18.9c-1,0.2-2,0.3-3,0.3C6.1,19.2,0.6,15,0.6,9.8
	C0.6,4.7,6.1,0.5,13,0.5z"/>
<g>
	<path fill="#333333" d="M11.4,11.2c0,0.3,0.1,0.6,0.3,0.8c0.3,0.3,0.7,0.5,1.3,0.5c0.4,0,0.7,0,0.9-0.1c0.4-0.2,0.7-0.4,0.7-0.9
		c0-0.2-0.1-0.4-0.3-0.6c-0.2-0.1-0.6-0.2-1-0.3l-0.8-0.2c-0.8-0.2-1.3-0.4-1.6-0.6C10.2,9.4,10,8.9,10,8.2c0-0.7,0.2-1.2,0.7-1.7
		s1.2-0.7,2.2-0.7c0.8,0,1.5,0.2,2,0.6c0.6,0.4,0.9,1,0.9,1.8h-1.5c0-0.4-0.2-0.8-0.6-1c-0.2-0.1-0.6-0.2-0.9-0.2
		c-0.4,0-0.7,0.1-1,0.2c-0.2,0.2-0.4,0.4-0.4,0.7c0,0.3,0.1,0.5,0.4,0.6c0.2,0.1,0.5,0.2,1,0.3l1.3,0.3c0.6,0.1,1,0.3,1.3,0.5
		c0.4,0.4,0.7,0.9,0.7,1.5c0,0.7-0.3,1.2-0.8,1.7c-0.5,0.4-1.3,0.7-2.2,0.7c-1,0-1.8-0.2-2.3-0.7c-0.6-0.4-0.8-1.1-0.8-1.8H11.4z"/>
</g>
</svg>
