<?xml version="1.0" encoding="utf-8"?>
<!-- Generator: Adobe Illustrator 17.1.0, SVG Export Plug-In . SVG Version: 6.00 Build 0)  -->
<!DOCTYPE svg PUBLIC "-//W3C//DTD SVG 1.1//EN" "http://www.w3.org/Graphics/SVG/1.1/DTD/svg11.dtd">
<svg version="1.1" id="Layer_3" xmlns="http://www.w3.org/2000/svg" xmlns:xlink="http://www.w3.org/1999/xlink" x="0px" y="0px"
	 width="26px" height="22px" viewBox="0 0 26 22" enable-background="new 0 0 26 22" xml:space="preserve">
<path fill="#C30000" d="M13-0.1C5.8-0.1,0,4.3,0,9.7c0,3.5,2.4,6.5,6,8.3l-1.2,3.9l5-2.7c1,0.2,2.1,0.3,3.2,0.3
	c7.1,0,12.9-4.4,12.9-9.8C25.9,4.3,20.1-0.1,13-0.1z M13.9,14.1h-1.8v-1.7h1.8V14.1z M15.5,9.2c-0.1,0.2-0.4,0.5-0.9,0.8l-0.4,0.3
	c-0.2,0.2-0.4,0.4-0.4,0.6c0,0.1-0.1,0.4-0.1,0.7h-1.6c0-0.7,0.1-1.1,0.2-1.4s0.4-0.5,0.8-0.9L13.6,9c0.1-0.1,0.3-0.2,0.3-0.3
	c0.2-0.2,0.2-0.5,0.2-0.7c0-0.3-0.1-0.6-0.3-0.8c-0.2-0.2-0.5-0.4-0.9-0.4c-0.5,0-0.8,0.2-1,0.5c-0.2,0.3-0.3,0.6-0.3,0.9H10
	c0-1.1,0.4-1.9,1.2-2.4c0.5-0.3,1-0.4,1.7-0.4c0.9,0,1.6,0.2,2.2,0.6s0.9,1,0.9,1.9C15.9,8.4,15.8,8.8,15.5,9.2z"/>
</svg>
