<?xml version="1.0" encoding="utf-8"?>
<!-- Generator: Adobe Illustrator 17.1.0, SVG Export Plug-In . SVG Version: 6.00 Build 0)  -->
<!DOCTYPE svg PUBLIC "-//W3C//DTD SVG 1.1//EN" "http://www.w3.org/Graphics/SVG/1.1/DTD/svg11.dtd">
<svg version="1.1" id="Layer_3" xmlns="http://www.w3.org/2000/svg" xmlns:xlink="http://www.w3.org/1999/xlink" x="0px" y="0px"
	 width="26px" height="22px" viewBox="0 0 26 22" enable-background="new 0 0 26 22" xml:space="preserve">
<path fill="none" stroke="#333333" stroke-linecap="round" stroke-linejoin="round" stroke-miterlimit="10" d="M13,0.5
	c6.9,0,12.4,4.2,12.4,9.4c0,3.3-2.3,6.2-5.8,7.9l1.2,3.7L16,18.9c-1,0.2-2,0.3-3,0.3C6.1,19.2,0.6,15,0.6,9.8
	C0.6,4.7,6.1,0.5,13,0.5z"/>
<g>
	<path fill="#333333" d="M14.6,6.2c0.3,0.1,0.5,0.3,0.7,0.5c0.2,0.2,0.3,0.4,0.4,0.6s0.1,0.5,0.1,0.8c0,0.3-0.1,0.7-0.3,1
		c-0.2,0.3-0.5,0.6-0.9,0.7c0.3,0.1,0.6,0.3,0.7,0.6c0.1,0.2,0.2,0.6,0.2,1.1V12c0,0.3,0,0.6,0,0.7c0,0.2,0.1,0.3,0.3,0.4v0.2h-1.7
		c0-0.2-0.1-0.3-0.1-0.4c0-0.2-0.1-0.4-0.1-0.6l0-0.7c0-0.5-0.1-0.8-0.2-0.9c-0.2-0.2-0.4-0.2-0.9-0.2h-1.5v2.8h-1.5V6.1h3.4
		C14,6.1,14.4,6.1,14.6,6.2z M11.5,7.3v1.9h1.6c0.3,0,0.6,0,0.7-0.1c0.3-0.1,0.4-0.4,0.4-0.8c0-0.4-0.1-0.7-0.4-0.9
		c-0.2-0.1-0.4-0.1-0.7-0.1H11.5z"/>
</g>
</svg>
