<?xml version="1.0" encoding="utf-8"?>
<!-- Generator: Adobe Illustrator 17.1.0, SVG Export Plug-In . SVG Version: 6.00 Build 0)  -->
<!DOCTYPE svg PUBLIC "-//W3C//DTD SVG 1.1//EN" "http://www.w3.org/Graphics/SVG/1.1/DTD/svg11.dtd">
<svg version="1.1" id="Layer_3" xmlns="http://www.w3.org/2000/svg" xmlns:xlink="http://www.w3.org/1999/xlink" x="0px" y="0px"
	 width="26px" height="22px" viewBox="0 0 26 22" enable-background="new 0 0 26 22" xml:space="preserve">
<path fill="#333333" d="M13,0C5.9,0,0.1,4.4,0.1,9.8c0,3.3,2.1,6.3,5.7,8.2l-1.1,3.3c-0.1,0.2,0,0.4,0.2,0.5C4.9,21.9,5,22,5.1,22
	c0.1,0,0.2,0,0.2-0.1l4.7-2.5c1,0.2,2,0.3,3,0.3c7.1,0,12.9-4.4,12.9-9.9C25.9,4.4,20.1,0,13,0z M15.3,13c-0.5,0.4-1.3,0.7-2.2,0.7
	c-1,0-1.8-0.2-2.3-0.7c-0.6-0.4-0.8-1.1-0.8-1.8h1.5c0,0.3,0.1,0.6,0.3,0.8c0.3,0.3,0.7,0.5,1.3,0.5c0.4,0,0.7,0,0.9-0.1
	c0.4-0.2,0.7-0.4,0.7-0.9c0-0.2-0.1-0.4-0.3-0.6c-0.2-0.1-0.6-0.2-1-0.3l-0.8-0.2c-0.8-0.2-1.3-0.4-1.6-0.6C10.2,9.4,10,8.9,10,8.2
	c0-0.7,0.2-1.2,0.7-1.7c0.5-0.4,1.2-0.7,2.2-0.7c0.8,0,1.5,0.2,2,0.6s0.9,1,0.9,1.8h-1.5c0-0.4-0.2-0.8-0.6-1
	c-0.2-0.1-0.6-0.2-0.9-0.2c-0.4,0-0.7,0.1-1,0.2c-0.2,0.2-0.4,0.4-0.4,0.7c0,0.3,0.1,0.5,0.4,0.6c0.2,0.1,0.5,0.2,1,0.3l1.3,0.3
	c0.6,0.1,1,0.3,1.3,0.5c0.4,0.4,0.7,0.9,0.7,1.5C16,12,15.8,12.6,15.3,13z"/>
</svg>
