<?xml version="1.0" encoding="utf-8"?>
<!-- Generator: Adobe Illustrator 17.1.0, SVG Export Plug-In . SVG Version: 6.00 Build 0)  -->
<!DOCTYPE svg PUBLIC "-//W3C//DTD SVG 1.1//EN" "http://www.w3.org/Graphics/SVG/1.1/DTD/svg11.dtd">
<svg version="1.1" id="Layer_1" xmlns="http://www.w3.org/2000/svg" xmlns:xlink="http://www.w3.org/1999/xlink" x="0px" y="0px"
	 width="21px" height="21px" viewBox="0 0 21 21" enable-background="new 0 0 21 21" xml:space="preserve">
<path fill="#333333" d="M10.5,0C4.7,0,0,4.7,0,10.5C0,16.3,4.7,21,10.5,21S21,16.3,21,10.5C21,4.7,16.3,0,10.5,0z M6.5,12
	C5.7,12,5,11.3,5,10.5S5.7,9,6.5,9S8,9.7,8,10.5S7.3,12,6.5,12z M10.5,12C9.7,12,9,11.3,9,10.5S9.7,9,10.5,9S12,9.7,12,10.5
	S11.3,12,10.5,12z M14.5,12c-0.8,0-1.5-0.7-1.5-1.5S13.7,9,14.5,9S16,9.7,16,10.5S15.3,12,14.5,12z"/>
</svg>
