<?xml version="1.0" encoding="utf-8"?>
<!-- Generator: Adobe Illustrator 17.0.0, SVG Export Plug-In . SVG Version: 6.00 Build 0)  -->
<!DOCTYPE svg PUBLIC "-//W3C//DTD SVG 1.1//EN" "http://www.w3.org/Graphics/SVG/1.1/DTD/svg11.dtd">
<svg version="1.1" id="Layer_1" xmlns="http://www.w3.org/2000/svg" xmlns:xlink="http://www.w3.org/1999/xlink" x="0px" y="0px"
	 width="250px" height="63.858px" viewBox="-25 -5 250 63.858" enable-background="new -25 -5 250 63.858" xml:space="preserve">
<g>
	<polygon fill="#00AA55" points="99.166,51.829 90.619,51.829 90.619,15.223 78.027,31.812 65.432,15.223 65.432,51.829 
		56.886,51.829 56.886,6.588 68.73,6.588 78.027,19.068 87.325,6.588 99.166,6.588 	"/>
	<path fill="#00AA55" d="M225,34.636V17.631h-8.512v2.183c-1.041-1.179-4.242-2.658-7.692-2.658c-4.223,0-8.786,1.855-11.359,5.306
		c-2.387,3.203-3.687,6.781-3.71,12.175h-0.004c0,0.008,0.004,0.015,0.004,0.022c0,0.018-0.004,0.027-0.004,0.041h0.004
		c0.024,5.394,1.325,8.975,3.71,12.176c2.576,3.45,7.137,5.308,11.359,5.308c3.451,0,6.65-1.479,7.692-2.661v2.183H225V34.636
		L225,34.636z M213.751,43.773c-1.22,1.02-2.631,1.531-4.242,1.531c-2.454,0-7.238-1.822-7.489-10.135c-0.006-0.182,0-0.356,0-0.534
		l0,0c-0.003-0.155-0.006-0.309-0.003-0.469c0.25-8.317,5.037-10.135,7.49-10.135c1.611,0,3.023,0.51,4.243,1.533
		c1.981,1.686,2.923,4.937,2.974,8.866c0,0.067-0.004,0.136-0.006,0.205l0,0c0,0.008,0,0.014,0,0.019c0,0.017,0,0.029,0,0.044h0.003
		c0.004,0.073,0.004,0.141,0.004,0.206C216.674,38.832,215.732,42.084,213.751,43.773z"/>
	<path fill="#00AA55" d="M169.929,34.636V6.656h-8.51v13.157c-1.041-1.179-4.242-2.658-7.695-2.658
		c-4.221,0-8.784,1.855-11.357,5.306c-2.387,3.203-3.686,6.781-3.712,12.175l0,0c0,0.008,0,0.015,0,0.022
		c0,0.018-0.003,0.027-0.003,0.041h0.003c0.027,5.394,1.325,8.975,3.712,12.176c2.572,3.45,7.135,5.308,11.358,5.308
		c3.451,0,6.651-1.479,7.694-2.661v2.183h8.51L169.929,34.636L169.929,34.636z M158.679,43.773c-1.216,1.02-2.631,1.531-4.242,1.531
		c-2.451,0-7.236-1.822-7.49-10.135c-0.004-0.182,0-0.356,0.003-0.534h-0.003c-0.001-0.155-0.004-0.309,0-0.469
		c0.25-8.317,5.037-10.135,7.49-10.135c1.612,0,3.025,0.51,4.242,1.533c1.982,1.686,2.924,4.937,2.974,8.866
		c0.001,0.067-0.003,0.136-0.004,0.205l0,0c0,0.008,0,0.014,0,0.019c0,0.017-0.003,0.029-0.003,0.044h0.003
		c0.001,0.073,0.005,0.141,0.005,0.206C161.604,38.832,160.661,42.084,158.679,43.773z"/>
	<g>
		<rect x="178.629" y="6.742" fill="#00AA55" width="8.509" height="7.746"/>
		<rect x="178.629" y="18.316" fill="#00AA55" width="8.509" height="33.866"/>
	</g>
	<path fill="#00AA55" d="M119.184,52.182c-9.248,0-16.77-7.822-16.77-17.437c0-9.614,7.522-17.438,16.77-17.438
		c9.245,0,16.767,7.824,16.767,17.438C135.95,44.359,128.428,52.182,119.184,52.182z M119.184,23.921
		c-5.244,0-8.956,5.261-8.956,10.874s3.712,10.773,8.956,10.773c5.239,0,8.952-5.334,8.952-10.947
		C128.137,29.012,124.422,23.921,119.184,23.921z"/>
</g>
<path fill="#00AA55" d="M19.719,17.54c-0.548,0-1.064,0.214-1.452,0.602L12.37,24.04l2.9,2.9l4.448-4.447l14.36,14.358
	L16.886,54.044L2.523,39.683l9.818-9.816l-2.899-2.9L-1.827,38.237c-0.8,0.799-0.8,2.102-0.003,2.9l17.263,17.264
	c0.388,0.388,0.903,0.6,1.452,0.6c0.548,0,1.063-0.213,1.452-0.6L38.43,38.303c0.388-0.385,0.602-0.904,0.602-1.453
	c0-0.547-0.214-1.061-0.602-1.449L21.17,18.144C20.781,17.753,20.265,17.541,19.719,17.54z"/>
<g>
	<path fill="#38F484" d="M38.383,15.671L18.287-4.423c-0.385-0.391-0.9-0.6-1.448-0.6c-0.549,0-1.064,0.213-1.452,0.6L-1.827,12.791
		c-0.8,0.798-0.8,2.1,0,2.901l1.823,1.819l-0.003,0.004L18.27,35.789c0.385,0.388,0.9,0.6,1.449,0.6c0.547,0,1.063-0.213,1.448-0.6
		l17.215-17.215c0.389-0.392,0.6-0.905,0.6-1.452C38.983,16.573,38.771,16.057,38.383,15.671z M19.717,31.436L2.523,14.243
		L16.837-0.071l17.194,17.192L19.717,31.436z"/>
	<path fill="#38F484" d="M-5.732,22.492l9.824,9.825l2.904-2.904c-2.524-2.522-5.249-5.249-5.249-5.249l-6.029-6.028
		c-0.391-0.385-0.904-0.598-1.453-0.598c-0.545-0.003-1.06,0.214-1.448,0.598l-5.92,5.923l2.903,2.904L-5.732,22.492z"/>
	<path fill="#38F484" d="M9.893,32.315L6.99,35.219l4.47,4.466L-2.757,53.901L-19.949,36.71l6.842-6.846l-2.901-2.901l-8.295,8.295
		c-0.388,0.391-0.602,0.904-0.602,1.452c0.001,0.549,0.214,1.064,0.602,1.451l20.095,20.095c0.388,0.388,0.903,0.602,1.449,0.602
		c0.549,0,1.065-0.214,1.453-0.602l17.118-17.118c0.799-0.799,0.799-2.102,0-2.901C15.812,38.237,13.263,35.684,9.893,32.315z"/>
</g>
<path fill="#00AA55" d="M-2.855-5.024c-0.548,0.001-1.063,0.213-1.451,0.6L-24.4,15.672c-0.387,0.389-0.6,0.904-0.6,1.452
	c0,0.549,0.214,1.063,0.6,1.451l17.214,17.211c0.388,0.39,0.903,0.603,1.449,0.603c0.548,0,1.064-0.213,1.452-0.603l5.922-5.92
	l-2.9-2.899l-4.471,4.468l-14.314-14.313L-2.855-0.071l14.314,14.314L1.641,24.06l2.9,2.9l11.271-11.267
	c0.799-0.799,0.8-2.102,0-2.9L-1.402-4.423C-1.789-4.811-2.306-5.023-2.855-5.024z"/>
</svg>
