<?xml version="1.0" encoding="utf-8"?>
<!-- Generator: Adobe Illustrator 17.0.0, SVG Export Plug-In . SVG Version: 6.00 Build 0)  -->
<!DOCTYPE svg PUBLIC "-//W3C//DTD SVG 1.1//EN" "http://www.w3.org/Graphics/SVG/1.1/DTD/svg11.dtd">
<svg version="1.1" id="Layer_1" xmlns="http://www.w3.org/2000/svg" xmlns:xlink="http://www.w3.org/1999/xlink" x="0px" y="0px"
	 width="65px" height="65px" viewBox="0 0 65 65" enable-background="new 0 0 65 65" xml:space="preserve">
<path fill="#0FA9E1" d="M32.5,0C14.551,0,0,14.551,0,32.5S14.551,65,32.5,65S65,50.449,65,32.5S50.449,0,32.5,0z M16.002,47
	c-0.036-3.949,0.405-5.896,1.128-7.169c0.776-1.367,1.633-1.819,3.261-2.714c1.56-0.857,7.069-3.388,7.069-3.388v-3.713
	c-2-2.098-2.916-4.352-2.876-7.797c0.053-4.424,2.836-7.258,6.623-7.258c0.025,0,0.097,0.002,0.097,0.002
	c0.025-0.001,0.113-0.002,0.137-0.002c3.787,0,6.654,2.834,6.707,7.258c0.039,3.445-0.688,5.699-2.688,7.797v3.713
	c0,0,2.727,1.373,4.934,2.436l-1.486,1.25l3.763,3.792l-3.763,3.825L40.752,47H16.002z M51.831,44.909l-1.8,1.8l-3.764-3.763
	l-3.763,3.763l-1.801-1.8l3.764-3.763l-3.764-3.763l1.801-1.8l3.763,3.763l3.764-3.763l1.8,1.8l-3.762,3.763L51.831,44.909z"/>
</svg>
