<?xml version="1.0" encoding="utf-8"?>
<!-- Generator: Adobe Illustrator 17.1.0, SVG Export Plug-In . SVG Version: 6.00 Build 0)  -->
<!DOCTYPE svg PUBLIC "-//W3C//DTD SVG 1.1//EN" "http://www.w3.org/Graphics/SVG/1.1/DTD/svg11.dtd">
<svg version="1.1" id="Layer_3" xmlns="http://www.w3.org/2000/svg" xmlns:xlink="http://www.w3.org/1999/xlink" x="0px" y="0px"
	 width="12px" height="12px" viewBox="0 0 12 12" enable-background="new 0 0 12 12" xml:space="preserve">
<path fill="#0067C5" d="M3.9,5.1L0.4,1.6c-0.1-0.1-0.1-0.3,0-0.4c0.1-0.1,0.3-0.1,0.4,0l3.5,3.5l0.3-0.3L1.2,0.9
	C1,0.8,1,0.6,1.2,0.5c0.1-0.1,0.3-0.1,0.4,0L5.1,4l0.4-0.4L2.1,0.3C1.7-0.1,0.9-0.1,0.4,0.4C-0.1,1-0.1,1.7,0.3,2.1l3.3,3.3L3.9,5.1
	z M12,11.4L11,10c0,0-0.1,0-0.3,0.1c0,0,0,0,0,0L7.8,7.1L7.1,7.8l2.9,2.9c0,0,0,0,0,0C10,10.9,9.9,11,9.9,11l1.4,1
	c0.1,0,0.2-0.1,0.4-0.2C11.9,11.6,12,11.4,12,11.4z M8.6,5.7c0.8,0.1,1.6-0.1,2.2-0.8c0.9-0.9,1-2.2,0.4-3.2L9.3,3.6L8.4,2.7
	l1.9-1.9c-1-0.6-2.3-0.5-3.2,0.4C6.4,1.8,6.2,2.6,6.3,3.4C6.2,3.5,6.1,3.6,6,3.7L0.9,8.8c-0.6,0.6-0.6,1.7,0,2.3
	c0.6,0.6,1.7,0.6,2.3,0L8.3,6C8.4,5.9,8.5,5.8,8.6,5.7z M2.6,10.2c-0.2,0.2-0.6,0.2-0.8,0c-0.2-0.2-0.2-0.6,0-0.8
	c0.2-0.2,0.6-0.2,0.8,0C2.8,9.6,2.8,9.9,2.6,10.2z"/>
</svg>
