<?xml version="1.0" encoding="UTF-8" standalone="no"?>
<svg width="26px" height="26px" viewBox="0 0 26 26" version="1.1" xmlns="http://www.w3.org/2000/svg" xmlns:xlink="http://www.w3.org/1999/xlink">
	<!-- Generator: Sketch 40.1 (33804) - http://www.bohemiancoding.com/sketch -->
	<title>Person-hover_neg</title>
	<desc>Created with Sketch.</desc>
	<defs></defs>
	<g id="Page-1" stroke="none" stroke-width="1" fill="none" fill-rule="evenodd">
		<g id="Person-hover_neg" fill="#FFBD66">
			<path d="M17,10.0054113 C17,12.3841991 15.843316,14.4415584 14.1668837,15.3971861 C13.5212674,15.7824675 12.78125,16 12,16 C11.2393663,16 10.5210503,15.8030303 9.88519965,15.4285714 C8.17730035,14.4837662 7,12.4058442 7,10.0054113 C7,6.69155844 9.23958333,4 12,4 C14.7604167,4 17,6.69155844 17,10.0054113" id="Fill-1"></path>
			<path d="M3.466,20.438 C1.229,18.173 0,15.168 0,12 C0,5.386 5.376,0 12,0 C18.634,0 23.904,5.194 24,11.818 L24,12 C24,15.168 22.781,18.163 20.544,20.429 C18.259,22.733 15.226,24 12,24 C10.387,24 8.822,23.683 7.373,23.078 C5.933,22.474 4.608,21.581 3.466,20.438 Z M3.878,19.488 C4.973,18.835 6.624,18.24 8.237,17.664 C8.688,17.501 9.139,17.338 9.581,17.174 L9.59663404,16.2410175 C10.306634,16.6630175 11.151634,16.8940175 12.015634,16.8940175 C12.879634,16.8940175 13.743634,16.6540175 14.501634,16.2030175 L14.486,17.174 C14.918,17.338 15.35,17.491 15.773,17.645 C17.539,18.278 19.085,18.845 20.131,19.469 C22.051,17.376 23.078,14.678 23.04,11.837 C22.954,5.741 18.106,0.96 12,0.96 C5.914,0.96 0.96,5.914 0.96,12 C0.96,14.794 1.997,17.434 3.878,19.488 Z" id="Fill-3"></path>
		</g>
	</g>
</svg>