<?xml version="1.0" encoding="utf-8"?>
<!-- Generator: Adobe Illustrator 16.0.0, SVG Export Plug-In . SVG Version: 6.00 Build 0)  -->
<!DOCTYPE svg PUBLIC "-//W3C//DTD SVG 1.1//EN" "http://www.w3.org/Graphics/SVG/1.1/DTD/svg11.dtd">
<svg version="1.1" id="Layer_1" xmlns="http://www.w3.org/2000/svg" xmlns:xlink="http://www.w3.org/1999/xlink" x="0px" y="0px"
	 width="32px" height="32px" viewBox="0 0 32 32" enable-background="new 0 0 32 32" xml:space="preserve">
<path fill="#0067C5" d="M16,0C7.163,0,0,7.164,0,16c0,8.837,7.163,16,16,16s16-7.163,16-16C32,7.164,24.837,0,16,0z M8.017,22.998
	l0.99-4.004l4.994-3.034L14,14c-0.912-1.108-1.375-2.528-1.375-4.075C12.625,7.458,14,6,16.062,6.022S19.5,7.458,19.5,9.924
	c0,1.547-0.589,3.007-1.5,4.115V16l5.02,2.994l0.97,4.004H8.017z"/>
</svg>
