<?xml version="1.0" encoding="utf-8"?>
<!-- Generator: Adobe Illustrator 16.0.0, SVG Export Plug-In . SVG Version: 6.00 Build 0)  -->
<!DOCTYPE svg PUBLIC "-//W3C//DTD SVG 1.1//EN" "http://www.w3.org/Graphics/SVG/1.1/DTD/svg11.dtd">
<svg version="1.1" id="Layer_1" xmlns="http://www.w3.org/2000/svg" xmlns:xlink="http://www.w3.org/1999/xlink" x="0px" y="0px"
	 width="7px" height="13px" viewBox="0 0 7 13" enable-background="new 0 0 7 13" xml:space="preserve">
<polygon fill="#FFFFFF" points="0,13 1,13 1,12 2,12 2,11 3,11 3,10 4,10 4,9 5,9 5,8 6,8 6,7 7,7 7,6 6,6 6,5 5,5 5,4 4,4 4,3 3,3 
	3,2 2,2 2,1 1,1 1,0 0,0 "/>
</svg>
