<?xml version="1.0" encoding="utf-8"?>
<!-- Generator: Adobe Illustrator 16.0.0, SVG Export Plug-In . SVG Version: 6.00 Build 0)  -->
<!DOCTYPE svg PUBLIC "-//W3C//DTD SVG 1.1//EN" "http://www.w3.org/Graphics/SVG/1.1/DTD/svg11.dtd">
<svg version="1.1" id="Layer_1" xmlns="http://www.w3.org/2000/svg" xmlns:xlink="http://www.w3.org/1999/xlink" x="0px" y="0px"
	 width="34px" height="400px" viewBox="0 0 34 400" enable-background="new 0 0 34 400" xml:space="preserve">
<path fill="#C22026" d="M17,1C8.163,1,1,8.164,1,17c0,8.837,7.163,16,16,16s16-7.163,16-16C33,8.164,25.837,1,17,1z M9.017,23.998
	l0.99-4.004l4.994-3.034L15,15c-0.912-1.107-1.375-2.527-1.375-4.075C13.625,8.458,15,7,17.062,7.021
	c2.063,0.022,3.438,1.438,3.438,3.902c0,1.547-0.589,3.008-1.5,4.115V17l5.021,2.994l0.971,4.004H9.017z"/>
<path fill="#18A8E0" d="M17,366c-8.837,0-16,7.164-16,16c0,8.838,7.163,16,16,16s16-7.162,16-16C33,373.164,25.837,366,17,366z
	 M9.017,388.998l0.99-4.004l4.994-3.033L15,380c-0.912-1.107-1.375-2.527-1.375-4.074c0-2.467,1.375-3.926,3.438-3.904
	c2.063,0.023,3.438,1.439,3.438,3.902c0,1.547-0.589,3.008-1.5,4.115V382l5.021,2.994l0.972,4.004H9.017z"/>
</svg>
