<?xml version="1.0" encoding="utf-8"?>
<!-- Generator: Adobe Illustrator 17.1.0, SVG Export Plug-In . SVG Version: 6.00 Build 0)  -->
<!DOCTYPE svg PUBLIC "-//W3C//DTD SVG 1.1//EN" "http://www.w3.org/Graphics/SVG/1.1/DTD/svg11.dtd">
<svg version="1.1" id="Layer_1" xmlns="http://www.w3.org/2000/svg" xmlns:xlink="http://www.w3.org/1999/xlink" x="0px" y="0px"
	 width="32px" height="32px" viewBox="1 1 32 32" enable-background="new 1 1 32 32" xml:space="preserve">
<g>
	<polygon fill="#35332F" points="23,10 23,10 23,10 	"/>
	<path fill="#35332F" d="M17,1C8.2,1,1,8.2,1,17s7.2,16,16,16s16-7.2,16-16S25.8,1,17,1z M19,23.2l0-2.3h2.3L19,23.2z M18,20v4l-7,0
		V11h11l0,9H18z M24,20h-1V10H13V9h10v0h1V20z"/>
	<rect x="13" y="17" fill="#35332F" width="1" height="1"/>
	<rect x="15" y="17" fill="#35332F" width="5" height="1"/>
	<rect x="13" y="15" fill="#35332F" width="1" height="1"/>
	<rect x="15" y="15" fill="#35332F" width="5" height="1"/>
	<rect x="13" y="13" fill="#35332F" width="1" height="1"/>
	<rect x="15" y="13" fill="#35332F" width="5" height="1"/>
</g>
</svg>
