<?xml version="1.0" encoding="utf-8"?>
<!-- Generator: Adobe Illustrator 17.0.0, SVG Export Plug-In . SVG Version: 6.00 Build 0)  -->
<!DOCTYPE svg PUBLIC "-//W3C//DTD SVG 1.1//EN" "http://www.w3.org/Graphics/SVG/1.1/DTD/svg11.dtd">
<svg version="1.1" id="Layer_1" xmlns="http://www.w3.org/2000/svg" xmlns:xlink="http://www.w3.org/1999/xlink" x="0px" y="0px"
	 width="46px" height="62.49px" viewBox="0 0 46 62.49" enable-background="new 0 0 46 62.49" xml:space="preserve">
<path fill="#A0A0A0" d="M1.997,16.673c0.887-1.478-0.504-3.111,0.487-4.611c-0.677,0.391,0,0-0.677,0.391
	c1.98-1.512,1.574-3.333,3.617-4.755C6.36,7.045,7.48,6.921,6.251,6.096c2.772-1.083,5.095-2.253,7.624-3.491
	c3.48-1.703,7.116-2.494,10.935-2.586c1.818-0.044,3.647-0.019,5.458,0.132c2.768,0.23,5.582,3.376,5.747,6.392
	c0.144,2.633,0.968,4.907,2.509,7.116c1.234,1.769,2.643,4.066,2.487,6.009c-0.272,3.372,0.816,5.517,3.334,7.426
	c1.931,1.463,1.839,1.971,0.093,3.865c-0.375,0.406-0.946,1.258-0.828,1.398c1.498,1.766,0.165,2.666-1.274,3.619
	c1.83,0.843,2.067,1.778,0.813,3.185c-0.408,0.458-0.453,1.509-0.267,2.178c0.584,2.095-0.016,3.259-2.174,3.436
	c-1.298,0.106-2.626,0.064-3.924-0.086l0.015,0.006c0,0-0.024-0.004-0.066-0.011c-0.087-0.01-0.174-0.016-0.26-0.027
	c-0.582-0.075,0.095-0.072-0.408-0.001l-0.206-0.009c-1.381,0.161-2.818,0.578-3.676,2.642c-1.909,4.593,1.007,14.848,1.007,14.848
	H2.21c2.619-3.062,2.962-3.031,6.464-6.109c3.056-2.686,3.504-10.26,3.723-12.365c0.028-0.271,0.042-0.422,0.042-0.422
	c-0.142-3.694-4.759-4.475-4.759-4.475c-2.912-1.563-2.355-2.078-4.617-4.475c-1.714-1.816-1.956-3.004-2.06-5.186
	C0.734,23.46-1.626,22.711,1.997,16.673z"/>
</svg>
