<?xml version="1.0" encoding="utf-8"?>
<!-- Generator: Adobe Illustrator 18.1.1, SVG Export Plug-In . SVG Version: 6.00 Build 0)  -->
<!DOCTYPE svg PUBLIC "-//W3C//DTD SVG 1.1//EN" "http://www.w3.org/Graphics/SVG/1.1/DTD/svg11.dtd">
<svg version="1.1" id="Layer_1" xmlns="http://www.w3.org/2000/svg" xmlns:xlink="http://www.w3.org/1999/xlink" x="0px" y="0px"
	 width="56px" height="24px" viewBox="0 0 56 24" enable-background="new 0 0 56 24" xml:space="preserve">
<g>
	<path fill="#129C4A" d="M43.9,24h-32c-6.6,0-12-5.4-12-12v0c0-6.6,5.4-12,12-12h32c6.6,0,12,5.4,12,12v0C55.9,18.6,50.5,24,43.9,24
		z"/>
</g>
<g>
	<text transform="matrix(1 0 0 1 8.4404 17.0912)" fill="#FFFFFF" font-family="'Arial-BoldMT'" font-size="14">På</text>
</g>
<line fill="#FFFFFF" stroke="#999087" stroke-miterlimit="10" x1="43" y1="9.8" x2="43" y2="15.3"/>
<line fill="#FFFFFF" stroke="#999087" stroke-miterlimit="10" x1="45.3" y1="9.8" x2="45.3" y2="15.3"/>
<line fill="#FFFFFF" stroke="#999087" stroke-miterlimit="10" x1="40.8" y1="9.8" x2="40.8" y2="15.3"/>
<g>
	<circle fill="#575656" cx="43" cy="12.5" r="9.5"/>
	<circle fill="#EFEFEF" cx="43" cy="11.5" r="9.5"/>
</g>
<line fill="#DBDADA" stroke="#C6C6C6" stroke-miterlimit="10" x1="43.1" y1="8.7" x2="43.1" y2="14.3"/>
<line fill="#DBDADA" stroke="#C6C6C6" stroke-miterlimit="10" x1="45.4" y1="8.7" x2="45.4" y2="14.3"/>
<line fill="#DBDADA" stroke="#C6C6C6" stroke-miterlimit="10" x1="40.8" y1="8.7" x2="40.8" y2="14.3"/>
</svg>
