<?xml version="1.0" encoding="utf-8"?>
<!-- Generator: Adobe Illustrator 18.1.1, SVG Export Plug-In . SVG Version: 6.00 Build 0)  -->
<!DOCTYPE svg PUBLIC "-//W3C//DTD SVG 1.1//EN" "http://www.w3.org/Graphics/SVG/1.1/DTD/svg11.dtd">
<svg version="1.1" id="Layer_1" xmlns="http://www.w3.org/2000/svg" xmlns:xlink="http://www.w3.org/1999/xlink" x="0px" y="0px"
	 width="56px" height="24px" viewBox="0 0 56 24" enable-background="new 0 0 56 24" xml:space="preserve">
<g>
	<path fill="#7F756B" d="M44.1,24h-32c-6.6,0-12-5.4-12-12v0c0-6.6,5.4-12,12-12l32,0c6.6,0,12,5.4,12,12v0
		C56.1,18.6,50.7,24,44.1,24z"/>
</g>
<g>
	<text transform="matrix(1 0 0 1 29.946 16.7343)" fill="#FFFFFF" font-family="'Arial-BoldMT'" font-size="12">Av</text>
</g>
<g>
	<line fill="#FFFFFF" stroke="#999087" stroke-miterlimit="10" x1="12" y1="10" x2="12" y2="15.4"/>
	<line fill="#FFFFFF" stroke="#999087" stroke-miterlimit="10" x1="14.3" y1="10" x2="14.3" y2="15.4"/>
	<line fill="#FFFFFF" stroke="#999087" stroke-miterlimit="10" x1="9.8" y1="10" x2="9.8" y2="15.4"/>
	<g>
		<circle fill="#575656" cx="12" cy="12.7" r="9.5"/>
		<circle fill="#EFEFEF" cx="12" cy="11.7" r="9.5"/>
	</g>
	<line fill="#DBDADA" stroke="#C6C6C6" stroke-miterlimit="10" x1="12.1" y1="8.9" x2="12.1" y2="14.5"/>
	<line fill="#DBDADA" stroke="#C6C6C6" stroke-miterlimit="10" x1="14.4" y1="8.9" x2="14.4" y2="14.5"/>
	<line fill="#DBDADA" stroke="#C6C6C6" stroke-miterlimit="10" x1="9.8" y1="8.9" x2="9.8" y2="14.5"/>
</g>
</svg>
