<?xml version="1.0" encoding="utf-8"?>
<!-- Generator: Adobe Illustrator 16.0.0, SVG Export Plug-In . SVG Version: 6.00 Build 0)  -->
<!DOCTYPE svg PUBLIC "-//W3C//DTD SVG 1.1//EN" "http://www.w3.org/Graphics/SVG/1.1/DTD/svg11.dtd">
<svg version="1.1" id="Layer_1" xmlns="http://www.w3.org/2000/svg" xmlns:xlink="http://www.w3.org/1999/xlink" x="0px" y="0px"
	 width="30px" height="30px" viewBox="0 0 30 30" enable-background="new 0 0 30 30" xml:space="preserve">
<path fill="#0067c5" d="M29.487,26.066L18.842,15.422c2.421-3.96,1.816-9.15-1.486-12.452C15.441,1.055,12.895,0,10.187,0
	S4.932,1.055,3.017,2.97c-1.916,1.916-2.97,4.462-2.97,7.17c0,2.709,1.055,5.255,2.97,7.169c1.915,1.915,4.458,2.968,7.167,2.968
	c1.876,0,3.695-0.512,5.285-1.482l10.644,10.646c0.338,0.336,0.807,0.523,1.319,0.523c0.642,0,1.295-0.287,1.794-0.785
	c0.441-0.44,0.716-1,0.773-1.572C30.061,27.005,29.878,26.458,29.487,26.066z M17.52,10.139c0,1.962-0.762,3.805-2.145,5.189
	c-1.384,1.383-3.226,2.146-5.188,2.146c-1.963,0-3.805-0.763-5.189-2.146c-1.383-1.384-2.145-3.227-2.145-5.189
	c0-1.962,0.762-3.804,2.146-5.188c1.384-1.383,3.226-2.146,5.188-2.146s3.804,0.762,5.188,2.146
	C16.758,6.335,17.52,8.177,17.52,10.139z"/>
</svg>
