<?xml version="1.0" encoding="utf-8"?>
<!-- Generator: Adobe Illustrator 16.0.0, SVG Export Plug-In . SVG Version: 6.00 Build 0)  -->
<!DOCTYPE svg PUBLIC "-//W3C//DTD SVG 1.1//EN" "http://www.w3.org/Graphics/SVG/1.1/DTD/svg11.dtd">
<svg version="1.1" id="Layer_1" xmlns="http://www.w3.org/2000/svg" xmlns:xlink="http://www.w3.org/1999/xlink" x="0px" y="0px"
	 width="2400px" height="1200px" viewBox="0 0 2400 1200" enable-background="new 0 0 2400 1200" xml:space="preserve">
<path fill="#C30000" d="M50,434c-8.837,0-16,7.164-16,16s7.163,16,16,16s16-7.164,16-16S58.837,434,50,434z M49.507,459
	c-1.108,0-2.008-0.897-2.008-2.008c0-1.109,0.898-2.01,2.008-2.01c1.108,0,2.009,0.898,2.009,2.01
	C51.516,458.103,50.616,459,49.507,459z M52.406,448.781c-1.057,1.244-1.488,2.354-1.437,3.65l0.026,0.568h-2.923l-0.054-0.703
	c-0.135-1.404,0.352-2.896,1.623-4.437c1.028-1.217,1.354-1.11,1.572-2.329c0.201-1.119-0.699-1.943-2.219-1.97
	c-0.946,0-1.896,0.457-2.574,0.97l-0.812-2.381c0.975-0.623,2.544-1.107,4.248-1.107c3.354,0,4.896,1.947,4.896,4.112
	C54.76,447.104,53.568,447.457,52.406,448.781z"/>
<path fill="#C30000" d="M50,634c-8.837,0-16,7.164-16,16c0,8.837,7.163,16,16,16s16-7.163,16-16C66,641.164,58.837,634,50,634z
	 M42.017,656.998l0.99-4.004l4.994-3.034L48,648c-0.912-1.107-1.375-2.527-1.375-4.075c0-2.467,1.375-3.925,3.438-3.903
	c2.063,0.022,3.438,1.438,3.438,3.902c0,1.547-0.589,3.008-1.5,4.115V650l5.021,2.994l0.971,4.004H42.017z"/>
<g>
	<path fill="#C30000" d="M49.727,1045.279c-0.457-1.273-0.856-1.846-1.297-1.846c-0.091,0-0.18,0.023-0.261,0.07
		c-0.188,0.111-0.277,0.318-0.25,0.573c0.059,0.522,0.626,1.256,1.451,1.562c0.606,1.789,1.093,4.248,1.099,4.272l0.032,0.17v-2.115
		c-0.165-0.677-0.365-1.438-0.589-2.144l0.006,0.001l-0.018-0.048c0.199,0.021,0.399,0.015,0.602-0.014v-0.479
		C50.24,1045.333,49.98,1045.344,49.727,1045.279z M48.375,1044.031c-0.004-0.032-0.009-0.107,0.054-0.139
		c0.012,0,0.262,0.017,0.708,1.125C48.68,1044.727,48.403,1044.296,48.375,1044.031z"/>
	<path fill="#C30000" d="M50.503,1045.288v0.478c0.437-0.061,0.871-0.229,1.29-0.533l-1.066,3.697
		c-0.062-0.271-0.139-0.603-0.223-0.945v2.117l0.146,0.754l2.055-7.123l-0.641,0.654
		C51.555,1044.908,51.027,1045.198,50.503,1045.288z"/>
	<path fill="#C30000" d="M50,1034c-8.836,0-16,7.164-16,16c0,8.837,7.163,16,16,16s16-7.163,16-16C66,1041.164,58.838,1034,50,1034z
		 M52,1058.68c0,0.729-0.595,1.32-1.32,1.32h-1.354c-0.732,0-1.324-0.591-1.324-1.32V1058h4L52,1058.68L52,1058.68z M52,1057h-4v-1
		h4V1057z M53.457,1052.498c-0.566,0.643-1.441,2.002-1.457,2.502h-4c-0.017-0.5-0.587-1.578-1.453-2.502
		c-1.167-1.245-2.537-3.016-2.541-5.624C44,1043.436,46.359,1041,50,1041h0.003c3.642,0,6,2.438,5.995,5.874
		C55.994,1049.616,54.922,1050.835,53.457,1052.498z"/>
</g>
<g>
	<rect x="46" y="847" fill="#C30000" width="1" height="1"/>
	<rect x="48" y="847" fill="#C30000" width="5" height="1"/>
	<rect x="46" y="849" fill="#C30000" width="1" height="0.999"/>
	<rect x="48" y="849" fill="#C30000" width="5" height="0.999"/>
	<rect x="46" y="850.999" fill="#C30000" width="1" height="1"/>
	<rect x="48" y="850.999" fill="#C30000" width="5" height="1"/>
	<polygon fill="#C30000" points="56.006,843.008 56.006,843 55.997,843 	"/>
	<path fill="#C30000" d="M50,834c-8.837,0-16,7.164-16,16c0,8.837,7.163,16,16,16s16-7.163,16-16C66,841.164,58.837,834,50,834z
		 M52.02,856.248l0.006-2.271h2.273L52.02,856.248z M51,853v3.999l-6.997-0.001V844h10.993L55,853H51z M57,852.999h-1v-9.991H46v-1
		h10V842h1V852.999z"/>
</g>
<g>
	<path fill="#C30000" d="M50,234c-8.837,0-16,7.164-16,16c0,8.837,7.163,16,16,16s16-7.163,16-16C66,241.164,58.837,234,50,234z
		 M56.299,245.023h-2.273l-0.006-2.271L56.299,245.023z M56.996,257H45.003v-14.999h7.993v4.021h4V257z"/>
	<rect x="47" y="248" fill="#C30000" width="8" height="1"/>
	<rect x="47" y="250" fill="#C30000" width="8" height="1"/>
	<rect x="47" y="252" fill="#C30000" width="8" height="1"/>
	<rect x="47" y="254" fill="#C30000" width="8" height="1"/>
</g>
<path fill="#14A9E0" d="M1200,434c-8.837,0-16,7.164-16,16s7.163,16,16,16s16-7.164,16-16S1208.837,434,1200,434z M1199.507,459
	c-1.108,0-2.008-0.897-2.008-2.008c0-1.109,0.898-2.01,2.008-2.01s2.009,0.898,2.009,2.01
	C1201.516,458.103,1200.617,459,1199.507,459z M1202.406,448.781c-1.057,1.244-1.488,2.354-1.437,3.65l0.026,0.568h-2.923
	l-0.054-0.703c-0.135-1.404,0.352-2.896,1.623-4.437c1.028-1.217,1.354-1.11,1.572-2.329c0.201-1.119-0.699-1.943-2.219-1.97
	c-0.946,0-1.896,0.457-2.574,0.97l-0.812-2.381c0.975-0.623,2.544-1.107,4.248-1.107c3.354,0,4.896,1.947,4.896,4.112
	C1204.76,447.104,1203.568,447.457,1202.406,448.781z"/>
<path fill="#14A9E0" d="M1200,634c-8.837,0-16,7.164-16,16c0,8.837,7.163,16,16,16s16-7.163,16-16
	C1216,641.164,1208.837,634,1200,634z M1192.017,656.998l0.99-4.004l4.994-3.034L1198,648c-0.912-1.107-1.375-2.527-1.375-4.075
	c0-2.467,1.375-3.925,3.438-3.903c2.063,0.022,3.438,1.438,3.438,3.902c0,1.547-0.589,3.008-1.5,4.115V650l5.021,2.994l0.972,4.004
	H1192.017z"/>
<g>
	<path fill="#14A9E0" d="M1199.727,1045.279c-0.457-1.273-0.856-1.846-1.297-1.846c-0.091,0-0.18,0.023-0.261,0.07
		c-0.188,0.111-0.277,0.318-0.25,0.573c0.059,0.522,0.626,1.256,1.451,1.562c0.606,1.789,1.093,4.248,1.099,4.272l0.032,0.17v-2.115
		c-0.165-0.677-0.365-1.438-0.589-2.144l0.006,0.001l-0.018-0.048c0.199,0.021,0.399,0.015,0.602-0.014v-0.479
		C1200.24,1045.333,1199.98,1045.344,1199.727,1045.279z M1198.375,1044.031c-0.004-0.032-0.008-0.107,0.054-0.139
		c0.012,0,0.262,0.017,0.708,1.125C1198.68,1044.727,1198.403,1044.296,1198.375,1044.031z"/>
	<path fill="#14A9E0" d="M1200.503,1045.288v0.478c0.437-0.061,0.871-0.229,1.29-0.533l-1.066,3.697
		c-0.062-0.271-0.139-0.603-0.223-0.945v2.117l0.146,0.754l2.055-7.123l-0.641,0.654
		C1201.555,1044.908,1201.027,1045.198,1200.503,1045.288z"/>
	<path fill="#14A9E0" d="M1200,1034c-8.836,0-16,7.164-16,16c0,8.837,7.163,16,16,16s16-7.163,16-16
		C1216,1041.164,1208.838,1034,1200,1034z M1202,1058.68c0,0.729-0.595,1.32-1.32,1.32h-1.354c-0.732,0-1.324-0.591-1.324-1.32V1058
		h4L1202,1058.68L1202,1058.68z M1202,1057h-4v-1h4V1057z M1203.457,1052.498c-0.566,0.643-1.441,2.002-1.457,2.502h-4
		c-0.017-0.5-0.587-1.578-1.453-2.502c-1.167-1.245-2.537-3.016-2.541-5.624c-0.006-3.438,2.353-5.874,5.994-5.874h0.003
		c3.642,0,6,2.438,5.995,5.874C1205.994,1049.616,1204.922,1050.835,1203.457,1052.498z"/>
</g>
<g>
	<rect x="1196" y="847" fill="#14A9E0" width="1" height="1"/>
	<rect x="1198" y="847" fill="#14A9E0" width="5" height="1"/>
	<rect x="1196" y="849" fill="#14A9E0" width="1" height="0.999"/>
	<rect x="1198" y="849" fill="#14A9E0" width="5" height="0.999"/>
	<rect x="1196" y="850.999" fill="#14A9E0" width="1" height="1"/>
	<rect x="1198" y="850.999" fill="#14A9E0" width="5" height="1"/>
	<polygon fill="#14A9E0" points="1206.006,843.008 1206.006,843 1205.997,843 	"/>
	<path fill="#14A9E0" d="M1200,834c-8.837,0-16,7.164-16,16c0,8.837,7.163,16,16,16s16-7.163,16-16
		C1216,841.164,1208.837,834,1200,834z M1202.02,856.248l0.006-2.271h2.273L1202.02,856.248z M1201,853v3.999l-6.997-0.001V844
		h10.993l0.004,9H1201z M1207,852.999h-1v-9.991h-10v-1h10V842h1V852.999z"/>
</g>
<g>
	<path fill="#14A9E0" d="M1200,234c-8.837,0-16,7.164-16,16c0,8.837,7.163,16,16,16s16-7.163,16-16
		C1216,241.164,1208.837,234,1200,234z M1206.299,245.023h-2.273l-0.006-2.271L1206.299,245.023z M1206.996,257h-11.993v-14.999
		h7.993v4.021h4V257z"/>
	<rect x="1197" y="248" fill="#14A9E0" width="8" height="1"/>
	<rect x="1197" y="250" fill="#14A9E0" width="8" height="1"/>
	<rect x="1197" y="252" fill="#14A9E0" width="8" height="1"/>
	<rect x="1197" y="254" fill="#14A9E0" width="8" height="1"/>
</g>
<g>
	<g>
		<path fill="#C30000" d="M66.686,18.53c-17.376,0-31.468,14.092-31.468,31.472c0,17.379,14.091,31.468,31.468,31.468
			c17.383,0,31.476-14.089,31.476-31.468C98.161,32.622,84.069,18.53,66.686,18.53z M93.924,48.339l-6.009,14.876
			c-0.21,0.528-0.746,0.528-0.746,0.528h-5.702c0,0-0.534,0-0.746-0.528l-5.417-13.449v8.223h1.722c0,0,0.505,0,0.43,0.397h-0.002
			c-0.006,0.037-1.938,4.829-1.938,4.829c-0.213,0.528-0.745,0.528-0.745,0.528h-4.826c-0.233,0-0.428-0.189-0.428-0.428v-4.62
			l-1.825,4.52c-0.213,0.528-0.75,0.528-0.75,0.528h-0.623c-2.85,0-5.143-1.167-6.536-3.119l-1.048,2.591
			c-0.211,0.528-0.745,0.528-0.745,0.528h-4.728c-0.235,0-0.427-0.189-0.427-0.428v-6.041c0-1.735-0.065-2.323-0.325-2.812
			c-0.127-0.229-0.36-0.425-0.618-0.523c-0.43-0.2-0.664-0.229-1.767-0.229h-1.922v9.605c0,0.239-0.193,0.428-0.426,0.428h-4.932
			c-0.24,0-0.428-0.189-0.428-0.428V53.71h-1.912c-0.465,0-0.262-0.504-0.262-0.504l2.034-5.042c0.14-0.341,0.524-0.341,0.524-0.341
			h4.975c0.233,0,0.426,0.195,0.426,0.427v4.761l1.957-4.847c0.137-0.341,0.526-0.341,0.526-0.341h2.15
			c1.831,0,2.684,0.196,3.632,0.751c0.461,0.295,0.884,0.655,1.177,1.081c0.638,0.868,0.834,1.716,0.875,4.082
			c0.742-3.567,3.125-5.914,6.689-5.914c1.591,0,4.307,1.092,4.307,3.644V48.25c0-0.232,0.195-0.427,0.428-0.427h10.756
			c0,0,0.388,0,0.525,0.341l3.093,9.476l3.098-9.476c0.136-0.341,0.521-0.341,0.521-0.341h5.593
			C93.529,47.823,94.133,47.823,93.924,48.339z M67.179,53.313h-0.906c-1.289,0-2.339,1.05-2.339,2.34s1.05,2.336,2.339,2.336h3.242
			v-2.336C69.515,54.363,68.467,53.313,67.179,53.313z M20,63.744h6.188l6.424-15.92h-6.18L20,63.744z M99.373,63.744h3.37
			l6.351-15.92h-3.37L99.373,63.744z M118.21,47.823l-6.349,15.92h1.789L120,47.823H118.21z"/>
	</g>
</g>
</svg>
