<?xml version="1.0" encoding="utf-8"?>
<!-- Generator: Adobe Illustrator 16.0.0, SVG Export Plug-In . SVG Version: 6.00 Build 0)  -->
<!DOCTYPE svg PUBLIC "-//W3C//DTD SVG 1.1//EN" "http://www.w3.org/Graphics/SVG/1.1/DTD/svg11.dtd">
<svg version="1.1" id="Layer_1" xmlns="http://www.w3.org/2000/svg" xmlns:xlink="http://www.w3.org/1999/xlink" x="0px" y="0px"
	 width="54px" height="500px" viewBox="-54.5 -135 54 500" enable-background="new -54.5 -135 54 500" xml:space="preserve">
<g>
	<polygon fill="#C9C5C3" points="-30,-86.875 -22.002,-86.875 -22.002,-87.872 -29.987,-87.872 	"/>
	<polygon fill="#C9C5C3" points="-29.972,-84.883 -22.004,-84.875 -22.002,-85.848 -29.987,-85.879 	"/>
	<polygon fill="#C9C5C3" points="-29.987,-82.891 -22.002,-82.875 -22.002,-83.854 -29.987,-83.887 	"/>
	<polygon fill="#C9C5C3" points="-29.987,-88.868 -22.002,-88.875 -22.002,-89.864 -30,-89.864 	"/>
	<path fill="#C9C5C3" d="M-27.5-101c-8.837,0-16,7.164-16,16c0,8.837,7.163,16,16,16s16-7.163,16-16
		C-11.5-93.836-18.663-101-27.5-101z M-21.201-89.977h-2.273l-0.006-2.271L-21.201-89.977z M-20.504-78h-11.993v-14.999h7.993v4.021
		h4V-78z"/>
</g>
<path fill="#C9C5C3" d="M-27.5-1c-8.837,0-16,7.164-16,16c0,8.837,7.163,16.001,16,16.001s16-7.164,16-16.001
	C-11.5,6.164-18.663-1-27.5-1z M-27.993,24c-1.108,0-2.008-0.898-2.008-2.009c0-1.108,0.899-2.009,2.008-2.009
	c1.109,0,2.009,0.899,2.009,2.009C-25.984,23.103-26.883,24-27.993,24z M-25.094,13.782c-1.057,1.244-1.489,2.353-1.436,3.65
	L-26.503,18h-2.922l-0.054-0.702c-0.135-1.405,0.351-2.896,1.623-4.437c1.028-1.217,1.354-1.111,1.572-2.33
	c0.201-1.119-0.699-1.942-2.219-1.969c-0.946,0-1.897,0.457-2.574,0.969l-0.81-2.38c0.973-0.623,2.543-1.108,4.248-1.108
	c3.355,0,4.896,1.948,4.896,4.113C-22.74,12.104-23.932,12.457-25.094,13.782z"/>
<path fill="#D8D9D9" d="M-27.5,99c-8.837,0-16,7.164-16,16c0,8.837,7.163,16,16,16s16-7.163,16-16C-11.5,106.164-18.663,99-27.5,99z
	 M-35.483,121.998l0.99-4.004l4.994-3.034L-29.5,113c-0.912-1.107-1.375-2.527-1.375-4.075c0-2.467,1.375-3.925,3.438-3.903
	c2.063,0.022,3.438,1.438,3.438,3.902c0,1.547-0.589,3.008-1.5,4.115V115l5.021,2.994l0.971,4.004H-35.483z"/>
<g>
	<rect x="-30" y="213.625" fill="#C9C5C3" width="1" height="1"/>
	<rect x="-28" y="213.625" fill="#C9C5C3" width="5" height="1"/>
	<rect x="-30" y="215.625" fill="#C9C5C3" width="1" height="0.999"/>
	<rect x="-28" y="215.625" fill="#C9C5C3" width="5" height="0.999"/>
	<rect x="-30" y="217.624" fill="#C9C5C3" width="1" height="1"/>
	<rect x="-28" y="217.624" fill="#C9C5C3" width="5" height="1"/>
	<path fill="#C9C5C3" d="M-27.5,199c-8.837,0-16,7.164-16,16c0,8.837,7.163,16,16,16s16-7.163,16-16
		C-11.5,206.164-18.663,199-27.5,199z M-21.504,221.999h-10.993V209l6.997,0.005V213h4L-21.504,221.999z M-24.48,209.751
		l2.279,2.271h-2.273L-24.48,209.751z M-19.5,220.999h-1v-8.994h-0.004h-1v-1h-0.99v-1H-22.5h-1v-1h-1v-1L-31.503,208v-1h9v1h0.003
		l0.006,0.027V208h1v1l-0.01,0.006h0.01h0.99V210h0.004h1V220.999z"/>
	<rect x="-30" y="211.625" fill="#C9C5C3" width="1" height="1"/>
	<polygon fill="#C9C5C3" points="-26,212.625 -26,211.625 -27,211.625 -28,211.625 -28,212.625 -27,212.625 	"/>
</g>
<g>
	<path fill="#0CA9E0" d="M-28.273,310.279c-0.457-1.273-0.857-1.844-1.297-1.844c-0.091,0-0.18,0.023-0.261,0.07
		c-0.187,0.111-0.277,0.318-0.25,0.573c0.059,0.524,0.626,1.256,1.451,1.562c0.607,1.789,1.093,4.248,1.099,4.272l0.032,0.17v-2.115
		c-0.165-0.677-0.365-1.44-0.589-2.144l0.006,0.001l-0.017-0.048c0.199,0.021,0.399,0.015,0.601-0.012v-0.479
		C-27.76,310.333-28.02,310.344-28.273,310.279z M-29.625,309.031c-0.004-0.032-0.008-0.107,0.054-0.137
		c0.012,0,0.262,0.015,0.708,1.125C-29.32,309.727-29.597,309.296-29.625,309.031z"/>
	<path fill="#0CA9E0" d="M-27.497,310.288v0.478c0.437-0.061,0.871-0.231,1.29-0.535l-1.066,3.699
		c-0.062-0.271-0.139-0.603-0.223-0.947v2.119l0.146,0.752l2.054-7.123l-0.64,0.656C-26.445,309.908-26.973,310.198-27.497,310.288z
		"/>
	<path fill="#0CA9E0" d="M-28,299c-8.836,0-16,7.164-16,16c0,8.837,7.163,16,16,16s16-7.163,16-16C-12,306.164-19.162,299-28,299z
		 M-26,323.68c0,0.729-0.594,1.32-1.32,1.32h-1.354c-0.732,0-1.324-0.591-1.324-1.32V323h4L-26,323.68L-26,323.68z M-26,322h-4v-1h4
		V322z M-24.543,317.498C-25.109,318.141-25.984,319.5-26,320h-4c-0.016-0.5-0.587-1.578-1.453-2.502
		c-1.167-1.245-2.537-3.016-2.541-5.624C-34,308.438-31.641,306-28,306h0.003c3.642,0,6,2.438,5.995,5.874
		C-22.006,314.616-23.078,315.835-24.543,317.498z"/>
</g>
</svg>
