<?xml version="1.0" encoding="utf-8"?>
<!-- Generator: Adobe Illustrator 18.0.0, SVG Export Plug-In . SVG Version: 6.00 Build 0)  -->
<!DOCTYPE svg PUBLIC "-//W3C//DTD SVG 1.1//EN" "http://www.w3.org/Graphics/SVG/1.1/DTD/svg11.dtd">
<svg version="1.1" id="Layer_1" xmlns="http://www.w3.org/2000/svg" xmlns:xlink="http://www.w3.org/1999/xlink" x="0px" y="0px"
	 viewBox="0 0 227.5 229.5" enable-background="new 0 0 227.5 229.5" xml:space="preserve">
<g>
	<path fill="#b7b1a9" d="M104.5,2.5c6.3,0,12.7,0,19,0c4.5,2.3,6.9,5.7,7.4,10.9c0.5,5.3,1.9,10.5,2.5,15.7c0.3,2.9,1.6,4.2,4.3,5.2
		c7.4,3,14.7,6.2,21.7,9.7c2.5,1.3,4,1.3,6.2-0.2c5-3.3,10.1-6.5,15.2-9.6c5.3-3.2,9.7-2.4,13.8,2.1c2.6,2.8,5.2,5.6,7.6,8.6
		c4.2,5.1,4.2,9.1,0.1,14.3c-3.4,4.3-6.7,8.7-10.4,12.8c-2.5,2.7-2.8,5-1.1,8.3c1.8,3.3,2.9,7.1,3.9,10.7c0.8,2.7,1.9,4.1,5,4.5
		c5.3,0.6,10.5,2,15.7,2.5c5.1,0.5,8.6,3,11,7.3c0,6.3,0,12.7,0,19c-2.4,4.6-6.2,6.9-11.5,7.4c-5.3,0.5-10.5,1.5-15.7,2.8
		c-1.6,0.4-3.5,2.1-4.2,3.7c-2.7,5.7-5.1,11.5-7.2,17.5c-0.6,1.6-0.5,4.2,0.4,5.6c3.2,5.1,6.9,9.8,10.3,14.7
		c4.3,6.2,3.9,10-1.4,15.4c-2.2,2.3-4.5,4.5-6.7,6.7c-5.4,5.3-9.3,5.7-15.4,1.4c-4.9-3.4-9.6-7.1-14.7-10.3c-1.4-0.9-3.9-1-5.6-0.4
		c-5.8,2.1-11.3,4.7-17.1,6.8c-2.4,0.9-3.8,1.7-4.1,4.6c-0.6,5.4-2.1,10.8-2.6,16.2c-0.5,5.2-3,8.6-7.4,10.9c-6.3,0-12.7,0-19,0
		c-4.5-2.5-6.8-6.3-7.3-11.5c-0.5-5.3-1.5-10.5-2.8-15.7c-0.4-1.7-2.1-3.5-3.6-4.3c-7.1-3.4-14.4-6.7-21.8-9.7
		c-1.5-0.6-3.9-0.6-5.2,0.1c-5.5,3.1-10.7,6.7-16.1,9.9c-5.2,3.1-9.2,2.5-13.4-1.8c-2.8-2.9-5.4-5.9-7.9-9c-4-4.8-4.1-9-0.3-14
		c3.7-4.7,7.4-9.4,11.3-14c1.7-2,2.1-3.6,0.9-6.2c-2-4.2-3.5-8.6-4.9-13c-0.8-2.5-1.8-3.9-4.7-4.2c-5.3-0.6-10.5-2.1-15.7-2.5
		c-5.3-0.5-9-2.9-11.5-7.4c0-6.3,0-12.7,0-19c2.3-4.4,5.8-6.8,11-7.3c5.6-0.6,11.2-1.6,16.7-2.9c1.5-0.3,3.2-2,3.9-3.4
		c2.6-5.7,4.7-11.7,7.3-17.4c1.2-2.5,1.2-4.1-0.4-6.3c-3.5-4.6-6.9-9.4-10.2-14.2c-3.6-5.1-3.4-9.5,0.8-14c2.8-3,5.8-6,8.8-8.8
		c3.8-3.6,8.4-4,12.8-1.1c3.3,2.2,6.9,4.2,9.7,7c5.4,5.2,10.4,5.9,16.9,1.6c4.7-3.1,12.1-3.4,15-7.3c3.2-4.3,2.8-11.4,3.4-17.3
		C97.8,8.9,99.8,4.9,104.5,2.5z M156.5,115.5c0.3-23-18.3-42.4-41.2-42.8C91.8,72.2,72.5,91,72.2,114.5
		c-0.4,23.1,18.7,42.6,41.7,42.8C137.1,157.6,156.2,138.8,156.5,115.5z"/>
</g>
</svg>
