<?xml version="1.0" encoding="utf-8"?>
<!-- Generator: Adobe Illustrator 17.1.0, SVG Export Plug-In . SVG Version: 6.00 Build 0)  -->
<!DOCTYPE svg PUBLIC "-//W3C//DTD SVG 1.1//EN" "http://www.w3.org/Graphics/SVG/1.1/DTD/svg11.dtd">
<svg version="1.1" id="Layer_1" xmlns="http://www.w3.org/2000/svg" xmlns:xlink="http://www.w3.org/1999/xlink" x="0px" y="0px"
	 width="32px" height="32px" viewBox="0 0 32 32" enable-background="new 0 0 32 32" xml:space="preserve">
<path fill="#767676" d="M16,0C7.2,0,0,7.2,0,16c0,8.8,7.2,16,16,16c8.8,0,16-7.2,16-16C32,7.2,24.8,0,16,0z M23.5,13.1
	c-1,1.7-2.8,3.9-4.8,5.9c-1.7,1.6-3.9,3.4-5.4,4.4c-2,1.3-3.6,0.1-3.6,0.1S9,23.1,8.3,22.3s0-1.5,0-1.5s1.3-1.5,2-2.1
	c0.9-0.9,1.7-0.2,1.7-0.2l1.6,1.4l3.7-3.4l2.9-2.7l-1.5-1.4c0,0-0.9-0.7,0-1.7c0.6-0.7,1.9-2.2,1.9-2.2s0.7-0.8,1.5-0.2
	c0.8,0.6,1.4,1.3,1.4,1.3S24.7,11.1,23.5,13.1z"/>
</svg>
