<?xml version="1.0" encoding="utf-8"?>
<!-- Generator: Adobe Illustrator 16.0.0, SVG Export Plug-In . SVG Version: 6.00 Build 0)  -->
<!DOCTYPE svg PUBLIC "-//W3C//DTD SVG 1.1//EN" "http://www.w3.org/Graphics/SVG/1.1/DTD/svg11.dtd">
<svg version="1.1" id="Layer_1" xmlns="http://www.w3.org/2000/svg" xmlns:xlink="http://www.w3.org/1999/xlink" x="0px" y="0px"
	 width="32px" height="32px" viewBox="0 0 32 32" enable-background="new 0 0 32 32" xml:space="preserve">
<g>
	<path fill="#0067C5" d="M15.226,12.654c-0.456-1.273-0.857-1.843-1.297-1.843c-0.091,0-0.18,0.026-0.261,0.073
		c-0.187,0.111-0.277,0.318-0.25,0.573c0.059,0.528,0.626,1.256,1.451,1.565c0.608,1.789,1.093,4.247,1.099,4.272L16,17.458v-2.115
		c-0.165-0.677-0.365-1.44-0.589-2.144l0.006,0.001l-0.017-0.048c0.2,0.025,0.4,0.015,0.601-0.012v-0.476
		C15.74,12.708,15.481,12.719,15.226,12.654z M13.875,11.406c-0.004-0.032-0.008-0.107,0.054-0.136c0.012,0,0.262,0.014,0.708,1.124
		C14.18,12.101,13.903,11.671,13.875,11.406z"/>
	<path fill="#0067C5" d="M16.003,12.663v0.477c0.437-0.06,0.871-0.234,1.29-0.535l-1.067,3.699
		c-0.061-0.273-0.138-0.602-0.222-0.947v2.119l0.147,0.752l2.053-7.122l-0.64,0.656C17.055,12.283,16.527,12.573,16.003,12.663z"/>
	<path fill="#0067C5" d="M16,0C7.164,0,0,7.164,0,16c0,8.837,7.163,16,16,16c8.837,0,16-7.163,16-16C32,7.164,24.838,0,16,0z
		 M18,24.679C18,25.409,17.406,26,16.68,26h-1.356C14.592,26,14,25.409,14,24.679V24h4V24.679z M18,23h-4v-1h4V23z M19.457,18.498
		C18.891,19.141,18.016,20.5,18,21h-4c-0.016-0.5-0.587-1.578-1.453-2.502c-1.167-1.245-2.537-3.015-2.541-5.624
		C10,9.438,12.359,7,16,7h0.003c3.641,0,6,2.438,5.995,5.874C21.994,15.616,20.922,16.835,19.457,18.498z"/>
</g>
</svg>
