<?xml version="1.0" encoding="utf-8"?>
<!-- Generator: Adobe Illustrator 17.1.0, SVG Export Plug-In . SVG Version: 6.00 Build 0)  -->
<!DOCTYPE svg PUBLIC "-//W3C//DTD SVG 1.1//EN" "http://www.w3.org/Graphics/SVG/1.1/DTD/svg11.dtd">
<svg version="1.1" id="Layer_1" xmlns="http://www.w3.org/2000/svg" xmlns:xlink="http://www.w3.org/1999/xlink" x="0px" y="0px"
	 width="64px" height="64px" viewBox="0 0 64 64" enable-background="new 0 0 64 64" xml:space="preserve">
<g>
	<path fill="#3E3832" d="M29.4,28.4c-0.6,1.3-1.1,2.5-1.7,3.9c0.7,0.4,1.4,0.7,2.1,1.1c-0.1-1.7-0.2-3.4-0.3-5
		C29.5,28.4,29.4,28.4,29.4,28.4z"/>
	<path fill="#3E3832" d="M23.2,24.7c-0.1,0-0.3,0.1-0.3,0.2c-0.7,1.2-1.3,2.5-2,3.7c0.6,0.3,1.2,0.6,1.8,1c0.7-1.7,1.5-3.3,2.2-4.9
		C24.3,24.7,23.7,24.7,23.2,24.7z"/>
	<path fill="#3E3832" d="M32,0C14.3,0,0,14.3,0,32c0,17.7,14.3,32,32,32s32-14.3,32-32C64,14.3,49.7,0,32,0z M28.1,44.2
		c1.9-2.5,3.7-4.8,5.6-7.2c-2.2-1.2-4.4-2.3-6.8-3.6c0,0.4,0,0.5,0.1,0.7c1,3,0.9,6.1,0.9,9.2c0,0.7-0.2,0.9-0.9,0.9
		c-2.2-0.1-1.9-0.3-1.9-1.9c0-0.2,0-0.5,0-0.7c0.2-2.6-0.3-5.2-1.1-7.8c-0.1,0.2-0.3,0.4-0.4,0.6c-1.6,2.8-3.2,5.6-4.8,8.4
		c-0.1,0.2-0.2,0.4-0.4,0.6c-0.5,0.7-0.8,0.8-1.6,0.3c-1.2-0.8-1.2-1.1-0.5-2.3c1.8-3.2,3.7-6.4,5.5-9.6c0.4-0.7,0.4-0.7-0.3-1.1
		c-0.2-0.1-0.5-0.3-0.7-0.4c-0.3-0.2-0.6-0.4-0.9,0c0,0.1-0.2,0.1-0.3,0.1c-0.8-0.1-1.6-1.4-1.2-2.1c0.6-1.2,1.3-2.4,1.9-3.6
		c0.4-0.7,0.8-1.4,1.1-2.1c0.2-0.5,0.6-0.7,1.2-0.7c2.3,0,4.5,0,6.8,0c0.1,0,0.3,0,0.4,0c-0.5-1.8-0.1-3,1.1-3.8
		c1-0.6,2.2-0.5,3,0.2c0.9,0.8,1.3,2.2,0.8,3.3c-0.5,1.2-1.5,1.8-3,1.7c0.2,3.8,0.4,7.5,0.6,11.4c0.6,0.3,1.4,0.8,2.3,1.2
		c0.6-0.7,1.1-1.4,1.7-2.2c0.4-0.5,0.8-0.7,1.4-0.7c1.3,0,2.6,0,3.9,0c0.4,0,0.9,0.2,1.2,0.5c2.6,3.3,5.3,6.7,7.9,10.1
		c0.1,0.1,0.1,0.3,0.3,0.5C43.3,44.2,35.8,44.2,28.1,44.2z"/>
</g>
</svg>
