<?xml version="1.0" encoding="utf-8"?>
<!-- Generator: Adobe Illustrator 17.1.0, SVG Export Plug-In . SVG Version: 6.00 Build 0)  -->
<!DOCTYPE svg PUBLIC "-//W3C//DTD SVG 1.1//EN" "http://www.w3.org/Graphics/SVG/1.1/DTD/svg11.dtd">
<svg version="1.1" id="Layer_1" xmlns="http://www.w3.org/2000/svg" xmlns:xlink="http://www.w3.org/1999/xlink" x="0px" y="0px"
	 width="64px" height="64px" viewBox="0 0 64 64" enable-background="new 0 0 64 64" xml:space="preserve">
<g>
	<path fill="#BDBCBB" d="M29.2,28.6c-0.5,1.2-1.1,2.4-1.6,3.7c0.7,0.3,1.3,0.7,2,1.1c-0.1-1.7-0.2-3.2-0.3-4.8
		C29.2,28.6,29.2,28.6,29.2,28.6z"/>
	<path fill="#BDBCBB" d="M23.3,25.1c-0.1,0-0.3,0.1-0.3,0.2c-0.6,1.2-1.3,2.3-1.9,3.6c0.6,0.3,1.2,0.6,1.8,0.9
		c0.7-1.6,1.4-3.1,2.1-4.7C24.3,25.1,23.8,25.1,23.3,25.1z"/>
	<path fill="#BDBCBB" d="M32,0C14.3,0,0,14.3,0,32c0,17.7,14.3,32,32,32s32-14.3,32-32C64,14.3,49.7,0,32,0z M27.9,43.7
		c1.8-2.4,3.6-4.6,5.4-6.9c-2.1-1.1-4.2-2.2-6.5-3.4c0,0.3,0,0.5,0.1,0.7c1,2.9,0.9,5.9,0.9,8.8c0,0.7-0.2,0.8-0.8,0.8
		c-2.1-0.1-1.8-0.3-1.8-1.9c0-0.2,0-0.5,0-0.7c0.2-2.5-0.3-4.9-1.1-7.4c-0.1,0.2-0.3,0.4-0.4,0.6c-1.5,2.7-3,5.3-4.6,8
		c-0.1,0.2-0.2,0.4-0.3,0.6c-0.5,0.7-0.8,0.7-1.5,0.3c-1.1-0.8-1.2-1-0.5-2.2c1.7-3.1,3.5-6.1,5.2-9.2c0.4-0.7,0.4-0.7-0.3-1
		c-0.2-0.1-0.5-0.2-0.7-0.4c-0.3-0.1-0.5-0.4-0.8,0c0,0.1-0.2,0.1-0.3,0.1c-0.8-0.1-1.5-1.3-1.1-2c0.6-1.1,1.2-2.3,1.8-3.4
		c0.4-0.7,0.7-1.3,1.1-2c0.2-0.5,0.6-0.7,1.1-0.7c2.2,0,4.3,0,6.5,0c0.1,0,0.2,0,0.4,0c-0.4-1.7-0.1-2.9,1-3.6
		c0.9-0.6,2.1-0.5,2.9,0.2c0.9,0.7,1.2,2.1,0.8,3.2c-0.5,1.2-1.4,1.7-2.9,1.6c0.2,3.6,0.4,7.2,0.6,10.9c0.6,0.3,1.4,0.7,2.2,1.2
		c0.5-0.7,1.1-1.4,1.6-2.1c0.3-0.5,0.8-0.7,1.3-0.7c1.2,0,2.5,0,3.7,0c0.4,0,0.9,0.2,1.1,0.5c2.5,3.2,5,6.4,7.5,9.6
		c0.1,0.1,0.1,0.3,0.2,0.5C42.4,43.7,35.3,43.7,27.9,43.7z"/>
</g>
</svg>
