<?xml version="1.0" encoding="utf-8"?>
<!-- Generator: Adobe Illustrator 17.1.0, SVG Export Plug-In . SVG Version: 6.00 Build 0)  -->
<!DOCTYPE svg PUBLIC "-//W3C//DTD SVG 1.1//EN" "http://www.w3.org/Graphics/SVG/1.1/DTD/svg11.dtd">
<svg version="1.1" id="Layer_1" xmlns="http://www.w3.org/2000/svg" xmlns:xlink="http://www.w3.org/1999/xlink" x="0px" y="0px"
	 width="60px" height="60px" viewBox="0 0 60 60" enable-background="new 0 0 60 60" xml:space="preserve">
<g>
	<circle fill="#B7B1A9" cx="19.1" cy="36.2" r="3.6"/>
	<path fill="#B7B1A9" d="M33.4,36.8c-0.3-1.5-1.5-2.5-3.3-2.6c-0.6,0-1.2,0.1-1.9,0.5L28,34.8c-1.5,0.7-2.6,2-2.7,2.2l-9.7,7.8
		c-0.6-0.4-2.5-1.6-4.6-1.3c-1.7,0.3-3.3,1.4-4.3,2.4c-0.9,0.9-2.2,3.2-1,4.3c1.1,1,2.6,0.4,3.6-0.2C9.2,50.2,9,50.4,9,50.7
		c-0.2,0.6-0.2,1.3,0,2c-1.1,0.7-1.7,2-1.7,3.3c0,2.2,1.8,4,4,4s4-1.8,4-4s-1.8-4-4-4c-0.2,0-0.4,0-0.6,0.1c-0.1-0.3,0-0.6,0-0.8
		c0.2-0.7,0.9-1.1,1.2-1.3l4.9,1.8c0.1,0.1,1.3,0.6,2.6,0.6c1.3,0,2.4-0.6,3.2-1.6l0.9,1.8c-1.3,0.7-2.1,2-2.1,3.5c0,2.2,1.8,4,4,4
		s4-1.8,4-4s-1.8-4-4-4c-0.1,0-0.1,0-0.2,0l-1.7-3.4c0.4-1.1,0.7-2.5,1-3.7c0.7-2.8,1.4-5.7,2.7-7.3l0.3-0.4c1-0.9,2-1.4,2.7-1.4
		s1.5,0.3,1.6,1.2c0.1,0.7-0.2,1.7-0.8,1.9c-0.2,0.1-0.4,0.3-0.4,0.5c-0.1,0.2-0.1,0.4,0,0.7c0.2,0.4,0.7,0.6,1.1,0.4
		C33,40,33.7,38.3,33.4,36.8z M11.2,54.3c0.9,0,1.7,0.8,1.7,1.7s-0.8,1.7-1.7,1.7S9.5,56.9,9.5,56S10.2,54.3,11.2,54.3z M25.3,54.2
		c1,0,1.8,0.8,1.8,1.8s-0.8,1.8-1.8,1.8S23.5,57,23.5,56S24.3,54.2,25.3,54.2z"/>
	<circle fill="#B7B1A9" cx="43.6" cy="5.5" r="5.5"/>
	<path fill="#B7B1A9" d="M54.9,35.9c-0.4-3.8-2.5-18.1-3.8-20.3c-1.7-3-5.1-3-5.1-3h-1h-2.9h-1c0,0-3.4,0-5.1,3
		c-1.2,2.2-1.4,10.6-6,17.3c-0.6,0.8-0.8,1.7,0.3,2.4c1.2,0.8,2.6-0.4,3.4-1.5c4.2-5.3,4.4-9.9,4.4-9.9v13.6v0.3v19.3
		c0,1.3,1.1,2.4,2.4,2.4c1.3,0,2.4-1.1,2.4-2.4V37.6l0,0l0,0c0,0,0-0.6,0.6-0.6c0.7,0,0.6,0.6,0.6,0.6l0,0l0,0v19.5
		c0,1.3,1.1,2.4,2.4,2.4c1.3,0,2.4-1.1,2.4-2.4V37.5l0,0V23.9c0,0,2,11.5,2.1,12.3c0.3,1.4,1.1,2.1,2.2,2C54.6,38,55,36.9,54.9,35.9
		z"/>
</g>
</svg>
