<?xml version="1.0" encoding="utf-8"?>
<!-- Generator: Adobe Illustrator 17.1.0, SVG Export Plug-In . SVG Version: 6.00 Build 0)  -->
<!DOCTYPE svg PUBLIC "-//W3C//DTD SVG 1.1//EN" "http://www.w3.org/Graphics/SVG/1.1/DTD/svg11.dtd">
<svg version="1.1" id="Layer_1" xmlns="http://www.w3.org/2000/svg" xmlns:xlink="http://www.w3.org/1999/xlink" x="0px" y="0px"
	 width="60px" height="60px" viewBox="0 0 60 60" enable-background="new 0 0 60 60" xml:space="preserve">
<g>
	<g>
		<circle fill="#0067C5" cx="12.3" cy="17.3" r="5.4"/>
		<path fill="#0067C5" d="M57.9,31.5v13.6h-4.7c2.4-0.6,4-2.8,3.6-5.3L55,28.3c-0.4-2.6-2.8-4.4-5.4-4c-2.6,0.4-4.4,2.8-4,5.4
			l0.3,1.8h-10c-0.9,0-1.6,0.7-1.6,1.6c0,0.8,0.6,1.5,1.4,1.6H24.2c0.8-0.1,1.4-0.7,1.4-1.6c0-0.9-0.7-1.6-1.6-1.6H14l0.3-1.8
			c0.4-2.6-1.4-5-4-5.4s-5,1.4-5.4,4L3.2,39.9c-0.4,2.5,1.2,4.7,3.6,5.3H2.1V31.5H0v13.6v0.8v1.3v10.4h2.8h0.5V47.3h6.8v10.4h3.4
			V45.3h3.7l-1.7,9.4c-0.2,1.4,0.7,2.7,2,2.9c1.4,0.2,2.7-0.7,2.9-2l2.3-12.5c0.1-0.2,0.1-0.5,0.1-0.7c0,0,0,0,0-0.1
			c0-0.7-0.3-1.4-0.8-1.9c-0.6-0.6-1.5-1-2.5-1h-6.6l0.7-4.8h3.9v4.3h8v18.3h0.2h8.9h0.2V38.9h8v-4.3h3.9l0.7,4.8h-6.6
			c-1,0-1.9,0.4-2.5,1c-0.5,0.5-0.8,1.1-0.8,1.9c0,0,0,0,0,0.1c0,0.3,0,0.5,0.1,0.7l2.3,12.5c0.2,1.4,1.6,2.3,2.9,2
			c1.4-0.2,2.3-1.6,2-2.9l-1.7-9.4h3.7v12.4h3.4V47.3H57v10.4h0.5H60V47.3V46v-0.8V31.5H57.9z"/>
		<circle fill="#0067C5" cx="47.7" cy="17.3" r="5.4"/>
	</g>
	<path fill="#0067C5" d="M42.5,10.8c0-3.4-4.1-6.2-9.2-6.2S24,7.4,24,10.8s4.1,6.2,9.3,6.2c0.5,0,0.9,0,1.4-0.1
		c0.6,0.6,2.9,2.5,6,2.3c0,0-2.3-1.4-2-3.4C41,14.7,42.5,12.9,42.5,10.8z"/>
</g>
</svg>
