<?xml version="1.0" encoding="utf-8"?>
<!-- Generator: Adobe Illustrator 17.1.0, SVG Export Plug-In . SVG Version: 6.00 Build 0)  -->
<!DOCTYPE svg PUBLIC "-//W3C//DTD SVG 1.1//EN" "http://www.w3.org/Graphics/SVG/1.1/DTD/svg11.dtd">
<svg version="1.1" id="Layer_1" xmlns="http://www.w3.org/2000/svg" xmlns:xlink="http://www.w3.org/1999/xlink" x="0px" y="0px"
	 width="60px" height="60px" viewBox="0 0 60 60" enable-background="new 0 0 60 60" xml:space="preserve">
<g>
	<ellipse fill="#B7B1A9" cx="8.2" cy="7.9" rx="5.3" ry="5.3"/>
	<ellipse fill="#B7B1A9" cx="20" cy="3" rx="3" ry="3"/>
	<path fill="#B7B1A9" d="M28,10c-0.3-3.1-4-5.8-5.3-3.3s-3.1,1.9-3.1,1.9C18,8,17,9.5,18.4,10.5c0.6,0.4,2.1,0.7,2.8,0.8l0,0
		c-3.2,7.9-8.4,6.4-8.4,6.4l0,0c-0.4-1.8-1.4-3.1-3.6-2.9C2.4,15,2.7,29.4,3.5,32.9s3,3.9,3,3.9c1,4.3,1.7,13.7,0.1,17.7
		s1,5.1,1.5,5.3c0.7,0.2,3.2,1,4.2-2.7c2.4-8.5,1.2-18.4,0.2-22c-1.2-4.4-0.7-7.7-0.4-9.4c0.2-0.9,0.4-2.3,0.6-3.7l0,0
		c7.2-0.7,9.2-5.6,9.2-5.6c-0.2,3,0,6.5,1.7,6.4s1.5-1.9,1.4-2.8s0.6-2.4,1.4-3.8C27.5,14.6,28.3,13.1,28,10z"/>
	<path fill="#B7B1A9" d="M57.1,38.4c0-6.4-5.1-11.6-11.5-11.7v12.1H33.9c0.2,4.9,3.3,9,7.7,10.5l2.8,2.7l-1.2,1.3
		c-0.6-0.4-1.2-0.6-2-0.6c-2,0-3.6,1.6-3.6,3.6s1.6,3.6,3.6,3.6s3.6-1.6,3.6-3.6c0-0.7-0.2-1.4-0.5-1.9l1.3-1.3l1.2,1.2
		c-0.4,0.6-0.6,1.3-0.6,2c0,2,1.6,3.6,3.6,3.6s3.6-1.6,3.6-3.6s-1.6-3.6-3.6-3.6c-0.7,0-1.4,0.2-1.9,0.5L46.6,52l2.4-2.5
		C53.7,48,57.1,43.6,57.1,38.4z M41.2,58.4c-1.1,0-2.1-0.9-2.1-2.1s0.9-2.1,2.1-2.1c1.1,0,2.1,0.9,2.1,2.1S42.3,58.4,41.2,58.4z
		 M49.8,54.2c1.1,0,2.1,0.9,2.1,2.1c0,1.1-0.9,2.1-2.1,2.1c-1.1,0-2.1-0.9-2.1-2.1C47.7,55.1,48.7,54.2,49.8,54.2z M45.5,50.9
		l-1-0.9c0.3,0,0.6,0,1,0c0.3,0,0.6,0,0.9,0L45.5,50.9z"/>
	<path fill="none" stroke="#B7B1A9" stroke-width="2.0023" stroke-miterlimit="10" d="M23.7,27.9H26c0,0,1.9-0.3,3.1,1.7
		s6.2,10.1,6.2,10.1"/>
</g>
</svg>
