<?xml version="1.0" encoding="utf-8"?>
<!-- Generator: Adobe Illustrator 17.1.0, SVG Export Plug-In . SVG Version: 6.00 Build 0)  -->
<!DOCTYPE svg PUBLIC "-//W3C//DTD SVG 1.1//EN" "http://www.w3.org/Graphics/SVG/1.1/DTD/svg11.dtd">
<svg version="1.1" id="Layer_1" xmlns="http://www.w3.org/2000/svg" xmlns:xlink="http://www.w3.org/1999/xlink" x="0px" y="0px"
	 width="60px" height="60px" viewBox="0 0 60 60" enable-background="new 0 0 60 60" xml:space="preserve">
<g>
	<path fill="#B7B1A9" d="M52.2,38.9H6.1V7.4h46.1C52.2,7.4,52.2,38.9,52.2,38.9z M8.1,36.9h42.1V9.4H8.1V36.9z"/>
	<g>
		<g>
			<rect x="28.1" y="0.9" fill="#B7B1A9" width="2.2" height="7.3"/>
			<path fill="#B7B1A9" d="M31.2,9.3H27V0h4.2V9.3z M29.1,7.3h0.2V1.9h-0.2V7.3z"/>
		</g>
		<g>
			<path fill="#B7B1A9" d="M41.7,60h-3.9l-2.5-14.9h-4v2h-4.2v-2h-4L20.5,60h-3.9l2.5-14.9h-1.8v-3.8h2.3l0.2-2.5h3.9l-0.2,2.5H27
				v-2.5h4.2v2.5h3.5l-0.2-2.5h3.9l0.2,2.5h2.3v3.8h-1.8L41.7,60z"/>
		</g>
	</g>
	<g>
		<path fill="#B7B1A9" d="M20.5,20.1c0,0,2.7,2.9,1.1,4.8c-1.6,2-4.3,6.8-1.1,6.8s5.9-4.6,9.2-4.1s0.3-7,3.8-5.2
			c3.6,1.8,8-1.1,4.4-3.5s-7.1-6.3-8.3-2.9c-1.2,3.4,0.2,5.7-2.6,5s-4.3-5.2-5.4-4.2S26.8,19.4,20.5,20.1z"/>
		<path fill="#B7B1A9" d="M20.5,32c-1.1,0-1.5-0.5-1.7-0.9c-0.8-1.7,1.3-5.1,2.5-6.5c1.4-1.7-1-4.3-1.1-4.3l-0.5-0.5l0.7-0.1
			c2.4-0.3,2.5-0.6,2.5-0.7c0-0.2-0.5-0.6-0.8-0.8c-0.5-0.4-1-0.8-1-1.2c0-0.1,0-0.4,0.2-0.5c0.2-0.2,0.4-0.2,0.6-0.2
			c0.6,0,1.1,0.7,1.8,1.6c0.8,1.1,1.9,2.4,3.3,2.8c0.3,0.1,0.6,0.1,0.8,0.1c0.6,0,0.7-0.3,0.8-1.7c0.1-0.9,0.2-2,0.6-3.2
			c0.4-1,1-1.6,1.8-1.6c1.3,0,2.8,1.2,4.7,2.6c0.8,0.6,1.5,1.2,2.3,1.7c1.6,1.1,1.6,2.1,1.4,2.7c-0.4,1.2-1.9,2-3.7,2
			c-0.9,0-1.7-0.2-2.5-0.6c-0.3-0.2-0.6-0.2-0.8-0.2c-0.6,0-0.7,0.9-0.7,2.2c-0.1,1.6-0.2,3.6-2.2,3.3c-1.6-0.3-3,0.8-4.6,2
			C23.6,31,22.1,32,20.5,32z M21.2,20.4c0.7,1,2,3.1,0.7,4.8c-1.3,1.6-2.9,4.6-2.4,5.7c0.1,0.1,0.2,0.5,1,0.5c1.4,0,2.7-1,4.1-2
			c1.6-1.2,3.3-2.4,5.1-2.1c1.1,0.2,1.3-0.9,1.4-2.6c0.1-1.3,0.2-2.9,1.4-2.9c0.3,0,0.7,0.1,1.1,0.3c0.7,0.3,1.4,0.5,2.2,0.5
			c1.4,0,2.7-0.7,3-1.5c0.2-0.6-0.2-1.3-1.1-1.9c-0.8-0.5-1.6-1.1-2.4-1.7c-1.6-1.3-3.2-2.4-4.2-2.4c-0.3,0-0.8,0.1-1.1,1.1
			c-0.4,1.2-0.5,2.2-0.6,3.1c-0.1,1.5-0.2,2.8-2.5,2.2c-1.5-0.4-2.6-1.7-3.5-2.8c0.2,0.2,0.3,0.5,0.2,0.8
			C23.6,19.8,22.8,20.2,21.2,20.4z M22.1,17L22.1,17c-0.1,0.2,0.4,0.5,0.6,0.7c0.3,0.2,0.6,0.5,0.8,0.7c0-0.1-0.1-0.1-0.1-0.2
			C22.9,17.7,22.3,17,22.1,17z"/>
	</g>
</g>
</svg>
