<?xml version="1.0" encoding="utf-8"?>
<!-- Generator: Adobe Illustrator 17.1.0, SVG Export Plug-In . SVG Version: 6.00 Build 0)  -->
<!DOCTYPE svg PUBLIC "-//W3C//DTD SVG 1.1//EN" "http://www.w3.org/Graphics/SVG/1.1/DTD/svg11.dtd">
<svg version="1.1" id="Layer_1" xmlns="http://www.w3.org/2000/svg" xmlns:xlink="http://www.w3.org/1999/xlink" x="0px" y="0px"
	 width="60px" height="60px" viewBox="0 0 60 60" enable-background="new 0 0 60 60" xml:space="preserve">
<g>
	<path fill="#0067C5" d="M30,24l11.2-4.1c0.6-1.4,0.9-3,0.9-4.6c0-6.7-5.4-12.1-12.1-12.1S17.9,8.6,17.9,15.3c0,1.6,0.3,3.2,0.9,4.6
		L30,24z"/>
	<path fill="#0067C5" d="M16.5,36.4c0,2.4-1.9,4.3-4.3,4.3H8.1c-2.4,0-4.3-1.9-4.3-4.3l0,0c0-2.4,1.9-4.3,4.3-4.3h4.1
		C14.6,32.1,16.5,34,16.5,36.4L16.5,36.4z"/>
	<path fill="#0067C5" d="M56.2,36.4c0,2.4-1.9,4.3-4.3,4.3h-4.1c-2.4,0-4.3-1.9-4.3-4.3l0,0c0-2.4,1.9-4.3,4.3-4.3h4.1
		C54.2,32.1,56.2,34,56.2,36.4L56.2,36.4z"/>
	<path fill="#0067C5" d="M47.7,42c-3.1,0-5.7-2.5-5.7-5.7s2.5-5.7,5.7-5.7h2.6V18.2L30,25.6L9.7,18.2v12.5h2.7
		c3.1,0,5.7,2.5,5.7,5.7S15.5,42,12.4,42H9.7v6.9L30,58.2l20.3-9.3V42H47.7z M32.6,30.7L46,25.6v1.8l-13.4,5.1V30.7z M40.8,48.3
		L32.6,52v-1l8.2-3.7V48.3z M40.8,45.5l-8.2,3.2v-0.9l8.2-3.2V45.5z M40.8,42.6l-8.2,3v-0.9l8.2-3V42.6z M40.8,39.7l-8.2,3.1v-0.9
		l8.2-3.1V39.7z M40.8,36.8L32.6,40v-0.9l8.2-3.2V36.8z M40.8,34.1l-8.2,3.1v-0.9l8.2-3.1V34.1z"/>
</g>
</svg>
