<?xml version="1.0" encoding="utf-8"?>
<!-- Generator: Adobe Illustrator 17.1.0, SVG Export Plug-In . SVG Version: 6.00 Build 0)  -->
<!DOCTYPE svg PUBLIC "-//W3C//DTD SVG 1.1//EN" "http://www.w3.org/Graphics/SVG/1.1/DTD/svg11.dtd">
<svg version="1.1" id="Layer_1" xmlns="http://www.w3.org/2000/svg" xmlns:xlink="http://www.w3.org/1999/xlink" x="0px" y="0px"
	 width="60px" height="60px" viewBox="0 0 60 60" enable-background="new 0 0 60 60" xml:space="preserve">
<g>
	<circle fill="#B7B1A9" cx="25" cy="6.9" r="6.9"/>
	<path fill="#B7B1A9" d="M37.7,17.4c-0.6-0.7-3.6-4.4-8.4-2.3c-4,1.8-3.3,6.6-3.3,6.6c0.1,1,0.3,2.1,0.5,3.1l-7.1-2.7
		c-1.7-0.6-3.5,0.2-4.2,1.9c-0.6,1.7,0.2,3.5,1.9,4.2l11.1,4.1l-0.9,4.1c0,0-7.1-0.2-10.7,2c-4.2,2.6-1.3,11.9,2,17.9
		c3.1,5.6,6.8,3.1,6.8,3.1s3.6-2.3,0-7c-2.9-3.8-2.5-7.9-2.5-7.9s12.8,2.1,15.8-2.8C43.9,32.9,40.5,20.8,37.7,17.4z"/>
	
		<rect x="13.9" y="12.7" transform="matrix(0.4126 -0.9109 0.9109 0.4126 -8.3845 24.3757)" fill="#B7B1A9" width="1.7" height="11.9"/>
	<polygon fill="#B7B1A9" points="45.1,19 42,45.8 24.4,45.8 24.4,49.5 46.8,49.5 50.3,19 	"/>
</g>
</svg>
