<?xml version="1.0" encoding="utf-8"?>
<!-- Generator: Adobe Illustrator 17.1.0, SVG Export Plug-In . SVG Version: 6.00 Build 0)  -->
<!DOCTYPE svg PUBLIC "-//W3C//DTD SVG 1.1//EN" "http://www.w3.org/Graphics/SVG/1.1/DTD/svg11.dtd">
<svg version="1.1" id="Layer_1" xmlns="http://www.w3.org/2000/svg" xmlns:xlink="http://www.w3.org/1999/xlink" x="0px" y="0px"
	 width="60px" height="60px" viewBox="0 0 60 60" enable-background="new 0 0 60 60" xml:space="preserve">
<g>
	<path fill="#B7B1A9" d="M45.5,31.3c-0.9,0-1.6,0.7-1.6,1.6v2.6h-0.7v-4.9c0-0.9-0.7-1.6-1.6-1.6c-0.9,0-1.6,0.7-1.6,1.6v4.8h-0.8
		v-6.6c0-0.9-0.7-1.6-1.6-1.6c-0.9,0-1.6,0.7-1.6,1.6v6.6h-1V21.5c0-0.9-0.7-1.6-1.6-1.6c-0.9,0-1.6,0.7-1.6,1.6V40H31v-7.7
		c0-0.9-0.7-1.6-1.6-1.6s-1.6,0.7-1.6,1.6v8.6v0.5v4l6.1,5.5v4.8h13.2v-2.3V35.6v-2.7C47.1,32,46.4,31.3,45.5,31.3z"/>
	<path fill="#B7B1A9" d="M50.7,45.6H10c-3.2,0-5.8-2.6-5.8-5.8V11.5c0-3.2,2.6-5.8,5.8-5.8h40.8c3.2,0,5.8,2.6,5.8,5.8v28.2
		C56.6,43,53.9,45.6,50.7,45.6z M10.1,39.6h40.5V11.7H10.1V39.6z"/>
	<path fill="#B7B1A9" d="M30.9,26.2v-0.8c-1.9-0.9-3.2-2.9-3.2-5.1c0-3.2,2.6-5.7,5.7-5.7c3.2,0,5.7,2.6,5.7,5.7
		c0,2.2-1.3,4.1-3.1,5.1v0.8c2.2-1,3.8-3.2,3.8-5.8c0-3.5-2.9-6.4-6.4-6.4S27,16.9,27,20.4C27.1,23,28.7,25.2,30.9,26.2z"/>
	<path fill="#B7B1A9" d="M30.9,23.6v-0.8c-0.6-0.6-1-1.5-1-2.5c0-2,1.6-3.6,3.6-3.6s3.6,1.6,3.6,3.6c0,0.9-0.4,1.7-0.9,2.4v0.9
		c0.9-0.8,1.5-1.9,1.5-3.2c0-2.3-1.9-4.2-4.2-4.2s-4.2,1.9-4.2,4.2C29.3,21.7,29.9,22.9,30.9,23.6z"/>
</g>
</svg>
