<?xml version="1.0" encoding="utf-8"?>
<!-- Generator: Adobe Illustrator 17.1.0, SVG Export Plug-In . SVG Version: 6.00 Build 0)  -->
<!DOCTYPE svg PUBLIC "-//W3C//DTD SVG 1.1//EN" "http://www.w3.org/Graphics/SVG/1.1/DTD/svg11.dtd">
<svg version="1.1" id="Layer_1" xmlns="http://www.w3.org/2000/svg" xmlns:xlink="http://www.w3.org/1999/xlink" x="0px" y="0px"
	 width="60px" height="60px" viewBox="0 0 60 60" enable-background="new 0 0 60 60" xml:space="preserve">
<g>
	<path fill="#B7B1A9" d="M15.2,30.9h3.3c0,0-0.2-3.1-0.6-3.8V27c-0.4-0.4-1.4-0.9-2-1.2l-0.4-0.2v-0.9c0.5-0.6,0.8-1.5,0.8-2.3
		c0-1.4-0.9-2-1.9-2c-0.8,0-1.9,0.7-1.9,2c0,0.8,0.3,1.7,0.8,2.3v0.8v0.2L13,25.9c-0.6,0.2-1.8,0.8-2.1,1.2
		c-0.4,0.6-0.6,3.9-0.6,3.9h3.3h1.6V30.9z"/>
	<path fill="#B7B1A9" d="M35,25.5c0.3-0.4,0.4-0.9,0.2-1.3c-0.1-0.2-0.4-0.4-0.6-0.4c0,0,0,0-0.1,0s-0.3,0-0.4,0.2
		c-0.2,0.3,0,0.7,0.2,1C34.6,25.2,34.8,25.4,35,25.5z"/>
	<path fill="#B7B1A9" d="M38,24.8c0-0.1,0.1-0.1,0.1-0.2c0.2-0.4,0.2-0.7,0.1-0.9c-0.1-0.2-0.3-0.3-0.4-0.3h-0.1
		c-0.2,0.1-0.3,0.4-0.2,0.6C37.5,24.2,37.7,24.5,38,24.8z"/>
	<path fill="#B7B1A9" d="M29.8,26.1c0.3-0.2,0.7-0.4,1-0.6c0.4-0.3,0.6-0.6,0.6-0.9s-0.2-0.5-0.4-0.7c-0.2-0.1-0.5-0.2-0.7-0.2
		s-0.4,0.1-0.6,0.2c-0.5,0.1-0.7,0.6-0.7,1C29.1,25.3,29.3,25.8,29.8,26.1z"/>
	<path fill="#B7B1A9" d="M42.7,25.7C42.7,25.7,42.7,25.6,42.7,25.7c0.2-0.6,0-1.1-0.4-1.3c-0.1,0-0.1,0-0.2,0
		c-0.1,0-0.3,0.1-0.4,0.1c-0.1,0.1-0.3,0.2-0.2,0.4c0,0.3,0.3,0.5,0.6,0.7C42.2,25.6,42.5,25.7,42.7,25.7z"/>
	<path fill="#B7B1A9" d="M56.7,12.8H3.5c-0.5,0-0.9,0.4-0.9,0.9v33.9c0,0.5,0.4,0.9,0.9,0.9h53.2c0.5,0,0.9-0.4,0.9-0.9V13.7
		C57.6,13.2,57.2,12.8,56.7,12.8z M20.7,32.5H8.2V18.4h12.5V32.5z M26.1,21.9c0.9-0.6,2.1-0.6,3-0.1c0.2,0.1,0.3,0.4,0.2,0.6
		c-0.1,0.2-0.4,0.3-0.6,0.2c-0.6-0.3-1.4-0.3-2,0.1s-0.9,1.1-0.8,1.8c0.1,0.9,1,1.7,2,1.9c0.3,0,0.6,0,0.9,0
		c-0.4-0.4-0.6-0.9-0.6-1.4c-0.1-0.8,0.4-1.7,1.1-2.1s1.6-0.4,2.3,0.1c0.6,0.4,0.9,1,0.9,1.6s-0.4,1.1-1,1.6
		c-0.1,0.1-0.3,0.2-0.4,0.3c0.3,0,0.6,0.1,0.9,0.1c1,0,1.8-0.1,2.4-0.4c-0.2-0.1-0.4-0.3-0.5-0.5c-0.5-0.6-0.8-1.5-0.3-2.2
		c0.3-0.4,0.8-0.6,1.3-0.6c0.6,0,1.2,0.4,1.4,0.9c0.3,0.7,0.2,1.4-0.2,2c0.1,0,0.3,0,0.4,0c0.3,0,0.6-0.2,0.9-0.3
		c-0.3-0.4-0.7-0.8-0.8-1.3c-0.1-0.6,0.1-1.4,0.8-1.7c0.6-0.2,1.4,0.1,1.7,0.8c0.2,0.5,0.2,1.1-0.1,1.7c-0.1,0.2-0.2,0.3-0.3,0.4
		c0.3,0.3,0.6,0.5,1,0.7s1.1,0.5,1.8,0.4c0.1,0,0.2,0,0.3-0.1l0,0c-0.7-0.3-1.2-0.8-1.2-1.5c0-0.5,0.2-0.9,0.6-1.3
		c0.5-0.3,1.1-0.4,1.5-0.2c0.8,0.3,1.3,1.3,1.1,2.2c0.5,0,1-0.1,1.3-0.3c0.2-0.1,0.4-0.4,0.4-0.7c0-0.1,0-0.3-0.1-0.4
		c-0.2-0.2-0.1-0.5,0.1-0.7c0.2-0.2,0.5-0.1,0.7,0.1c0.3,0.3,0.4,0.7,0.3,1.1c-0.1,0.5-0.4,1-0.8,1.3c-0.7,0.5-1.6,0.5-2.3,0.5h-0.1
		c-0.4,0.4-1,0.7-1.6,0.8c-0.7,0.1-1.5-0.1-2.4-0.5c-0.4-0.2-0.8-0.5-1.2-0.8c-0.4,0.3-1,0.6-1.5,0.6c-0.4,0.1-0.9,0-1.3-0.1
		c-0.8,0.6-1.8,0.9-3.2,0.9c-0.1,0-0.1,0-0.2,0c-0.6,0-1.4-0.1-2.1-0.4c-0.7,0.2-1.4,0.3-2,0.2c-1.5-0.2-2.7-1.4-2.8-2.7
		C24.7,23.6,25.2,22.5,26.1,21.9z M40.4,40.8H25.3v-0.9h15.1V40.8z M51.8,36.8H25.3v-0.9h26.5V36.8z M51.8,32.7H25.3v-0.9h26.5V32.7
		z"/>
</g>
</svg>
