<?xml version="1.0" encoding="utf-8"?>
<!-- Generator: Adobe Illustrator 17.1.0, SVG Export Plug-In . SVG Version: 6.00 Build 0)  -->
<!DOCTYPE svg PUBLIC "-//W3C//DTD SVG 1.1//EN" "http://www.w3.org/Graphics/SVG/1.1/DTD/svg11.dtd">
<svg version="1.1" id="Layer_1" xmlns="http://www.w3.org/2000/svg" xmlns:xlink="http://www.w3.org/1999/xlink" x="0px" y="0px"
	 width="60px" height="60px" viewBox="0 0 60 60" enable-background="new 0 0 60 60" xml:space="preserve">
<path fill="#B7B1A9" d="M51.7,12.4H8.2c-1,0-1.8,0.7-1.8,1.6v29.2c0,0.9,0.8,1.6,1.8,1.6h43.6c1,0,1.8-0.7,1.8-1.6V14
	C53.5,13.1,52.7,12.4,51.7,12.4z M51.5,42.9H8.4V14.2h43.1V42.9z"/>
<path fill="#B7B1A9" d="M34.8,46.5c0,0.8-0.6,1.4-1.4,1.4h-6.7c-0.8,0-1.4-0.6-1.4-1.4H0.1c0,1.6,1.3,2.9,2.9,2.9h54.1
	c1.6,0,2.9-1.3,2.9-2.9H34.8z"/>
<g>
	<polygon fill="#B7B1A9" points="30,18.4 21.5,25.8 38.4,25.8 	"/>
	<polygon fill="#B7B1A9" points="21.5,25.8 21.5,36.7 38.4,36.7 38.4,25.8 30,31.3 	"/>
</g>
</svg>
