<?xml version="1.0" encoding="utf-8"?>
<!-- Generator: Adobe Illustrator 17.1.0, SVG Export Plug-In . SVG Version: 6.00 Build 0)  -->
<!DOCTYPE svg PUBLIC "-//W3C//DTD SVG 1.1//EN" "http://www.w3.org/Graphics/SVG/1.1/DTD/svg11.dtd">
<svg version="1.1" id="Layer_1" xmlns="http://www.w3.org/2000/svg" xmlns:xlink="http://www.w3.org/1999/xlink" x="0px" y="0px"
	 width="60px" height="60px" viewBox="0 0 60 60" enable-background="new 0 0 60 60" xml:space="preserve">
<g>
	<circle fill="#0067C5" cx="25.9" cy="8.7" r="6.9"/>
	<path fill="#0067C5" d="M16.2,42.9c-5.9,0-5.7-7.2-5-13.6c0.7-6.8,3.8-14.8,8.6-14c4.8,0.8,4.1,5.8,4.1,5.9
		c0.9,0.3,2.1,0.5,3.3,0.5c0,0,2.7-0.1,4.7-0.9c0.5-0.2,1.1-0.4,1.6-0.6l-1.3-1.9l0.5-0.4l1.4,2.1c1.2-0.3,2.3-0.3,3,0.5
		c0.5,0.6,0.9,2-0.4,3.3l1.2,1.7l-0.5,0.4l-1.2-1.7c-1,0.8-2.7,1.4-5.5,1.8c-3,0.4-5.5,0.1-7.5-0.5L22,35.7c0,0,0.6,0.1,3.9,0.3
		v-0.8v-1.9v-1.9h-2v-3.7h31.5v3.7h-2v1.9v1.9v23.5h-4.5V35.2H30.5v1.3c2.7,0.9,3,2.9,3,2.9s3.4,12.1,3.6,13c0.2,1,1.6,5.2-1.7,6.2
		c-3.6,1.1-4.5-2.1-5-3.5v3.5H26l-0.2-15.9C24.4,42.9,21.2,42.9,16.2,42.9z"/>
	<path fill="#0067C5" d="M3.8,16.9v26v3.3V59h2.9v-4.2h11.7v4h2.8V46.2h1.3v-3.3h-1.3h-2.8H6.7v-26C6.7,16.9,3.8,16.9,3.8,16.9z
		 M6.7,46.2h11.7v6.2H6.7V46.2z"/>
	<rect x="31.6" y="26.8" fill="#0067C5" width="10.8" height="0.3"/>
</g>
</svg>
