<?xml version="1.0" encoding="utf-8"?>
<!-- Generator: Adobe Illustrator 17.1.0, SVG Export Plug-In . SVG Version: 6.00 Build 0)  -->
<!DOCTYPE svg PUBLIC "-//W3C//DTD SVG 1.1//EN" "http://www.w3.org/Graphics/SVG/1.1/DTD/svg11.dtd">
<svg version="1.1" id="Layer_1" xmlns="http://www.w3.org/2000/svg" xmlns:xlink="http://www.w3.org/1999/xlink" x="0px" y="0px"
	 width="60px" height="60px" viewBox="0 0 60 60" enable-background="new 0 0 60 60" xml:space="preserve">
<g>
	<path fill="#B7B1A9" d="M37.9,26.9c-11.2,4.9-14.8,3.3-19.7,3.6c-3.1,0.1-7.2,0.7-7.4,2.6c-0.1,0.7,0.1,1.3,0.5,1.8
		c1,1.1,3,1.6,4.2,1.7c1.5,0.1,16.1,0.6,16.3,0.6l-0.1,1.4c-0.1,0-14.8-0.6-16.3-0.6c-1.3-0.1-3.9-0.6-5.2-2.1
		c-0.7-0.8-1-1.8-0.9-2.9c0.3-2.6,3.8-3.5,6.9-3.8l-6.9-6c0,0-1.2-0.9-2-1c0,0-1.8-1.7-3.3-0.4c0,0-2.8-1.1-3.4-0.5
		c-0.6,0.7,0,2.3,0,2.3S-0.3,24.1,0,25c0.4,1,7.8,10.6,11.1,13.3s9.4,6.5,10.7,7.5c1.2,1,3.8,3,9.8,0.5s13.4-4.6,19.5-2.1L60,32.3
		C60,32.3,50.4,21.4,37.9,26.9z"/>
	<path fill="#B7B1A9" d="M21.4,28.8c3.1,0.1,6.5,0.2,12.8-2.2v-2.8H18.1v4.9l0.1,0.1C19.1,28.8,20.3,28.8,21.4,28.8z"/>
	<rect x="18.1" y="18.9" fill="#B7B1A9" width="16.1" height="2.4"/>
	<rect x="18.1" y="13.8" fill="#B7B1A9" width="16.1" height="2.4"/>
</g>
</svg>
