<?xml version="1.0" encoding="utf-8"?>
<!-- Generator: Adobe Illustrator 17.1.0, SVG Export Plug-In . SVG Version: 6.00 Build 0)  -->
<!DOCTYPE svg PUBLIC "-//W3C//DTD SVG 1.1//EN" "http://www.w3.org/Graphics/SVG/1.1/DTD/svg11.dtd">
<svg version="1.1" id="Layer_1" xmlns="http://www.w3.org/2000/svg" xmlns:xlink="http://www.w3.org/1999/xlink" x="0px" y="0px"
	 width="60px" height="60px" viewBox="0 0 60 60" enable-background="new 0 0 60 60" xml:space="preserve">
<g>
	<path fill="#B7B1A9" d="M58,33.5H2V0h56V33.5z M4,31.5h52V2H4V31.5z"/>
	<g>
		
			<rect x="24.2" y="6" transform="matrix(0.7644 -0.6447 0.6447 0.7644 -3.5572 19.3087)" fill="#B7B1A9" width="0.8" height="17.1"/>
		<circle fill="#B7B1A9" cx="39.8" cy="15.5" r="4.6"/>
		<path fill="#B7B1A9" d="M49.3,41.2C49,38,47.2,26.1,46.2,24.3c-1.4-2.5-4.2-2.5-4.2-2.5h-0.8H40h-2.8c-2.8,0-3.1-0.2-4.6-1.8
			c-0.8-0.9-6.2-6.5-6.2-6.5c-0.7-0.7-1.8-0.7-2.5-0.1c-0.7,0.7-0.7,1.8-0.1,2.5l9.8,10.3c0.7,0.7,1.4,1.6,1.4,3.5v28.1
			c0,1.1,0.9,2.1,2.1,2.1c1.1,0,2.1-0.9,2.1-2.1l0,0v-12v-5.2v-1c0-0.4,0.3-0.7,0.7-0.7s0.7,0.3,0.7,0.7v1v5.2v12l0,0
			c0,1.1,0.9,2.1,2.1,2.1c1.1,0,2.1-0.9,2.1-2.1V33.2c0.4,2.5,1.5,7.7,1.6,8.1c0.2,1.1,0.9,1.8,1.9,1.7C49.1,42.9,49.4,42,49.3,41.2
			z"/>
	</g>
</g>
</svg>
