<?xml version="1.0" encoding="utf-8"?>
<!-- Generator: Adobe Illustrator 17.1.0, SVG Export Plug-In . SVG Version: 6.00 Build 0)  -->
<!DOCTYPE svg PUBLIC "-//W3C//DTD SVG 1.1//EN" "http://www.w3.org/Graphics/SVG/1.1/DTD/svg11.dtd">
<svg version="1.1" id="Layer_1" xmlns="http://www.w3.org/2000/svg" xmlns:xlink="http://www.w3.org/1999/xlink" x="0px" y="0px"
	 width="60px" height="60px" viewBox="0 0 60 60" enable-background="new 0 0 60 60" xml:space="preserve">
<g>
	<circle fill="#0067c5" cx="713.9" cy="-36.7" r="6.9"/>
	<path fill="#0067c5" d="M704.2-2.5c-5.9,0-5.7-7.2-5-13.6c0.7-6.8,3.8-14.8,8.6-14c4.8,0.8,4.1,5.8,4.1,5.9
		c0.9,0.3,2.1,0.5,3.3,0.5c0,0,2.7-0.1,4.7-0.9c0.5-0.2,1.1-0.4,1.6-0.6l-1.3-1.9l0.5-0.4l1.4,2.1c1.2-0.3,2.3-0.3,3,0.5
		c0.5,0.6,0.9,2-0.4,3.3l1.2,1.7l-0.5,0.4l-1.2-1.7c-1,0.8-2.7,1.4-5.5,1.8c-3,0.4-5.5,0.1-7.5-0.5l-1.2,10.2c0,0,0.6,0.1,3.9,0.3
		v-0.8v-1.9V-14h-2v-3.7h31.5v3.7h-2v1.9v1.9v23.5h-4.5v-23.5h-18.7v1.3c2.7,0.9,3,2.9,3,2.9s3.4,12.1,3.6,13c0.2,1,1.6,5.2-1.7,6.2
		c-3.6,1.1-4.5-2.1-5-3.5v3.5H714l-0.2-15.9C712.4-2.6,709.2-2.5,704.2-2.5z"/>
	<path fill="#0067c5" d="M691.8-28.5v26v3.3v12.8h2.9V9.3h11.7v4h2.8V0.8h1.3v-3.3h-1.3h-2.8h-11.7v-26H691.8z M694.7,0.8h11.7V7
		h-11.7V0.8z"/>
	<rect x="719.6" y="-18.6" fill="#0067c5" width="10.8" height="0.3"/>
</g>
<g>
	<path fill="#0067c5" d="M71.2,1190.6H15.2v-33.4h56.1V1190.6z M17.2,1188.6h52.1v-29.4H17.2V1188.6z"/>
	<g>
		
			<rect x="37.4" y="1163.1" transform="matrix(0.7644 -0.6447 0.6447 0.7644 -746.4642 300.3753)" fill="#0067c5" width="0.8" height="17.1"/>
		<circle fill="#0067c5" cx="53" cy="1172.6" r="4.6"/>
		<path fill="#0067c5" d="M62.5,1198.3c-0.3-3.2-2.1-15.1-3.1-16.9c-1.4-2.5-4.2-2.5-4.2-2.5l-0.8,0h-1.2l-2.8,0
			c-2.8,0-3.1-0.2-4.6-1.8c-0.8-0.9-6.2-6.5-6.2-6.5c-0.7-0.7-1.8-0.7-2.5-0.1c-0.7,0.7-0.7,1.8-0.1,2.5l9.8,10.3
			c0.7,0.7,1.4,1.6,1.4,3.5c0,0,0,28.1,0,28.1c0,1.1,0.9,2.1,2.1,2.1c1.1,0,2.1-0.9,2.1-2.1v0v-12v-5.2v-1c0-0.4,0.3-0.7,0.7-0.7
			c0.4,0,0.7,0.3,0.7,0.7v1v5.2v12v0c0,1.1,0.9,2.1,2.1,2.1c1.1,0,2.1-0.9,2.1-2.1v-24.7c0.4,2.5,1.5,7.7,1.6,8.1
			c0.2,1.1,0.9,1.8,1.9,1.7C62.3,1200,62.6,1199.1,62.5,1198.3z"/>
	</g>
</g>
<g>
	<path fill="#0067c5" d="M66.2,1363.9H20.1v-31.5h46.1V1363.9z M22.1,1361.9h42.1v-27.5H22.1V1361.9z"/>
	<g>
		<g>
			<rect x="42.1" y="1325.9" fill="#0067c5" width="2.2" height="7.3"/>
			<path fill="#0067c5" d="M45.2,1334.3h-4.2v-9.3h4.2V1334.3z M43.1,1332.3h0.2v-5.3h-0.2V1332.3z"/>
		</g>
		<g>
			<polygon fill="#0067c5" points="53.9,1369.1 53.9,1367.2 51.7,1367.2 51.5,1364.7 49.7,1364.7 49.9,1367.2 44.2,1367.2 
				44.2,1364.7 42.1,1364.7 42.1,1367.2 36.4,1367.2 36.6,1364.7 34.8,1364.7 34.6,1367.2 32.4,1367.2 32.4,1369.1 34.3,1369.1 
				31.8,1385.9 33.7,1385.9 36.2,1369.1 42.1,1369.1 42.1,1371 44.2,1371 44.2,1369.1 50.1,1369.1 52.6,1385.9 54.5,1385.9 
				52,1369.1 			"/>
			<path fill="#0067c5" d="M55.7,1386.9h-3.9l-2.5-16.9h-4v2h-4.2v-2h-4l-2.5,16.9h-3.9l2.5-16.9h-1.8v-3.8h2.3l0.2-2.5h3.9
				l-0.2,2.5h3.5v-2.5h4.2v2.5h3.5l-0.2-2.5h3.9l0.2,2.5h2.3v3.8h-1.8L55.7,1386.9z M43.1,1370h0.2v-4.3h-0.2V1370z"/>
		</g>
	</g>
	<g>
		<path fill="#0067c5" d="M34.5,1345.1c0,0,2.7,2.9,1.1,4.8c-1.6,2-4.3,6.8-1.1,6.8c3.2,0,5.9-4.6,9.2-4.1c3.3,0.5,0.3-7,3.8-5.2
			c3.6,1.8,8-1.1,4.4-3.5s-7.1-6.3-8.3-2.9c-1.2,3.4,0.2,5.7-2.6,5c-2.9-0.7-4.3-5.2-5.4-4.2S40.8,1344.4,34.5,1345.1z"/>
		<path fill="#0067c5" d="M34.5,1357c-1.1,0-1.5-0.5-1.7-0.9c-0.8-1.7,1.3-5.1,2.5-6.5c1.4-1.7-1-4.3-1.1-4.3l-0.5-0.5l0.7-0.1
			c2.4-0.3,2.5-0.6,2.5-0.7c0-0.2-0.5-0.6-0.8-0.8c-0.5-0.4-1-0.8-1-1.2c0-0.1,0-0.4,0.2-0.5c0.2-0.2,0.4-0.2,0.6-0.2
			c0.6,0,1.1,0.7,1.8,1.6c0.8,1.1,1.9,2.4,3.3,2.8c0.3,0.1,0.6,0.1,0.8,0.1c0.6,0,0.7-0.3,0.8-1.7c0.1-0.9,0.2-2,0.6-3.2
			c0.4-1,1-1.6,1.8-1.6c1.3,0,2.8,1.2,4.7,2.6c0.8,0.6,1.5,1.2,2.3,1.7c1.6,1.1,1.6,2.1,1.4,2.7c-0.4,1.2-1.9,2-3.7,2
			c-0.9,0-1.7-0.2-2.5-0.6c-0.3-0.2-0.6-0.2-0.8-0.2c-0.6,0-0.7,0.9-0.7,2.2c-0.1,1.6-0.2,3.6-2.2,3.3c-1.6-0.3-3,0.8-4.6,2
			C37.6,1356,36.1,1357,34.5,1357z M35.2,1345.4c0.7,1,2,3.1,0.7,4.8c-1.3,1.6-2.9,4.6-2.4,5.7c0.1,0.1,0.2,0.5,1,0.5
			c1.4,0,2.7-1,4.1-2c1.6-1.2,3.3-2.4,5.1-2.1c1.1,0.2,1.3-0.9,1.4-2.6c0.1-1.3,0.2-2.9,1.4-2.9c0.3,0,0.7,0.1,1.1,0.3
			c0.7,0.3,1.4,0.5,2.2,0.5c1.4,0,2.7-0.7,3-1.5c0.2-0.6-0.2-1.3-1.1-1.9c-0.8-0.5-1.6-1.1-2.4-1.7c-1.6-1.3-3.2-2.4-4.2-2.4
			c-0.3,0-0.8,0.1-1.1,1.1c-0.4,1.2-0.5,2.2-0.6,3.1c-0.1,1.5-0.2,2.8-2.5,2.2c-1.5-0.4-2.6-1.7-3.5-2.8c0.2,0.2,0.3,0.5,0.2,0.8
			C37.6,1344.8,36.8,1345.2,35.2,1345.4z M36.1,1342C36.1,1342,36.1,1342,36.1,1342c-0.1,0.2,0.4,0.5,0.6,0.7
			c0.3,0.2,0.6,0.5,0.8,0.7c0-0.1-0.1-0.1-0.1-0.2C36.9,1342.7,36.3,1342,36.1,1342z"/>
	</g>
</g>
<g>
	<g>
		<circle fill="#0067c5" cx="40.2" cy="10.6" r="5.2"/>
		<path fill="#0067c5" d="M38.2,37.3c0,0.2,0,0.3,0,0.3c-0.9,4.9,0,14.4,0.7,16.6c0.4,1.2,1.3,3.1,3.2,2.9c2.7-0.3,1.9-3.1,1.8-3.9
			c-1-6.5,0.1-15.2,0.1-15.2c0.7-0.5,1.3-1.3,1.8-2.4l0,0l3-2.8h7.6V17.5h-7.7l-6.7,0.9c-0.6,0.1-1.1,0.4-1.5,0.8
			c0,0.1-0.1,0.2-0.2,0.2c0,0,0,0.1-0.1,0.1c0,0,0,0.1,0,0.1c-0.1,0.2-0.2,0.4-0.2,0.6l-3,15.3C36.8,36.3,37.4,37.1,38.2,37.3z
			 M44.4,19l3.6-0.4l0.6,12v1l-2.3,2.3c0.4-1.4,0.7-3,0.8-4.9c0.3-5.2-1.5-8.6-1.5-8.6S45.3,19.6,44.4,19z"/>
	</g>
	<g>
		<circle fill="#0067c5" cx="19.7" cy="10.6" r="5.2"/>
		<path fill="#0067c5" d="M22.9,35.5l-3-15.3c0-0.2-0.1-0.4-0.2-0.6c0,0,0-0.1,0-0.1c0,0,0-0.1-0.1-0.1c-0.1-0.1-0.1-0.2-0.2-0.2
			c-0.4-0.4-0.8-0.7-1.5-0.8l-6.7-0.9H3.6v15.3h7.6l3,2.8l0,0c0.5,1.1,1.1,1.9,1.8,2.4c0,0,1.1,8.7,0.1,15.2
			c-0.1,0.8-0.9,3.6,1.8,3.9c1.8,0.2,2.8-1.8,3.2-2.9c0.7-2.2,1.6-11.7,0.7-16.6c0,0,0-0.1,0-0.3C22.6,37.1,23.1,36.3,22.9,35.5z
			 M14.3,20.4c0,0-1.9,3.4-1.5,8.6c0.1,1.9,0.4,3.5,0.8,4.9l-2.3-2.3v-1l0.6-12l3.6,0.4C14.7,19.6,14.3,20.4,14.3,20.4z"/>
	</g>
</g>
</svg>
